<?xml version="1.0" encoding="UTF-8"?>
<svg id="Capa_1" data-name="Capa 1" xmlns="http://www.w3.org/2000/svg" version="1.1" xmlns:xlink="http://www.w3.org/1999/xlink" viewBox="0 0 233 50">
  <defs>
    <style>
      .cls-1 {
        fill: #000;
      }

      .cls-1, .cls-2 {
        stroke-width: 0px;
      }

      .cls-3 {
        mask: url(#mask-2);
      }

      .cls-4 {
        mask: url(#mask-3);
      }

      .cls-2 {
        fill: #fff;
      }

      .cls-5 {
        mask: url(#mask-1);
      }

      .cls-6 {
        mask: url(#mask);
      }
    </style>
    <mask id="mask" x="33.8" y="7.1" width="81.8" height="10.8" maskUnits="userSpaceOnUse">
      <g id="mask0_474_1749" data-name="mask0 474 1749">
        <path class="cls-2" d="M115.7,7.1H33.8v10.8h81.8V7.1Z"/>
      </g>
    </mask>
    <mask id="mask-1" x="34" y="7.2" width="81.3" height="10.5" maskUnits="userSpaceOnUse">
      <g id="mask1_474_1749" data-name="mask1 474 1749">
        <path class="cls-2" d="M53.2,17.5h2.4v-7.4h-2.4v7.4ZM62.2,10.1l-1.5,4.9-1.6-4.9h-2.5l2.7,7.4h2.6l2.7-7.4h-2.5ZM87,17.5h2.4v-7.4h-2.4v7.4ZM77.8,10.2c-.2,0-.4.2-.6.3-.2,0-.3.2-.5.4-.2.1-.3.3-.5.4v-1.1h-2.4v7.4h2.4v-5c.3,0,.5-.2.8-.2.3,0,.5-.1.8-.1s.4,0,.6,0c.2,0,.3,0,.4,0h.2v-2.2c0,0-.2,0-.3,0h-.3c-.2,0-.4,0-.7.1M81.4,10.1c-.4.1-.8.3-1.1.5-.3.2-.5.5-.7.8-.2.3-.2.6-.2.9,0,.6.2,1,.5,1.4.3.4.8.6,1.3.8.2,0,.5.1.7.2.3,0,.5.1.7.1.3,0,.6.2.7.3.1,0,.2.2.2.4s-.1.4-.4.5c-.3.1-.6.2-.9.2s-.6,0-.9-.1c-.3,0-.5-.2-.8-.3-.3-.1-.5-.2-.6-.3-.1-.1-.3-.2-.4-.3h-.2v2c.3.2.7.3,1.2.4.5.1,1,.2,1.6.2s1.1,0,1.6-.2c.4-.1.8-.3,1.2-.5.3-.2.6-.5.7-.8.2-.3.2-.6.2-1,0-.6-.1-1-.4-1.3-.3-.3-.7-.6-1.3-.8-.2,0-.5-.1-.8-.2-.3,0-.5,0-.7-.1-.4,0-.6-.2-.8-.3-.1,0-.2-.2-.2-.4s.1-.3.4-.5c.2-.1.5-.2.9-.2s.5,0,.8,0c.3,0,.5.1.7.2.2,0,.3.2.5.3.2.1.3.2.4.2h.2v-1.9c-.3-.1-.7-.3-1.1-.4-.5-.1-.9-.2-1.5-.2s-1.1,0-1.5.2M47.8,10.2c-.4.2-.7.4-1.1.7v-.8h-2.4v7.4h2.4v-5.2c.2-.2.4-.3.6-.3.2,0,.4-.1.6-.1s.5,0,.6.1c.2,0,.3.2.4.4,0,.1.1.4.1.7,0,.3,0,.6,0,.9v3.7h2.4v-4.8c0-.9-.2-1.6-.6-2.1-.4-.5-1-.7-1.8-.7s-.9,0-1.2.3M102.2,15.9c-.2-.1-.3-.4-.3-.7s0-.4.2-.6c.1-.1.3-.2.5-.3.2,0,.5-.1.7-.2.2,0,.6,0,1,0v1.5c-.2.2-.4.3-.6.4-.2,0-.4.1-.6.1-.4,0-.7,0-.8-.2ZM101.2,10c-.5,0-.9.2-1.1.2v1.8h.2c.4-.2.7-.3,1.1-.4.4-.1.7-.2,1-.2.6,0,1.1,0,1.4.2.3.2.5.4.5.8h0c-.7,0-1.3.1-1.9.2-.6,0-1.1.2-1.6.4-.4.2-.8.5-1,.8-.2.3-.3.8-.3,1.3s.2,1.2.7,1.7c.4.4,1,.7,1.7.7s.6,0,.8,0c.2,0,.4-.1.6-.2.2-.1.4-.2.5-.3.1-.1.3-.2.4-.4v.8h2.4v-5c0-.9-.3-1.5-.9-1.9-.6-.4-1.6-.6-2.9-.6s-1.1,0-1.6.1M67.8,11.8c.3-.3.6-.4,1.1-.4s.8.1,1,.4c.2.3.3.6.4,1.1h-2.9c0-.5.2-.8.4-1.1M66,10.9c-.7.7-1.1,1.7-1.1,2.9s.4,2.2,1.2,2.9c.8.7,1.9,1,3.3,1s.7,0,1,0c.3,0,.5,0,.8-.2.3,0,.5-.1.7-.2.2,0,.3-.1.5-.2v-1.9h-.3c-.1,0-.2.2-.4.3-.2,0-.3.2-.5.3-.2,0-.5.2-.7.2-.3,0-.5,0-.8,0s-.6,0-.9,0c-.3,0-.5-.2-.7-.3-.2-.1-.4-.3-.5-.6-.1-.2-.2-.5-.2-.9h5.2v-.8c0-1.1-.3-2-.9-2.6-.6-.6-1.5-.9-2.6-.9s-2.3.4-3,1.1M39.9,7.2v6.4c0,.7-.1,1.3-.4,1.6-.3.3-.7.5-1.3.5s-1-.2-1.3-.5c-.3-.3-.4-.9-.4-1.6v-6.4h-2.6v6.5c0,1.3.4,2.3,1.1,2.9.7.7,1.8,1,3.1,1s2.5-.3,3.2-1c.7-.7,1.1-1.6,1.1-2.9v-6.5h-2.5ZM53.2,9h2.5v-1.8h-2.5v1.8ZM87,9h2.5v-1.8h-2.5v1.8ZM93.5,15.4c-.2-.3-.3-.9-.3-1.6,0-.7.2-1.2.4-1.6.3-.4.7-.6,1.3-.6s.3,0,.5,0c.2,0,.3,0,.5.1v3.6c-.2.1-.4.2-.6.3-.2,0-.4.1-.6.1-.5,0-.9-.2-1.1-.5M95.8,7.2v3.1c-.3-.2-.6-.3-.9-.4-.3,0-.6-.1-1-.1s-.9,0-1.3.3c-.4.2-.7.4-1,.8-.3.4-.5.8-.7,1.2-.2.5-.3,1-.3,1.7,0,1.2.3,2.1.8,2.8.5.7,1.2,1.1,2.1,1.1s.5,0,.7,0c.2,0,.4-.1.6-.2.2,0,.3-.2.5-.3.2-.1.4-.3.5-.4v.8h2.4V7.2h-2.4,0ZM110.6,15.4c-.2-.3-.4-.9-.4-1.6s.2-1.2.4-1.6c.3-.4.7-.6,1.3-.6s.3,0,.5,0c.2,0,.3,0,.5.1v3.6c-.2.1-.4.2-.6.3-.2,0-.4.1-.6.1-.5,0-.9-.2-1.1-.5M112.9,7.2v3.1c-.3-.2-.6-.3-.9-.4-.3,0-.6-.1-1-.1s-.9,0-1.3.3c-.4.2-.7.4-1,.8-.3.4-.5.8-.7,1.2-.2.5-.3,1-.3,1.7,0,1.2.2,2.1.8,2.8.5.7,1.2,1.1,2.1,1.1s.5,0,.7,0c.2,0,.4-.1.6-.2.1,0,.3-.2.5-.3.2-.1.4-.3.5-.4v.8h2.4V7.2h-2.4Z"/>
      </g>
    </mask>
    <mask id="mask-2" x="33.8" y="7.1" width="81.8" height="10.8" maskUnits="userSpaceOnUse">
      <g id="mask0_474_1749-2" data-name="mask0 474 1749">
        <path class="cls-2" d="M115.7,7.1H33.8v10.8h81.8V7.1Z"/>
      </g>
    </mask>
    <mask id="mask-3" x="34" y="7.2" width="81.3" height="10.5" maskUnits="userSpaceOnUse">
      <g id="mask1_474_1749-2" data-name="mask1 474 1749">
        <path class="cls-2" d="M53.2,17.5h2.4v-7.4h-2.4v7.4ZM62.2,10.1l-1.5,4.9-1.6-4.9h-2.5l2.7,7.4h2.6l2.7-7.4h-2.5ZM87,17.5h2.4v-7.4h-2.4v7.4ZM77.8,10.2c-.2,0-.4.2-.6.3-.2,0-.3.2-.5.4-.2.1-.3.3-.5.4v-1.1h-2.4v7.4h2.4v-5c.3,0,.5-.2.8-.2.3,0,.5-.1.8-.1s.4,0,.6,0c.2,0,.3,0,.4,0h.2v-2.2c0,0-.2,0-.3,0h-.3c-.2,0-.4,0-.7.1M81.4,10.1c-.4.1-.8.3-1.1.5-.3.2-.5.5-.7.8-.2.3-.2.6-.2.9,0,.6.2,1,.5,1.4.3.4.8.6,1.3.8.2,0,.5.1.7.2.3,0,.5.1.7.1.3,0,.6.2.7.3.1,0,.2.2.2.4s-.1.4-.4.5c-.3.1-.6.2-.9.2s-.6,0-.9-.1c-.3,0-.5-.2-.8-.3-.3-.1-.5-.2-.6-.3-.1-.1-.3-.2-.4-.3h-.2v2c.3.2.7.3,1.2.4.5.1,1,.2,1.6.2s1.1,0,1.6-.2c.4-.1.8-.3,1.2-.5.3-.2.6-.5.7-.8.2-.3.2-.6.2-1,0-.6-.1-1-.4-1.3-.3-.3-.7-.6-1.3-.8-.2,0-.5-.1-.8-.2-.3,0-.5,0-.7-.1-.4,0-.6-.2-.8-.3-.1,0-.2-.2-.2-.4s.1-.3.4-.5c.2-.1.5-.2.9-.2s.5,0,.8,0c.3,0,.5.1.7.2.2,0,.3.2.5.3.2.1.3.2.4.2h.2v-1.9c-.3-.1-.7-.3-1.1-.4-.5-.1-.9-.2-1.5-.2s-1.1,0-1.5.2M47.8,10.2c-.4.2-.7.4-1.1.7v-.8h-2.4v7.4h2.4v-5.2c.2-.2.4-.3.6-.3.2,0,.4-.1.6-.1s.5,0,.6.1c.2,0,.3.2.4.4,0,.1.1.4.1.7,0,.3,0,.6,0,.9v3.7h2.4v-4.8c0-.9-.2-1.6-.6-2.1-.4-.5-1-.7-1.8-.7s-.9,0-1.2.3M102.2,15.9c-.2-.1-.3-.4-.3-.7s0-.4.2-.6c.1-.1.3-.2.5-.3.2,0,.5-.1.7-.2.2,0,.6,0,1,0v1.5c-.2.2-.4.3-.6.4-.2,0-.4.1-.6.1-.4,0-.7,0-.8-.2ZM101.2,10c-.5,0-.9.2-1.1.2v1.8h.2c.4-.2.7-.3,1.1-.4.4-.1.7-.2,1-.2.6,0,1.1,0,1.4.2.3.2.5.4.5.8h0c-.7,0-1.3.1-1.9.2-.6,0-1.1.2-1.6.4-.4.2-.8.5-1,.8-.2.3-.3.8-.3,1.3s.2,1.2.7,1.7c.4.4,1,.7,1.7.7s.6,0,.8,0c.2,0,.4-.1.6-.2.2-.1.4-.2.5-.3.1-.1.3-.2.4-.4v.8h2.4v-5c0-.9-.3-1.5-.9-1.9-.6-.4-1.6-.6-2.9-.6s-1.1,0-1.6.1M67.8,11.8c.3-.3.6-.4,1.1-.4s.8.1,1,.4c.2.3.3.6.4,1.1h-2.9c0-.5.2-.8.4-1.1M66,10.9c-.7.7-1.1,1.7-1.1,2.9s.4,2.2,1.2,2.9c.8.7,1.9,1,3.3,1s.7,0,1,0c.3,0,.5,0,.8-.2.3,0,.5-.1.7-.2.2,0,.3-.1.5-.2v-1.9h-.3c-.1,0-.2.2-.4.3-.2,0-.3.2-.5.3-.2,0-.5.2-.7.2-.3,0-.5,0-.8,0s-.6,0-.9,0c-.3,0-.5-.2-.7-.3-.2-.1-.4-.3-.5-.6-.1-.2-.2-.5-.2-.9h5.2v-.8c0-1.1-.3-2-.9-2.6-.6-.6-1.5-.9-2.6-.9s-2.3.4-3,1.1M39.9,7.2v6.4c0,.7-.1,1.3-.4,1.6-.3.3-.7.5-1.3.5s-1-.2-1.3-.5c-.3-.3-.4-.9-.4-1.6v-6.4h-2.6v6.5c0,1.3.4,2.3,1.1,2.9.7.7,1.8,1,3.1,1s2.5-.3,3.2-1c.7-.7,1.1-1.6,1.1-2.9v-6.5h-2.5ZM53.2,9h2.5v-1.8h-2.5v1.8ZM87,9h2.5v-1.8h-2.5v1.8ZM93.5,15.4c-.2-.3-.3-.9-.3-1.6,0-.7.2-1.2.4-1.6.3-.4.7-.6,1.3-.6s.3,0,.5,0c.2,0,.3,0,.5.1v3.6c-.2.1-.4.2-.6.3-.2,0-.4.1-.6.1-.5,0-.9-.2-1.1-.5M95.8,7.2v3.1c-.3-.2-.6-.3-.9-.4-.3,0-.6-.1-1-.1s-.9,0-1.3.3c-.4.2-.7.4-1,.8-.3.4-.5.8-.7,1.2-.2.5-.3,1-.3,1.7,0,1.2.3,2.1.8,2.8.5.7,1.2,1.1,2.1,1.1s.5,0,.7,0c.2,0,.4-.1.6-.2.2,0,.3-.2.5-.3.2-.1.4-.3.5-.4v.8h2.4V7.2h-2.4,0ZM110.6,15.4c-.2-.3-.4-.9-.4-1.6s.2-1.2.4-1.6c.3-.4.7-.6,1.3-.6s.3,0,.5,0c.2,0,.3,0,.5.1v3.6c-.2.1-.4.2-.6.3-.2,0-.4.1-.6.1-.5,0-.9-.2-1.1-.5M112.9,7.2v3.1c-.3-.2-.6-.3-.9-.4-.3,0-.6-.1-1-.1s-.9,0-1.3.3c-.4.2-.7.4-1,.8-.3.4-.5.8-.7,1.2-.2.5-.3,1-.3,1.7,0,1.2.2,2.1.8,2.8.5.7,1.2,1.1,2.1,1.1s.5,0,.7,0c.2,0,.4-.1.6-.2.1,0,.3-.2.5-.3.2-.1.4-.3.5-.4v.8h2.4V7.2h-2.4Z"/>
      </g>
    </mask>
  </defs>
  <path class="cls-1" d="M133.9,25V8.3h5.2l4,8,4-8h5.2v16.7h-3.9v-11.4l-5.4,10.2-5.4-10.3v11.5h-3.8ZM154.2,25l6.5-16.7h4.7l6.4,16.7h-4.4l-1.4-4h-6.1l-1.4,4h-4.3ZM161,17.8h3.9l-1.9-5.5-2,5.5ZM180.9,25.3c-1.2,0-2.4-.2-3.5-.6-1.1-.4-2-1.1-2.8-1.8-.8-.8-1.4-1.7-1.9-2.7-.4-1.1-.7-2.2-.7-3.4s.2-2.3.7-3.4c.4-1.1,1.1-2,1.8-2.7.8-.8,1.7-1.4,2.8-1.8,1.1-.4,2.2-.7,3.4-.7s2.7.3,4,.9c1.3.6,2.3,1.4,3.1,2.4l-2.9,2.5c-.5-.7-1.1-1.2-1.8-1.6-.7-.4-1.5-.5-2.3-.5s-1.2.1-1.8.4c-.5.2-1,.6-1.4,1.1-.4.4-.7,1-.9,1.6-.2.6-.3,1.2-.3,2s.1,1.4.3,2c.2.6.6,1.1,1,1.6.4.4.9.8,1.5,1.1.6.3,1.2.4,1.8.4s1.2-.1,1.7-.4c.5-.2,1-.6,1.3-1,.4-.4.6-.9.8-1.5h-4.2v-3.5h8.6v1.2c0,1.3-.2,2.4-.6,3.5-.4,1.1-1,2-1.7,2.7-.7.8-1.6,1.4-2.7,1.8-1,.4-2.1.6-3.3.6ZM192.1,25V8.3h3.9l7.4,10.1v-10.1c0,0,3.8,0,3.8,0v16.7h-3.6l-7.7-10.5v10.5c0,0-3.8,0-3.8,0ZM218.8,25.3c-1.2,0-2.3-.2-3.4-.6-1.1-.4-2-1.1-2.8-1.8-.8-.8-1.4-1.7-1.8-2.7-.4-1.1-.6-2.2-.6-3.4s.2-2.3.6-3.4c.4-1.1,1.1-2,1.8-2.7.8-.8,1.7-1.4,2.8-1.8,1.1-.4,2.2-.7,3.4-.7s2.3.2,3.4.7c1.1.4,2,1,2.7,1.8.8.8,1.4,1.7,1.8,2.7.4,1,.7,2.2.7,3.4s-.2,2.3-.7,3.4c-.4,1-1,2-1.8,2.7-.8.8-1.7,1.4-2.7,1.8-1.1.4-2.2.6-3.4.6ZM218.8,21.6c.6,0,1.2-.1,1.7-.4.5-.3,1-.6,1.4-1.1.4-.5.7-1,.9-1.6.2-.6.3-1.3.3-2s-.1-1.4-.3-2c-.2-.6-.5-1.1-.9-1.6-.4-.5-.9-.8-1.4-1.1-.5-.3-1.1-.4-1.7-.4s-1.2.1-1.7.4c-.5.2-1,.6-1.4,1.1-.4.4-.7,1-.9,1.6-.2.6-.3,1.2-.3,2s.1,1.4.3,2c.2.6.5,1.1.9,1.6.4.4.9.8,1.4,1.1.5.2,1.1.4,1.7.4Z"/>
  <path class="cls-1" d="M133.9,25V8.3h5.2l4,8,4-8h5.2v16.7h-3.9v-11.4l-5.4,10.2-5.4-10.3v11.5h-3.8ZM154.2,25l6.5-16.7h4.7l6.4,16.7h-4.4l-1.4-4h-6.1l-1.4,4h-4.3ZM161,17.8h3.9l-1.9-5.5-2,5.5ZM180.9,25.3c-1.2,0-2.4-.2-3.5-.6-1.1-.4-2-1.1-2.8-1.8-.8-.8-1.4-1.7-1.9-2.7-.4-1.1-.7-2.2-.7-3.4s.2-2.3.7-3.4c.4-1.1,1.1-2,1.8-2.7.8-.8,1.7-1.4,2.8-1.8,1.1-.4,2.2-.7,3.4-.7s2.7.3,4,.9c1.3.6,2.3,1.4,3.1,2.4l-2.9,2.5c-.5-.7-1.1-1.2-1.8-1.6-.7-.4-1.5-.5-2.3-.5s-1.2.1-1.8.4c-.5.2-1,.6-1.4,1.1-.4.4-.7,1-.9,1.6-.2.6-.3,1.2-.3,2s.1,1.4.3,2c.2.6.6,1.1,1,1.6.4.4.9.8,1.5,1.1.6.3,1.2.4,1.8.4s1.2-.1,1.7-.4c.5-.2,1-.6,1.3-1,.4-.4.6-.9.8-1.5h-4.2v-3.5h8.6v1.2c0,1.3-.2,2.4-.6,3.5-.4,1.1-1,2-1.7,2.7-.7.8-1.6,1.4-2.7,1.8-1,.4-2.1.6-3.3.6ZM192.1,25V8.3h3.9l7.4,10.1v-10.1c0,0,3.8,0,3.8,0v16.7h-3.6l-7.7-10.5v10.5c0,0-3.8,0-3.8,0ZM218.8,25.3c-1.2,0-2.3-.2-3.4-.6-1.1-.4-2-1.1-2.8-1.8-.8-.8-1.4-1.7-1.8-2.7-.4-1.1-.6-2.2-.6-3.4s.2-2.3.6-3.4c.4-1.1,1.1-2,1.8-2.7.8-.8,1.7-1.4,2.8-1.8,1.1-.4,2.2-.7,3.4-.7s2.3.2,3.4.7c1.1.4,2,1,2.7,1.8.8.8,1.4,1.7,1.8,2.7.4,1,.7,2.2.7,3.4s-.2,2.3-.7,3.4c-.4,1-1,2-1.8,2.7-.8.8-1.7,1.4-2.7,1.8-1.1.4-2.2.6-3.4.6ZM218.8,21.6c.6,0,1.2-.1,1.7-.4.5-.3,1-.6,1.4-1.1.4-.5.7-1,.9-1.6.2-.6.3-1.3.3-2s-.1-1.4-.3-2c-.2-.6-.5-1.1-.9-1.6-.4-.5-.9-.8-1.4-1.1-.5-.3-1.1-.4-1.7-.4s-1.2.1-1.7.4c-.5.2-1,.6-1.4,1.1-.4.4-.7,1-.9,1.6-.2.6-.3,1.2-.3,2s.1,1.4.3,2c.2.6.5,1.1.9,1.6.4.4.9.8,1.4,1.1.5.2,1.1.4,1.7.4Z"/>
  <path class="cls-1" d="M17.8,14.2c-.9,0-1.7-.1-2.4-.5l-2.6,10.6c-.1.5-.3,1.1-.3,1.6,0,2.7,2.2,2.5,4.9,2.5h1c2.6,0,4.9.1,4.9-2.5s-.2-1.1-.3-1.6l-2.6-10.6c-.6.2-1.3.4-1.9.4-.2,0-.4,0-.6,0"/>
  <path class="cls-1" d="M17.8,14.2c-.9,0-1.7-.1-2.4-.5l-2.6,10.6c-.1.5-.3,1.1-.3,1.6,0,2.7,2.2,2.5,4.9,2.5h1c2.6,0,4.9.1,4.9-2.5s-.2-1.1-.3-1.6l-2.6-10.6c-.6.2-1.3.4-1.9.4-.2,0-.4,0-.6,0"/>
  <path class="cls-1" d="M53.2,17.5h2.4v-7.4h-2.4v7.4ZM62.2,10.1l-1.5,4.9-1.6-4.9h-2.5l2.7,7.4h2.6l2.7-7.4h-2.5ZM87,17.5h2.4v-7.4h-2.4v7.4ZM77.8,10.2c-.2,0-.4.2-.6.3-.2,0-.3.2-.5.4-.2.1-.3.3-.5.4v-1.1h-2.4v7.4h2.4v-5c.3,0,.5-.2.8-.3.3,0,.5-.1.8-.1s.4,0,.6,0c.2,0,.3,0,.4,0h.2v-2.2c0,0-.2,0-.3,0h-.3c-.2,0-.4,0-.7.1M47.8,10.2c-.4.2-.7.4-1.1.7v-.8h-2.4v7.4h2.4v-5.2c.2-.2.4-.3.6-.3.2,0,.4-.1.6-.1s.5,0,.6.1c.2,0,.3.2.4.4,0,.1.1.4.1.7,0,.3,0,.6,0,.9v3.7h2.4v-4.8c0-.9-.2-1.6-.6-2.1-.4-.5-1-.7-1.8-.7s-.9,0-1.2.3M81.4,10.1c-.4.1-.8.3-1.1.5-.3.2-.5.5-.7.8-.2.3-.2.6-.2.9,0,.6.2,1,.5,1.4.3.4.8.6,1.3.8.2,0,.5.1.7.2.3,0,.5.1.7.1.3,0,.6.2.7.3.1,0,.2.2.2.4s-.1.4-.4.5c-.3.1-.6.2-.9.2s-.6,0-.9-.1c-.3,0-.5-.2-.8-.3-.3-.1-.5-.2-.6-.3-.1-.1-.3-.2-.4-.3h-.2v2c.3.2.7.3,1.2.4.5.1,1,.2,1.6.2s1.1,0,1.6-.2c.4-.1.8-.3,1.2-.5.3-.2.6-.5.7-.8.2-.3.3-.6.3-1,0-.6-.1-1-.4-1.3-.3-.3-.7-.6-1.2-.8-.2,0-.5-.1-.8-.2-.3,0-.5,0-.7-.1-.4,0-.6-.2-.8-.3-.1,0-.2-.2-.2-.4s.1-.3.4-.5c.2-.1.5-.2.9-.2s.5,0,.8,0c.3,0,.5.1.7.2.2,0,.3.2.5.3.2.1.3.2.4.2h.2v-1.9c-.3-.1-.7-.3-1.1-.4-.5-.1-.9-.2-1.5-.2s-1.1,0-1.5.2M102.2,15.9c-.2-.1-.3-.4-.3-.7s0-.4.2-.6c.1-.1.3-.2.5-.3.2,0,.5-.1.7-.2.2,0,.6,0,1,0v1.5c-.2.2-.4.3-.6.4-.2,0-.4.1-.6.1-.4,0-.7,0-.8-.2M101.2,10c-.5,0-.9.2-1.1.2v1.8h.2c.4-.2.7-.3,1.1-.4.4,0,.7-.2,1-.2.6,0,1.1,0,1.4.2.3.2.5.4.5.8h0c-.7,0-1.3.1-1.9.2-.6,0-1.1.2-1.5.4-.4.2-.8.5-1,.8-.2.3-.3.8-.3,1.3s.2,1.2.7,1.7c.4.4,1,.7,1.7.7s.7,0,.9,0c.2,0,.4-.1.6-.2.2-.1.4-.2.5-.3.1-.1.3-.2.4-.4v.8h2.4v-5c0-.9-.3-1.5-.9-1.9-.6-.4-1.6-.6-2.9-.6s-1.1,0-1.6.1M67.8,11.8c.3-.3.6-.4,1.1-.4s.8.1,1,.4c.2.3.3.6.4,1.1h-2.9c0-.5.2-.8.4-1.1M66,10.9c-.7.7-1.1,1.7-1.1,2.9s.4,2.2,1.2,2.9c.8.7,1.9,1,3.3,1s.7,0,1,0c.3,0,.5,0,.8-.2.3,0,.5-.1.7-.2.2,0,.3-.1.5-.2v-1.9h-.2c-.1,0-.2.2-.4.3-.2,0-.3.2-.5.3-.2,0-.5.2-.7.2-.3,0-.5,0-.8,0s-.6,0-.9,0c-.3,0-.5-.2-.7-.3-.2-.1-.4-.3-.5-.5-.1-.2-.2-.5-.2-.9h5.2v-.8c0-1.1-.3-2-.9-2.6-.6-.6-1.5-.9-2.6-.9s-2.3.4-3,1.1M39.9,7.2v6.4c0,.7-.1,1.3-.4,1.6-.3.3-.7.5-1.3.5s-1-.2-1.3-.5c-.3-.3-.4-.9-.4-1.6v-6.4h-2.6v6.5c0,1.3.4,2.2,1.1,2.9.7.7,1.8,1,3.1,1s2.5-.3,3.2-1c.7-.7,1.1-1.6,1.1-2.9v-6.5h-2.5,0ZM53.2,9h2.5v-1.8h-2.5v1.8ZM87,9h2.5v-1.8h-2.5v1.8ZM93.5,15.4c-.2-.3-.3-.9-.3-1.6,0-.7.2-1.2.4-1.6.3-.4.7-.6,1.3-.6s.3,0,.5,0c.2,0,.3,0,.5.1v3.6c-.2.1-.4.2-.6.3-.2,0-.4.1-.6.1-.5,0-.9-.2-1.1-.5M95.8,7.2v3.1c-.3-.2-.6-.3-.9-.4-.3,0-.6-.1-1-.1s-.9,0-1.3.3c-.4.2-.7.4-1,.8-.3.4-.5.8-.7,1.2-.2.5-.3,1-.3,1.7,0,1.2.3,2.1.8,2.8.5.7,1.2,1.1,2.1,1.1s.5,0,.7,0c.2,0,.4-.1.6-.2.2,0,.3-.2.5-.3.2-.1.4-.3.5-.4v.8h2.4V7.2h-2.4,0ZM110.6,15.4c-.2-.3-.4-.9-.4-1.6s.2-1.2.4-1.6c.3-.4.7-.6,1.3-.6s.3,0,.5,0c.2,0,.3,0,.5.1v3.6c-.2.1-.4.2-.6.3-.2,0-.4.1-.6.1-.5,0-.9-.2-1.1-.5M112.9,7.2v3.1c-.3-.2-.6-.3-.9-.4-.3,0-.6-.1-1-.1s-.9,0-1.3.3c-.4.2-.7.4-1,.8-.3.4-.5.8-.7,1.2-.2.5-.3,1-.3,1.7,0,1.2.2,2.1.8,2.8.5.7,1.2,1.1,2.1,1.1s.5,0,.7,0c.2,0,.4-.1.6-.2.1,0,.3-.2.5-.3.2-.1.4-.3.5-.4v.8h2.4V7.2h-2.4,0Z"/>
  <path class="cls-1" d="M53.2,17.5h2.4v-7.4h-2.4v7.4ZM62.2,10.1l-1.5,4.9-1.6-4.9h-2.5l2.7,7.4h2.6l2.7-7.4h-2.5ZM87,17.5h2.4v-7.4h-2.4v7.4ZM77.8,10.2c-.2,0-.4.2-.6.3-.2,0-.3.2-.5.4-.2.1-.3.3-.5.4v-1.1h-2.4v7.4h2.4v-5c.3,0,.5-.2.8-.3.3,0,.5-.1.8-.1s.4,0,.6,0c.2,0,.3,0,.4,0h.2v-2.2c0,0-.2,0-.3,0h-.3c-.2,0-.4,0-.7.1M47.8,10.2c-.4.2-.7.4-1.1.7v-.8h-2.4v7.4h2.4v-5.2c.2-.2.4-.3.6-.3.2,0,.4-.1.6-.1s.5,0,.6.1c.2,0,.3.2.4.4,0,.1.1.4.1.7,0,.3,0,.6,0,.9v3.7h2.4v-4.8c0-.9-.2-1.6-.6-2.1-.4-.5-1-.7-1.8-.7s-.9,0-1.2.3M81.4,10.1c-.4.1-.8.3-1.1.5-.3.2-.5.5-.7.8-.2.3-.2.6-.2.9,0,.6.2,1,.5,1.4.3.4.8.6,1.3.8.2,0,.5.1.7.2.3,0,.5.1.7.1.3,0,.6.2.7.3.1,0,.2.2.2.4s-.1.4-.4.5c-.3.1-.6.2-.9.2s-.6,0-.9-.1c-.3,0-.5-.2-.8-.3-.3-.1-.5-.2-.6-.3-.1-.1-.3-.2-.4-.3h-.2v2c.3.2.7.3,1.2.4.5.1,1,.2,1.6.2s1.1,0,1.6-.2c.4-.1.8-.3,1.2-.5.3-.2.6-.5.7-.8.2-.3.3-.6.3-1,0-.6-.1-1-.4-1.3-.3-.3-.7-.6-1.2-.8-.2,0-.5-.1-.8-.2-.3,0-.5,0-.7-.1-.4,0-.6-.2-.8-.3-.1,0-.2-.2-.2-.4s.1-.3.4-.5c.2-.1.5-.2.9-.2s.5,0,.8,0c.3,0,.5.1.7.2.2,0,.3.2.5.3.2.1.3.2.4.2h.2v-1.9c-.3-.1-.7-.3-1.1-.4-.5-.1-.9-.2-1.5-.2s-1.1,0-1.5.2M102.2,15.9c-.2-.1-.3-.4-.3-.7s0-.4.2-.6c.1-.1.3-.2.5-.3.2,0,.5-.1.7-.2.2,0,.6,0,1,0v1.5c-.2.2-.4.3-.6.4-.2,0-.4.1-.6.1-.4,0-.7,0-.8-.2M101.2,10c-.5,0-.9.2-1.1.2v1.8h.2c.4-.2.7-.3,1.1-.4.4,0,.7-.2,1-.2.6,0,1.1,0,1.4.2.3.2.5.4.5.8h0c-.7,0-1.3.1-1.9.2-.6,0-1.1.2-1.5.4-.4.2-.8.5-1,.8-.2.3-.3.8-.3,1.3s.2,1.2.7,1.7c.4.4,1,.7,1.7.7s.7,0,.9,0c.2,0,.4-.1.6-.2.2-.1.4-.2.5-.3.1-.1.3-.2.4-.4v.8h2.4v-5c0-.9-.3-1.5-.9-1.9-.6-.4-1.6-.6-2.9-.6s-1.1,0-1.6.1M67.8,11.8c.3-.3.6-.4,1.1-.4s.8.1,1,.4c.2.3.3.6.4,1.1h-2.9c0-.5.2-.8.4-1.1M66,10.9c-.7.7-1.1,1.7-1.1,2.9s.4,2.2,1.2,2.9c.8.7,1.9,1,3.3,1s.7,0,1,0c.3,0,.5,0,.8-.2.3,0,.5-.1.7-.2.2,0,.3-.1.5-.2v-1.9h-.2c-.1,0-.2.2-.4.3-.2,0-.3.2-.5.3-.2,0-.5.2-.7.2-.3,0-.5,0-.8,0s-.6,0-.9,0c-.3,0-.5-.2-.7-.3-.2-.1-.4-.3-.5-.5-.1-.2-.2-.5-.2-.9h5.2v-.8c0-1.1-.3-2-.9-2.6-.6-.6-1.5-.9-2.6-.9s-2.3.4-3,1.1M39.9,7.2v6.4c0,.7-.1,1.3-.4,1.6-.3.3-.7.5-1.3.5s-1-.2-1.3-.5c-.3-.3-.4-.9-.4-1.6v-6.4h-2.6v6.5c0,1.3.4,2.2,1.1,2.9.7.7,1.8,1,3.1,1s2.5-.3,3.2-1c.7-.7,1.1-1.6,1.1-2.9v-6.5h-2.5,0ZM53.2,9h2.5v-1.8h-2.5v1.8ZM87,9h2.5v-1.8h-2.5v1.8ZM93.5,15.4c-.2-.3-.3-.9-.3-1.6,0-.7.2-1.2.4-1.6.3-.4.7-.6,1.3-.6s.3,0,.5,0c.2,0,.3,0,.5.1v3.6c-.2.1-.4.2-.6.3-.2,0-.4.1-.6.1-.5,0-.9-.2-1.1-.5M95.8,7.2v3.1c-.3-.2-.6-.3-.9-.4-.3,0-.6-.1-1-.1s-.9,0-1.3.3c-.4.2-.7.4-1,.8-.3.4-.5.8-.7,1.2-.2.5-.3,1-.3,1.7,0,1.2.3,2.1.8,2.8.5.7,1.2,1.1,2.1,1.1s.5,0,.7,0c.2,0,.4-.1.6-.2.2,0,.3-.2.5-.3.2-.1.4-.3.5-.4v.8h2.4V7.2h-2.4,0ZM110.6,15.4c-.2-.3-.4-.9-.4-1.6s.2-1.2.4-1.6c.3-.4.7-.6,1.3-.6s.3,0,.5,0c.2,0,.3,0,.5.1v3.6c-.2.1-.4.2-.6.3-.2,0-.4.1-.6.1-.5,0-.9-.2-1.1-.5M112.9,7.2v3.1c-.3-.2-.6-.3-.9-.4-.3,0-.6-.1-1-.1s-.9,0-1.3.3c-.4.2-.7.4-1,.8-.3.4-.5.8-.7,1.2-.2.5-.3,1-.3,1.7,0,1.2.2,2.1.8,2.8.5.7,1.2,1.1,2.1,1.1s.5,0,.7,0c.2,0,.4-.1.6-.2.1,0,.3-.2.5-.3.2-.1.4-.3.5-.4v.8h2.4V7.2h-2.4,0Z"/>
  <path class="cls-1" d="M17.9,11.7c2.7,0,4.8-2.2,4.8-4.9s-2.2-4.9-4.8-4.9-4.8,2.2-4.8,4.9,2.2,4.9,4.8,4.9"/>
  <path class="cls-1" d="M17.9,11.7c2.7,0,4.8-2.2,4.8-4.9s-2.2-4.9-4.8-4.9-4.8,2.2-4.8,4.9,2.2,4.9,4.8,4.9"/>
  <path class="cls-1" d="M35.4,29.9l-10.7-20.4h0c-.5,1.3-1.4,2.5-2.4,3.3l3.9,13.6c.1.4.2.7.2,1.2,0,1.7-1.3,3.1-3,3.1h-11c-1.7,0-3-1.5-3-3.1s0-.8.2-1.2l4-13.6c-1.1-.9-1.9-1.9-2.4-3.3L.3,29.9c-.2.5-.3,1-.3,1.6,0,2.7,2.1,4.8,4.7,4.8h26.4c2.5,0,4.5-2.2,4.5-4.8s0-1.1-.2-1.6Z"/>
  <path class="cls-1" d="M35.4,29.9l-10.7-20.4h0c-.5,1.3-1.4,2.5-2.4,3.3l3.9,13.6c.1.4.2.7.2,1.2,0,1.7-1.3,3.1-3,3.1h-11c-1.7,0-3-1.5-3-3.1s0-.8.2-1.2l4-13.6c-1.1-.9-1.9-1.9-2.4-3.3L.3,29.9c-.2.5-.3,1-.3,1.6,0,2.7,2.1,4.8,4.7,4.8h26.4c2.5,0,4.5-2.2,4.5-4.8s0-1.1-.2-1.6Z"/>
  <g class="cls-6">
    <g class="cls-5">
      <path class="cls-1" d="M115.3,7.2H34v10.5h81.3V7.2Z"/>
    </g>
  </g>
  <g class="cls-3">
    <g class="cls-4">
      <path class="cls-1" d="M115.3,7.2H34v10.5h81.3V7.2Z"/>
    </g>
  </g>
  <path class="cls-1" d="M103.7,28.5v5.4c-.2.1-.4.3-.7.3-.2,0-.4.1-.6.1-.3,0-.5,0-.7-.1-.2,0-.3-.2-.3-.4,0-.2-.1-.4-.2-.6,0-.2,0-.6,0-1v-3.8h-2.5v5c0,1,.2,1.7.7,2.2.4.5,1,.7,1.8.7s.9,0,1.3-.3c.4-.2.7-.4,1.2-.8v.8h2.4v-7.6h-2.5ZM92.5,34.1c-.2,0-.3-.2-.4-.4-.1-.2-.2-.4-.2-.6,0-.2,0-.5,0-.8,0-.6.1-1.1.4-1.5.3-.4.7-.5,1.3-.5s.3,0,.5,0c.2,0,.3,0,.4.1v3.4c-.2.1-.4.2-.6.3-.2,0-.4.1-.6.1s-.5,0-.7-.1M91.4,28.7c-.4.2-.7.4-1,.7-.3.3-.5.7-.7,1.2-.2.5-.2,1-.2,1.6,0,1.3.3,2.2.8,2.8.5.6,1.3.9,2.3.9s.7,0,1.1-.2c.4-.1.7-.3.9-.5h0c0,.5,0,.7,0,.9,0,.2-.2.4-.3.5-.1.2-.3.3-.6.3-.3,0-.6.1-1,.1s-.4,0-.6,0c-.2,0-.4,0-.6-.1-.2,0-.3,0-.5-.1-.2,0-.3,0-.4-.1h-.3v1.9c.3,0,.7.2,1.2.2.5,0,.9.1,1.4.1s1.2,0,1.7-.2c.5-.1.9-.3,1.3-.6.4-.3.6-.6.8-1.1.2-.5.3-1.1.3-1.7v-6.6h-2.3v.3c-.3-.2-.6-.3-.9-.4-.3,0-.7-.1-1.1-.1s-.8,0-1.2.3ZM83.2,34.5c-.2-.1-.3-.4-.3-.7s0-.4.2-.6c.1-.1.3-.2.5-.3.2,0,.5-.1.7-.2.2,0,.6,0,1,0v1.5c-.2.2-.4.3-.6.4-.2,0-.4.1-.6.1-.4,0-.7,0-.9-.2M82.3,28.6c-.5,0-.9.2-1.1.2v1.8h.2c.4-.2.7-.3,1.1-.4.4-.1.7-.2,1-.2.6,0,1.1,0,1.4.2.3.2.5.4.5.8h0c-.7,0-1.3.1-1.9.2-.6,0-1.1.2-1.5.4-.4.2-.8.5-1,.8-.2.3-.3.8-.3,1.3s.2,1.2.7,1.7c.4.4,1,.7,1.7.7s.6,0,.9,0c.2,0,.4-.1.6-.2.2-.1.4-.2.5-.3.1-.1.3-.2.4-.4v.8h2.4v-5c0-.9-.3-1.5-.9-1.9-.6-.4-1.6-.6-2.9-.6s-1.1,0-1.6.1M53.2,30.4c.3-.3.6-.4,1.1-.4s.8.1,1,.4c.2.3.3.6.4,1.1h-2.9c0-.5.2-.8.4-1.1M51.5,29.6c-.7.7-1.1,1.7-1.1,2.9s.4,2.2,1.2,2.9c.8.7,1.9,1,3.3,1s.7,0,1,0c.3,0,.5,0,.8-.2.3,0,.5-.1.7-.2.2,0,.3-.1.5-.2v-1.9h-.3c-.1,0-.2.2-.4.3-.2,0-.3.2-.5.3-.2,0-.5.2-.7.2-.3,0-.5,0-.8,0s-.6,0-.9,0c-.3,0-.5-.2-.7-.3-.2-.1-.4-.3-.5-.6-.1-.2-.2-.5-.2-.9h5.2v-.8c0-1.1-.3-2-.9-2.6-.6-.6-1.5-.9-2.7-.9s-2.3.4-3,1.1M110.7,30.4c.3-.3.6-.4,1.1-.4s.8.1,1,.4c.2.3.3.6.4,1.1h-2.9c0-.5.2-.8.4-1.1M108.9,29.6c-.7.7-1.1,1.7-1.1,2.9,0,1.2.4,2.2,1.2,2.9.8.7,1.9,1,3.3,1s.7,0,1,0c.3,0,.5,0,.8-.2.3,0,.5-.1.7-.2.2,0,.3-.1.5-.2v-1.9h-.3c-.1,0-.2.2-.4.3-.2,0-.4.2-.5.3-.2,0-.5.2-.7.2-.3,0-.5,0-.8,0s-.6,0-.9,0c-.3,0-.5-.2-.7-.3-.2-.1-.4-.3-.5-.5-.1-.2-.2-.5-.2-.9h5.2v-.8c0-1.1-.3-2-.9-2.6-.6-.6-1.5-.9-2.6-.9s-2.3.4-3,1.1ZM64.6,25.9v1.8h1.5v6.8h-1.5v1.8h5.5v-1.8h-1.5v-6.8h1.5v-1.8h-5.5ZM44,34c-.2-.3-.3-.9-.3-1.6s.1-1.2.4-1.6c.3-.4.7-.6,1.3-.6s.3,0,.5,0c.2,0,.3,0,.5.1v3.6c-.2.1-.4.2-.6.3-.2,0-.4.1-.6.1-.5,0-.9-.2-1.1-.5M46.3,25.8v3.2c-.3-.2-.6-.3-.9-.4-.3,0-.6-.1-1-.1s-.9,0-1.3.3c-.4.2-.7.4-1,.8-.3.3-.5.8-.7,1.2-.2.5-.3,1-.3,1.7,0,1.2.3,2.1.8,2.8.5.7,1.2,1,2.1,1s.5,0,.7,0c.2,0,.4-.1.6-.2.2,0,.3-.2.5-.3.2-.1.4-.3.5-.4v.8h2.4v-10.3h-2.4,0ZM74.9,34.7c-.2,0-.3,0-.5-.1v-3.7c.2-.1.4-.2.6-.3.2,0,.4,0,.6,0,.5,0,.8.2,1.1.5.2.3.3.8.3,1.6s-.1,1.3-.4,1.7c-.3.4-.7.6-1.3.6s-.3,0-.5,0M72,25.9v10.3h2.3v-.4c.4.2.7.3,1,.4.3,0,.6.1,1,.1.9,0,1.7-.4,2.3-1.1.6-.7.9-1.7.9-2.9s-.2-2.1-.7-2.8c-.5-.7-1.2-1-2.1-1s-.9,0-1.3.3c-.4.2-.7.4-1.1.7v-3.6h-2.4,0ZM112.5,25.1l-1.4,2.6h1.6l2-2.6h-2.3Z"/>
  <path class="cls-1" d="M103.7,28.5v5.4c-.2.1-.4.3-.7.3-.2,0-.4.1-.6.1-.3,0-.5,0-.7-.1-.2,0-.3-.2-.3-.4,0-.2-.1-.4-.2-.6,0-.2,0-.6,0-1v-3.8h-2.5v5c0,1,.2,1.7.7,2.2.4.5,1,.7,1.8.7s.9,0,1.3-.3c.4-.2.7-.4,1.2-.8v.8h2.4v-7.6h-2.5ZM92.5,34.1c-.2,0-.3-.2-.4-.4-.1-.2-.2-.4-.2-.6,0-.2,0-.5,0-.8,0-.6.1-1.1.4-1.5.3-.4.7-.5,1.3-.5s.3,0,.5,0c.2,0,.3,0,.4.1v3.4c-.2.1-.4.2-.6.3-.2,0-.4.1-.6.1s-.5,0-.7-.1M91.4,28.7c-.4.2-.7.4-1,.7-.3.3-.5.7-.7,1.2-.2.5-.2,1-.2,1.6,0,1.3.3,2.2.8,2.8.5.6,1.3.9,2.3.9s.7,0,1.1-.2c.4-.1.7-.3.9-.5h0c0,.5,0,.7,0,.9,0,.2-.2.4-.3.5-.1.2-.3.3-.6.3-.3,0-.6.1-1,.1s-.4,0-.6,0c-.2,0-.4,0-.6-.1-.2,0-.3,0-.5-.1-.2,0-.3,0-.4-.1h-.3v1.9c.3,0,.7.2,1.2.2.5,0,.9.1,1.4.1s1.2,0,1.7-.2c.5-.1.9-.3,1.3-.6.4-.3.6-.6.8-1.1.2-.5.3-1.1.3-1.7v-6.6h-2.3v.3c-.3-.2-.6-.3-.9-.4-.3,0-.7-.1-1.1-.1s-.8,0-1.2.3ZM83.2,34.5c-.2-.1-.3-.4-.3-.7s0-.4.2-.6c.1-.1.3-.2.5-.3.2,0,.5-.1.7-.2.2,0,.6,0,1,0v1.5c-.2.2-.4.3-.6.4-.2,0-.4.1-.6.1-.4,0-.7,0-.9-.2M82.3,28.6c-.5,0-.9.2-1.1.2v1.8h.2c.4-.2.7-.3,1.1-.4.4-.1.7-.2,1-.2.6,0,1.1,0,1.4.2.3.2.5.4.5.8h0c-.7,0-1.3.1-1.9.2-.6,0-1.1.2-1.5.4-.4.2-.8.5-1,.8-.2.3-.3.8-.3,1.3s.2,1.2.7,1.7c.4.4,1,.7,1.7.7s.6,0,.9,0c.2,0,.4-.1.6-.2.2-.1.4-.2.5-.3.1-.1.3-.2.4-.4v.8h2.4v-5c0-.9-.3-1.5-.9-1.9-.6-.4-1.6-.6-2.9-.6s-1.1,0-1.6.1M53.2,30.4c.3-.3.6-.4,1.1-.4s.8.1,1,.4c.2.3.3.6.4,1.1h-2.9c0-.5.2-.8.4-1.1M51.5,29.6c-.7.7-1.1,1.7-1.1,2.9s.4,2.2,1.2,2.9c.8.7,1.9,1,3.3,1s.7,0,1,0c.3,0,.5,0,.8-.2.3,0,.5-.1.7-.2.2,0,.3-.1.5-.2v-1.9h-.3c-.1,0-.2.2-.4.3-.2,0-.3.2-.5.3-.2,0-.5.2-.7.2-.3,0-.5,0-.8,0s-.6,0-.9,0c-.3,0-.5-.2-.7-.3-.2-.1-.4-.3-.5-.6-.1-.2-.2-.5-.2-.9h5.2v-.8c0-1.1-.3-2-.9-2.6-.6-.6-1.5-.9-2.7-.9s-2.3.4-3,1.1M110.7,30.4c.3-.3.6-.4,1.1-.4s.8.1,1,.4c.2.3.3.6.4,1.1h-2.9c0-.5.2-.8.4-1.1M108.9,29.6c-.7.7-1.1,1.7-1.1,2.9,0,1.2.4,2.2,1.2,2.9.8.7,1.9,1,3.3,1s.7,0,1,0c.3,0,.5,0,.8-.2.3,0,.5-.1.7-.2.2,0,.3-.1.5-.2v-1.9h-.3c-.1,0-.2.2-.4.3-.2,0-.4.2-.5.3-.2,0-.5.2-.7.2-.3,0-.5,0-.8,0s-.6,0-.9,0c-.3,0-.5-.2-.7-.3-.2-.1-.4-.3-.5-.5-.1-.2-.2-.5-.2-.9h5.2v-.8c0-1.1-.3-2-.9-2.6-.6-.6-1.5-.9-2.6-.9s-2.3.4-3,1.1ZM64.6,25.9v1.8h1.5v6.8h-1.5v1.8h5.5v-1.8h-1.5v-6.8h1.5v-1.8h-5.5ZM44,34c-.2-.3-.3-.9-.3-1.6s.1-1.2.4-1.6c.3-.4.7-.6,1.3-.6s.3,0,.5,0c.2,0,.3,0,.5.1v3.6c-.2.1-.4.2-.6.3-.2,0-.4.1-.6.1-.5,0-.9-.2-1.1-.5M46.3,25.8v3.2c-.3-.2-.6-.3-.9-.4-.3,0-.6-.1-1-.1s-.9,0-1.3.3c-.4.2-.7.4-1,.8-.3.3-.5.8-.7,1.2-.2.5-.3,1-.3,1.7,0,1.2.3,2.1.8,2.8.5.7,1.2,1,2.1,1s.5,0,.7,0c.2,0,.4-.1.6-.2.2,0,.3-.2.5-.3.2-.1.4-.3.5-.4v.8h2.4v-10.3h-2.4,0ZM74.9,34.7c-.2,0-.3,0-.5-.1v-3.7c.2-.1.4-.2.6-.3.2,0,.4,0,.6,0,.5,0,.8.2,1.1.5.2.3.3.8.3,1.6s-.1,1.3-.4,1.7c-.3.4-.7.6-1.3.6s-.3,0-.5,0M72,25.9v10.3h2.3v-.4c.4.2.7.3,1,.4.3,0,.6.1,1,.1.9,0,1.7-.4,2.3-1.1.6-.7.9-1.7.9-2.9s-.2-2.1-.7-2.8c-.5-.7-1.2-1-2.1-1s-.9,0-1.3.3c-.4.2-.7.4-1.1.7v-3.6h-2.4,0ZM112.5,25.1l-1.4,2.6h1.6l2-2.6h-2.3Z"/>
  <path class="cls-1" d="M4.5,41.4l-.3,1.4h-.1c0-.4-.1-.7-.3-.9-.2-.2-.4-.3-.7-.3s-.6.1-.9.4c-.3.3-.5.6-.8,1.2-.2.4-.3.9-.3,1.3s0,.7.3.9c.2.2.4.3.8.3s.5,0,.7-.2c.2-.1.4-.3.6-.6h.2c-.3.4-.5.7-.8.9-.3.2-.6.2-1,.2s-1-.2-1.3-.5c-.3-.3-.5-.7-.5-1.3s.1-.9.4-1.4c.3-.4.6-.8,1.1-1.1.5-.3,1-.4,1.4-.4s.4,0,.7.1c.1,0,.2,0,.3,0,.1,0,.2,0,.3-.2h.1,0Z"/>
  <path class="cls-1" d="M4.5,41.4l-.3,1.4h-.1c0-.4-.1-.7-.3-.9-.2-.2-.4-.3-.7-.3s-.6.1-.9.4c-.3.3-.5.6-.8,1.2-.2.4-.3.9-.3,1.3s0,.7.3.9c.2.2.4.3.8.3s.5,0,.7-.2c.2-.1.4-.3.6-.6h.2c-.3.4-.5.7-.8.9-.3.2-.6.2-1,.2s-1-.2-1.3-.5c-.3-.3-.5-.7-.5-1.3s.1-.9.4-1.4c.3-.4.6-.8,1.1-1.1.5-.3,1-.4,1.4-.4s.4,0,.7.1c.1,0,.2,0,.3,0,.1,0,.2,0,.3-.2h.1,0Z"/>
  <path class="cls-1" d="M6.3,42.9c.2,0,.3,0,.5.1s.3.2.3.3c0,.1.1.3.1.5,0,.4,0,.7-.3,1.1-.2.4-.5.6-.8.8-.3.2-.6.3-1,.3s-.5,0-.7-.3c-.2-.2-.2-.4-.2-.6s0-.6.2-.9c.1-.3.3-.5.5-.7.2-.2.4-.4.6-.5.2-.1.5-.2.7-.2h0ZM6.2,43c-.1,0-.2,0-.3.1-.1.1-.3.5-.5,1-.2.5-.3,1-.3,1.4s0,.2,0,.2c0,0,.1,0,.2,0s.2,0,.2,0c0,0,.2-.3.4-.5.1-.3.3-.6.3-.9,0-.3.1-.6.1-.9s0-.2,0-.3c0,0-.1,0-.2,0h0Z"/>
  <path class="cls-1" d="M6.3,42.9c.2,0,.3,0,.5.1s.3.2.3.3c0,.1.1.3.1.5,0,.4,0,.7-.3,1.1-.2.4-.5.6-.8.8-.3.2-.6.3-1,.3s-.5,0-.7-.3c-.2-.2-.2-.4-.2-.6s0-.6.2-.9c.1-.3.3-.5.5-.7.2-.2.4-.4.6-.5.2-.1.5-.2.7-.2h0ZM6.2,43c-.1,0-.2,0-.3.1-.1.1-.3.5-.5,1-.2.5-.3,1-.3,1.4s0,.2,0,.2c0,0,.1,0,.2,0s.2,0,.2,0c0,0,.2-.3.4-.5.1-.3.3-.6.3-.9,0-.3.1-.6.1-.9s0-.2,0-.3c0,0-.1,0-.2,0h0Z"/>
  <path class="cls-1" d="M9.2,42.9l-.4,1.4c.3-.4.5-.7.6-.9.2-.2.3-.4.5-.4.1,0,.2-.1.4-.1s.2,0,.3.1c0,0,0,.2,0,.3s0,.3,0,.5v.5c.1-.4.3-.7.5-.9.2-.2.4-.4.5-.4,0,0,.2,0,.3,0s.2,0,.3.1c0,0,.1.2.1.3s0,.3,0,.5l-.4,1.2c0,.2,0,.3,0,.3s0,0,0,0c0,0,0,0,0,0,0,0,0,0,0,0,0,0,.2-.2.2-.3,0,0,0,0,0-.1h.1c-.1.4-.3.6-.5.7-.2.1-.3.2-.5.2s-.2,0-.3-.1c0,0-.1-.2-.1-.3s0-.2,0-.4l.4-1.3c0-.2,0-.3,0-.3s0,0,0,0c0,0,0,0,0,0,0,0,0,0,0,0,0,0-.1,0-.2.2,0,0-.2.3-.4.5-.2.2-.3.4-.3.6,0,.1-.1.3-.2.5l-.2.7h-.8l.6-2.1c0-.1,0-.2,0-.2s0,0,0,0c0,0,0,0,0,0,0,0-.2.1-.4.3-.3.3-.5.7-.7,1.2l-.3.9h-.8l.6-2.1c0-.2,0-.4,0-.4s0,0,0,0c0,0,0,0,0,0,0,0-.1,0-.2,0h0c0-.1,1.1-.3,1.1-.3h.2,0Z"/>
  <path class="cls-1" d="M9.2,42.9l-.4,1.4c.3-.4.5-.7.6-.9.2-.2.3-.4.5-.4.1,0,.2-.1.4-.1s.2,0,.3.1c0,0,0,.2,0,.3s0,.3,0,.5v.5c.1-.4.3-.7.5-.9.2-.2.4-.4.5-.4,0,0,.2,0,.3,0s.2,0,.3.1c0,0,.1.2.1.3s0,.3,0,.5l-.4,1.2c0,.2,0,.3,0,.3s0,0,0,0c0,0,0,0,0,0,0,0,0,0,0,0,0,0,.2-.2.2-.3,0,0,0,0,0-.1h.1c-.1.4-.3.6-.5.7-.2.1-.3.2-.5.2s-.2,0-.3-.1c0,0-.1-.2-.1-.3s0-.2,0-.4l.4-1.3c0-.2,0-.3,0-.3s0,0,0,0c0,0,0,0,0,0,0,0,0,0,0,0,0,0-.1,0-.2.2,0,0-.2.3-.4.5-.2.2-.3.4-.3.6,0,.1-.1.3-.2.5l-.2.7h-.8l.6-2.1c0-.1,0-.2,0-.2s0,0,0,0c0,0,0,0,0,0,0,0-.2.1-.4.3-.3.3-.5.7-.7,1.2l-.3.9h-.8l.6-2.1c0-.2,0-.4,0-.4s0,0,0,0c0,0,0,0,0,0,0,0-.1,0-.2,0h0c0-.1,1.1-.3,1.1-.3h.2,0Z"/>
  <path class="cls-1" d="M13.1,43l1.1-.2h.2v.5c0-.2.3-.3.4-.4.1,0,.3-.1.4-.1.2,0,.4,0,.5.2.1.2.2.4.2.6,0,.6-.2,1.2-.6,1.7-.4.4-.8.6-1.2.6s-.1,0-.2,0c0,0-.1,0-.2-.1l-.2.6c0,.2,0,.4,0,.5s0,.1,0,.2.2,0,.3.1h0c0,.1-1.7.1-1.7.1h0c.1-.1.3-.2.3-.3,0,0,.2-.3.3-.5l.8-2.7c0-.2,0-.4,0-.4,0,0,0,0,0,0,0,0,0,0,0,0,0,0-.1,0-.2,0h0c0-.1,0-.1,0-.1ZM13.6,45.5c0,.1.1.2.2.2,0,0,.1,0,.2,0s.1,0,.2,0c0,0,.1-.1.2-.2,0-.1.2-.3.3-.4,0-.2.2-.4.2-.6,0-.2,0-.4,0-.7s0-.3,0-.4c0,0-.1-.1-.2-.1s-.2,0-.2,0c-.1,0-.2.2-.3.3l-.5,1.8h0Z"/>
  <path class="cls-1" d="M13.1,43l1.1-.2h.2v.5c0-.2.3-.3.4-.4.1,0,.3-.1.4-.1.2,0,.4,0,.5.2.1.2.2.4.2.6,0,.6-.2,1.2-.6,1.7-.4.4-.8.6-1.2.6s-.1,0-.2,0c0,0-.1,0-.2-.1l-.2.6c0,.2,0,.4,0,.5s0,.1,0,.2.2,0,.3.1h0c0,.1-1.7.1-1.7.1h0c.1-.1.3-.2.3-.3,0,0,.2-.3.3-.5l.8-2.7c0-.2,0-.4,0-.4,0,0,0,0,0,0,0,0,0,0,0,0,0,0-.1,0-.2,0h0c0-.1,0-.1,0-.1ZM13.6,45.5c0,.1.1.2.2.2,0,0,.1,0,.2,0s.1,0,.2,0c0,0,.1-.1.2-.2,0-.1.2-.3.3-.4,0-.2.2-.4.2-.6,0-.2,0-.4,0-.7s0-.3,0-.4c0,0-.1-.1-.2-.1s-.2,0-.2,0c-.1,0-.2.2-.3.3l-.5,1.8h0Z"/>
  <path class="cls-1" d="M17.6,42.9l-.5,1.8c.4-.9.7-1.4.9-1.6.1-.1.2-.2.4-.2s.2,0,.2,0c0,0,0,.2,0,.3,0,.2,0,.4-.2.5,0,0-.1.1-.2.1s-.2,0-.2-.1c0,0,0-.1,0-.1,0,0,0,0,0,0s0,0,0,0c0,0-.1,0-.2.2,0,.1-.2.3-.3.5-.1.2-.2.4-.3.6,0,.2-.1.5-.3.9h-.8l.5-2.2c0-.2,0-.3,0-.3s0-.1,0-.1,0,0,0,0c0,0-.1,0-.2,0h0c0,0,1-.3,1-.3h.2Z"/>
  <path class="cls-1" d="M17.6,42.9l-.5,1.8c.4-.9.7-1.4.9-1.6.1-.1.2-.2.4-.2s.2,0,.2,0c0,0,0,.2,0,.3,0,.2,0,.4-.2.5,0,0-.1.1-.2.1s-.2,0-.2-.1c0,0,0-.1,0-.1,0,0,0,0,0,0s0,0,0,0c0,0-.1,0-.2.2,0,.1-.2.3-.3.5-.1.2-.2.4-.3.6,0,.2-.1.5-.3.9h-.8l.5-2.2c0-.2,0-.3,0-.3s0-.1,0-.1,0,0,0,0c0,0-.1,0-.2,0h0c0,0,1-.3,1-.3h.2Z"/>
  <path class="cls-1" d="M20.8,42.9c.2,0,.3,0,.5.1s.3.2.3.3c0,.1.1.3.1.5,0,.4,0,.7-.3,1.1-.2.4-.5.6-.8.8-.3.2-.6.3-1,.3s-.5,0-.7-.3c-.2-.2-.2-.4-.2-.6s0-.6.2-.9c.1-.3.3-.5.5-.7.2-.2.4-.4.6-.5.2-.1.5-.2.7-.2h0ZM20.6,43c-.1,0-.2,0-.3.1-.2.1-.3.5-.5,1-.2.5-.3,1-.3,1.4s0,.2,0,.2c0,0,.1,0,.2,0s.2,0,.2,0c0,0,.2-.3.4-.5.1-.3.3-.6.3-.9,0-.3.1-.6.1-.9s0-.2,0-.3c0,0-.1,0-.2,0h0Z"/>
  <path class="cls-1" d="M20.8,42.9c.2,0,.3,0,.5.1s.3.2.3.3c0,.1.1.3.1.5,0,.4,0,.7-.3,1.1-.2.4-.5.6-.8.8-.3.2-.6.3-1,.3s-.5,0-.7-.3c-.2-.2-.2-.4-.2-.6s0-.6.2-.9c.1-.3.3-.5.5-.7.2-.2.4-.4.6-.5.2-.1.5-.2.7-.2h0ZM20.6,43c-.1,0-.2,0-.3.1-.2.1-.3.5-.5,1-.2.5-.3,1-.3,1.4s0,.2,0,.2c0,0,.1,0,.2,0s.2,0,.2,0c0,0,.2-.3.4-.5.1-.3.3-.6.3-.9,0-.3.1-.6.1-.9s0-.2,0-.3c0,0-.1,0-.2,0h0Z"/>
  <path class="cls-1" d="M23.7,42.9l-.4,1.4c.3-.4.5-.7.6-.9.2-.2.3-.4.5-.4.1,0,.2-.1.4-.1s.2,0,.3.1c0,0,0,.2,0,.3s0,.3,0,.5v.5c.1-.4.3-.7.5-.9.2-.2.4-.4.5-.4,0,0,.2,0,.3,0s.2,0,.3.1c0,0,.1.2.1.3s0,.3,0,.5l-.4,1.2c0,.2,0,.3,0,.3s0,0,0,0c0,0,0,0,0,0,0,0,0,0,0,0,0,0,.2-.2.2-.3,0,0,0,0,0-.1h.1c-.1.4-.3.6-.5.7-.2.1-.3.2-.5.2s-.2,0-.3-.1c0,0-.1-.2-.1-.3s0-.2,0-.4l.4-1.3c0-.2,0-.3,0-.3s0,0,0,0c0,0,0,0,0,0,0,0,0,0,0,0,0,0-.1,0-.2.2,0,0-.2.3-.4.5-.2.2-.3.4-.3.6,0,.1-.1.3-.2.5l-.2.7h-.8l.6-2.1c0-.1,0-.2,0-.2s0,0,0,0c0,0,0,0,0,0,0,0-.2.1-.4.3-.3.3-.5.7-.7,1.2l-.3.9h-.8l.6-2.1c0-.2,0-.4,0-.4s0,0,0,0c0,0,0,0,0,0,0,0-.1,0-.2,0h0c0-.1,1.1-.3,1.1-.3h.2,0Z"/>
  <path class="cls-1" d="M23.7,42.9l-.4,1.4c.3-.4.5-.7.6-.9.2-.2.3-.4.5-.4.1,0,.2-.1.4-.1s.2,0,.3.1c0,0,0,.2,0,.3s0,.3,0,.5v.5c.1-.4.3-.7.5-.9.2-.2.4-.4.5-.4,0,0,.2,0,.3,0s.2,0,.3.1c0,0,.1.2.1.3s0,.3,0,.5l-.4,1.2c0,.2,0,.3,0,.3s0,0,0,0c0,0,0,0,0,0,0,0,0,0,0,0,0,0,.2-.2.2-.3,0,0,0,0,0-.1h.1c-.1.4-.3.6-.5.7-.2.1-.3.2-.5.2s-.2,0-.3-.1c0,0-.1-.2-.1-.3s0-.2,0-.4l.4-1.3c0-.2,0-.3,0-.3s0,0,0,0c0,0,0,0,0,0,0,0,0,0,0,0,0,0-.1,0-.2.2,0,0-.2.3-.4.5-.2.2-.3.4-.3.6,0,.1-.1.3-.2.5l-.2.7h-.8l.6-2.1c0-.1,0-.2,0-.2s0,0,0,0c0,0,0,0,0,0,0,0-.2.1-.4.3-.3.3-.5.7-.7,1.2l-.3.9h-.8l.6-2.1c0-.2,0-.4,0-.4s0,0,0,0c0,0,0,0,0,0,0,0-.1,0-.2,0h0c0-.1,1.1-.3,1.1-.3h.2,0Z"/>
  <path class="cls-1" d="M28.1,44.7c0,.1,0,.3,0,.3,0,.2,0,.3.1.4,0,0,.2.1.4.1s.3,0,.5-.1c.2,0,.3-.2.5-.4h0c-.3.4-.5.6-.7.7-.2.1-.5.2-.8.2s-.6,0-.8-.3c-.1-.2-.2-.4-.2-.6,0-.4.1-.7.3-1.1.2-.4.5-.6.8-.9.4-.2.7-.3,1.1-.3s.3,0,.4.1c0,0,.1.2.1.3s0,.3-.1.5c-.1.2-.3.4-.5.5-.2.1-.4.2-.6.3-.2,0-.4,0-.6,0h0ZM28.2,44.5c.2,0,.3,0,.4-.1.1,0,.2-.1.3-.2.1-.1.2-.2.3-.4,0-.2.1-.3.1-.5s0-.1,0-.1c0,0,0,0-.1,0-.1,0-.2,0-.4.2-.2.3-.4.7-.6,1.2Z"/>
  <path class="cls-1" d="M28.1,44.7c0,.1,0,.3,0,.3,0,.2,0,.3.1.4,0,0,.2.1.4.1s.3,0,.5-.1c.2,0,.3-.2.5-.4h0c-.3.4-.5.6-.7.7-.2.1-.5.2-.8.2s-.6,0-.8-.3c-.1-.2-.2-.4-.2-.6,0-.4.1-.7.3-1.1.2-.4.5-.6.8-.9.4-.2.7-.3,1.1-.3s.3,0,.4.1c0,0,.1.2.1.3s0,.3-.1.5c-.1.2-.3.4-.5.5-.2.1-.4.2-.6.3-.2,0-.4,0-.6,0h0ZM28.2,44.5c.2,0,.3,0,.4-.1.1,0,.2-.1.3-.2.1-.1.2-.2.3-.4,0-.2.1-.3.1-.5s0-.1,0-.1c0,0,0,0-.1,0-.1,0-.2,0-.4.2-.2.3-.4.7-.6,1.2Z"/>
  <path class="cls-1" d="M32,42.1l-.3.9h.4v.4h-.5l-.5,1.9c0,.1,0,.2,0,.3s0,0,0,0,0,0,0,0c0,0,0,0,.1,0,0,0,.2-.2.3-.4h.1c-.1.3-.3.5-.5.6-.2.1-.4.2-.5.2s-.3,0-.3-.1c0,0-.1-.2-.1-.3s0-.3,0-.5l.5-1.8h-.4v-.2c.3-.1.6-.2.8-.4.2-.1.4-.4.7-.7h.2Z"/>
  <path class="cls-1" d="M32,42.1l-.3.9h.4v.4h-.5l-.5,1.9c0,.1,0,.2,0,.3s0,0,0,0,0,0,0,0c0,0,0,0,.1,0,0,0,.2-.2.3-.4h.1c-.1.3-.3.5-.5.6-.2.1-.4.2-.5.2s-.3,0-.3-.1c0,0-.1-.2-.1-.3s0-.3,0-.5l.5-1.8h-.4v-.2c.3-.1.6-.2.8-.4.2-.1.4-.4.7-.7h.2Z"/>
  <path class="cls-1" d="M33.6,42.9l-.7,2.3c0,.1,0,.2,0,.3s0,0,0,0c0,0,0,0,0,0,0,0,0,0,.1,0,0,0,.2-.2.4-.4h.1c-.3.6-.7.9-1,.9s-.3,0-.3-.1c0,0-.1-.2-.1-.3s0-.2,0-.3l.5-1.6c0-.1,0-.3,0-.3s0,0,0-.1c0,0,0,0-.2,0s0,0-.1,0h0c0-.1,1.1-.3,1.1-.3h.2,0ZM33.4,41.4c.1,0,.2,0,.3.1,0,0,.1.2.1.3s0,.2-.1.3c0,0-.2.1-.3.1s-.2,0-.3-.1c0,0-.1-.2-.1-.3s0-.2.1-.3c0,0,.2-.1.3-.1Z"/>
  <path class="cls-1" d="M33.6,42.9l-.7,2.3c0,.1,0,.2,0,.3s0,0,0,0c0,0,0,0,0,0,0,0,0,0,.1,0,0,0,.2-.2.4-.4h.1c-.3.6-.7.9-1,.9s-.3,0-.3-.1c0,0-.1-.2-.1-.3s0-.2,0-.3l.5-1.6c0-.1,0-.3,0-.3s0,0,0-.1c0,0,0,0-.2,0s0,0-.1,0h0c0-.1,1.1-.3,1.1-.3h.2,0ZM33.4,41.4c.1,0,.2,0,.3.1,0,0,.1.2.1.3s0,.2-.1.3c0,0-.2.1-.3.1s-.2,0-.3-.1c0,0-.1-.2-.1-.3s0-.2.1-.3c0,0,.2-.1.3-.1Z"/>
  <path class="cls-1" d="M37.4,41.4l-1.1,3.6c0,.2-.1.4-.1.4s0,0,0,0c0,0,0,0,0,0,0,0,0,0,.1,0,0,0,.2-.2.3-.3h.1c-.3.6-.6.9-1,.9s-.2,0-.3-.1c0,0-.1-.2-.1-.3s0-.2,0-.4v-.3c-.2.5-.4.8-.6,1-.2.1-.3.2-.4.2s-.3,0-.4-.2c-.1-.1-.2-.3-.2-.6s0-.6.2-1c.1-.3.3-.6.5-.8.2-.2.4-.4.5-.5.2,0,.3-.1.5-.1s.2,0,.2,0c0,0,.1,0,.2.2l.2-.8c0-.2,0-.3,0-.4s0,0,0-.1c0,0,0,0-.2,0s0,0-.1,0h0c0-.1,1.1-.3,1.1-.3h.2,0ZM36,43.4c0-.1,0-.2,0-.3s-.1,0-.2,0-.1,0-.2.1c-.2.1-.3.4-.5.8-.2.4-.3.8-.3,1.1s0,.2,0,.2c0,0,0,0,.1,0,0,0,.2,0,.2-.1.2-.2.4-.4.5-.9.2-.4.3-.7.3-1h0Z"/>
  <path class="cls-1" d="M37.4,41.4l-1.1,3.6c0,.2-.1.4-.1.4s0,0,0,0c0,0,0,0,0,0,0,0,0,0,.1,0,0,0,.2-.2.3-.3h.1c-.3.6-.6.9-1,.9s-.2,0-.3-.1c0,0-.1-.2-.1-.3s0-.2,0-.4v-.3c-.2.5-.4.8-.6,1-.2.1-.3.2-.4.2s-.3,0-.4-.2c-.1-.1-.2-.3-.2-.6s0-.6.2-1c.1-.3.3-.6.5-.8.2-.2.4-.4.5-.5.2,0,.3-.1.5-.1s.2,0,.2,0c0,0,.1,0,.2.2l.2-.8c0-.2,0-.3,0-.4s0,0,0-.1c0,0,0,0-.2,0s0,0-.1,0h0c0-.1,1.1-.3,1.1-.3h.2,0ZM36,43.4c0-.1,0-.2,0-.3s-.1,0-.2,0-.1,0-.2.1c-.2.1-.3.4-.5.8-.2.4-.3.8-.3,1.1s0,.2,0,.2c0,0,0,0,.1,0,0,0,.2,0,.2-.1.2-.2.4-.4.5-.9.2-.4.3-.7.3-1h0Z"/>
  <path class="cls-1" d="M39.3,42.9c.2,0,.3,0,.5.1.1,0,.3.2.3.3,0,.1.1.3.1.5,0,.4,0,.7-.3,1.1-.2.4-.5.6-.8.8-.3.2-.6.3-1,.3s-.5,0-.7-.3c-.2-.2-.2-.4-.2-.6s0-.6.2-.9c.1-.3.3-.5.5-.7.2-.2.4-.4.6-.5.2-.1.5-.2.7-.2h0ZM39.2,43c-.1,0-.2,0-.3.1-.1.1-.3.5-.5,1-.2.5-.3,1-.3,1.4s0,.2,0,.2c0,0,.1,0,.2,0s.2,0,.2,0c0,0,.2-.3.4-.5.1-.3.3-.6.3-.9,0-.3.1-.6.1-.9s0-.2,0-.3c0,0-.1,0-.2,0h0Z"/>
  <path class="cls-1" d="M39.3,42.9c.2,0,.3,0,.5.1.1,0,.3.2.3.3,0,.1.1.3.1.5,0,.4,0,.7-.3,1.1-.2.4-.5.6-.8.8-.3.2-.6.3-1,.3s-.5,0-.7-.3c-.2-.2-.2-.4-.2-.6s0-.6.2-.9c.1-.3.3-.5.5-.7.2-.2.4-.4.6-.5.2-.1.5-.2.7-.2h0ZM39.2,43c-.1,0-.2,0-.3.1-.1.1-.3.5-.5,1-.2.5-.3,1-.3,1.4s0,.2,0,.2c0,0,.1,0,.2,0s.2,0,.2,0c0,0,.2-.3.4-.5.1-.3.3-.6.3-.9,0-.3.1-.6.1-.9s0-.2,0-.3c0,0-.1,0-.2,0h0Z"/>
  <path class="cls-1" d="M42.9,42.9v1h-.3c0-.3,0-.5-.2-.6-.1-.2-.3-.2-.5-.2s-.2,0-.2,0c0,0,0,.1,0,.2s0,.1,0,.2c0,0,0,.1.2.2.3.4.5.6.6.8,0,.1.1.3.1.4s0,.3-.1.5c0,.2-.2.3-.4.4-.2,0-.4.1-.5.1s-.3,0-.5,0c-.1,0-.2,0-.3,0s0,0-.1,0c0,0,0,0-.1.1h-.1l.2-1.1h.1c0,.3.2.5.2.6,0,.1.2.2.3.3.1,0,.2,0,.3,0s.2,0,.3-.1c0,0,.1-.2.1-.3s0-.2,0-.3c0,0-.2-.2-.4-.4-.3-.3-.4-.5-.5-.6,0-.1,0-.2,0-.4,0-.2,0-.4.3-.6.2-.2.4-.2.7-.2s.3,0,.5,0c0,0,.2,0,.2,0s.2,0,.2-.1h.1,0Z"/>
  <path class="cls-1" d="M42.9,42.9v1h-.3c0-.3,0-.5-.2-.6-.1-.2-.3-.2-.5-.2s-.2,0-.2,0c0,0,0,.1,0,.2s0,.1,0,.2c0,0,0,.1.2.2.3.4.5.6.6.8,0,.1.1.3.1.4s0,.3-.1.5c0,.2-.2.3-.4.4-.2,0-.4.1-.5.1s-.3,0-.5,0c-.1,0-.2,0-.3,0s0,0-.1,0c0,0,0,0-.1.1h-.1l.2-1.1h.1c0,.3.2.5.2.6,0,.1.2.2.3.3.1,0,.2,0,.3,0s.2,0,.3-.1c0,0,.1-.2.1-.3s0-.2,0-.3c0,0-.2-.2-.4-.4-.3-.3-.4-.5-.5-.6,0-.1,0-.2,0-.4,0-.2,0-.4.3-.6.2-.2.4-.2.7-.2s.3,0,.5,0c0,0,.2,0,.2,0s.2,0,.2-.1h.1,0Z"/>
  <path class="cls-1" d="M47.2,45.1h0c-.2.3-.4.5-.6.6-.3.2-.5.2-.8.2s-.4,0-.5-.1c-.1,0-.3-.2-.3-.4s-.1-.3-.1-.5c0-.4,0-.7.3-1.1s.4-.6.8-.8c.3-.2.6-.3.9-.3s.4,0,.6.2c.1.1.2.2.2.4s0,.3-.1.4-.2.2-.3.2-.2,0-.2,0c0,0,0-.1,0-.2s0-.2.2-.3c0,0,.1-.1.1-.2s0,0,0,0c0,0-.1,0-.2,0-.2,0-.4,0-.5.2-.2.2-.4.4-.5.7-.1.3-.2.6-.2.9s0,.4.2.5c.1.1.3.2.4.2s.3,0,.4-.1c.2,0,.3-.2.5-.3h0Z"/>
  <path class="cls-1" d="M47.2,45.1h0c-.2.3-.4.5-.6.6-.3.2-.5.2-.8.2s-.4,0-.5-.1c-.1,0-.3-.2-.3-.4s-.1-.3-.1-.5c0-.4,0-.7.3-1.1s.4-.6.8-.8c.3-.2.6-.3.9-.3s.4,0,.6.2c.1.1.2.2.2.4s0,.3-.1.4-.2.2-.3.2-.2,0-.2,0c0,0,0-.1,0-.2s0-.2.2-.3c0,0,.1-.1.1-.2s0,0,0,0c0,0-.1,0-.2,0-.2,0-.4,0-.5.2-.2.2-.4.4-.5.7-.1.3-.2.6-.2.9s0,.4.2.5c.1.1.3.2.4.2s.3,0,.4-.1c.2,0,.3-.2.5-.3h0Z"/>
  <path class="cls-1" d="M49.8,42.9c.2,0,.3,0,.5.1.2,0,.3.2.3.3,0,.1.1.3.1.5,0,.4,0,.7-.3,1.1-.2.4-.5.6-.8.8-.3.2-.6.3-1,.3s-.5,0-.7-.3c-.2-.2-.2-.4-.2-.6s0-.6.2-.9c.1-.3.3-.5.5-.7.2-.2.4-.4.6-.5.2-.1.5-.2.7-.2h0ZM49.7,43c-.1,0-.2,0-.3.1-.2.1-.3.5-.5,1-.2.5-.3,1-.3,1.4s0,.2,0,.2c0,0,.1,0,.2,0s.2,0,.2,0c0,0,.2-.3.4-.5.1-.3.3-.6.3-.9,0-.3.1-.6.1-.9s0-.2,0-.3c0,0-.1,0-.2,0h0Z"/>
  <path class="cls-1" d="M49.8,42.9c.2,0,.3,0,.5.1.2,0,.3.2.3.3,0,.1.1.3.1.5,0,.4,0,.7-.3,1.1-.2.4-.5.6-.8.8-.3.2-.6.3-1,.3s-.5,0-.7-.3c-.2-.2-.2-.4-.2-.6s0-.6.2-.9c.1-.3.3-.5.5-.7.2-.2.4-.4.6-.5.2-.1.5-.2.7-.2h0ZM49.7,43c-.1,0-.2,0-.3.1-.2.1-.3.5-.5,1-.2.5-.3,1-.3,1.4s0,.2,0,.2c0,0,.1,0,.2,0s.2,0,.2,0c0,0,.2-.3.4-.5.1-.3.3-.6.3-.9,0-.3.1-.6.1-.9s0-.2,0-.3c0,0-.1,0-.2,0h0Z"/>
  <path class="cls-1" d="M52.8,42.9l-.4,1.4c.3-.4.5-.7.6-.8.2-.2.4-.4.5-.4.1,0,.3-.1.4-.1s.2,0,.3.1c0,0,.1.2.1.3s0,.3,0,.4l-.4,1.4c0,.1,0,.2,0,.2s0,0,0,0c0,0,0,0,0,0s0,0,0,0c0,0,.2-.2.2-.3,0,0,0,0,0-.1h.1c-.3.6-.7.9-1,.9s-.2,0-.3-.1c0,0-.1-.2-.1-.3s0-.2,0-.4l.4-1.4c0,0,0-.2,0-.2s0,0,0,0,0,0,0,0c0,0-.2,0-.3.2-.3.3-.6.7-.9,1.3l-.3,1h-.8l.6-2.1c0-.2,0-.4,0-.4s0,0,0,0c0,0,0,0,0,0,0,0-.1,0-.2,0h0c0-.1,1.1-.3,1.1-.3h.2,0Z"/>
  <path class="cls-1" d="M52.8,42.9l-.4,1.4c.3-.4.5-.7.6-.8.2-.2.4-.4.5-.4.1,0,.3-.1.4-.1s.2,0,.3.1c0,0,.1.2.1.3s0,.3,0,.4l-.4,1.4c0,.1,0,.2,0,.2s0,0,0,0c0,0,0,0,0,0s0,0,0,0c0,0,.2-.2.2-.3,0,0,0,0,0-.1h.1c-.3.6-.7.9-1,.9s-.2,0-.3-.1c0,0-.1-.2-.1-.3s0-.2,0-.4l.4-1.4c0,0,0-.2,0-.2s0,0,0,0,0,0,0,0c0,0-.2,0-.3.2-.3.3-.6.7-.9,1.3l-.3,1h-.8l.6-2.1c0-.2,0-.4,0-.4s0,0,0,0c0,0,0,0,0,0,0,0-.1,0-.2,0h0c0-.1,1.1-.3,1.1-.3h.2,0Z"/>
  <path class="cls-1" d="M57.4,44.7c0,.1,0,.3,0,.3,0,.2,0,.3.1.4,0,0,.2.1.4.1s.3,0,.5-.1c.2,0,.3-.2.5-.4h0c-.3.4-.5.6-.7.7-.2.1-.5.2-.8.2s-.6,0-.8-.3c-.1-.2-.2-.4-.2-.6,0-.4.1-.7.3-1.1.2-.4.5-.6.8-.9.4-.2.7-.3,1.1-.3s.3,0,.4.1c0,0,.1.2.1.3s0,.3-.1.5c-.1.2-.3.4-.5.5-.2.1-.4.2-.6.3-.2,0-.4,0-.6,0h0ZM57.4,44.5c.2,0,.3,0,.4-.1.1,0,.2-.1.3-.2.1-.1.2-.2.3-.4,0-.2.1-.3.1-.5s0-.1,0-.1c0,0,0,0-.1,0-.1,0-.2,0-.4.2-.2.3-.4.7-.6,1.2Z"/>
  <path class="cls-1" d="M57.4,44.7c0,.1,0,.3,0,.3,0,.2,0,.3.1.4,0,0,.2.1.4.1s.3,0,.5-.1c.2,0,.3-.2.5-.4h0c-.3.4-.5.6-.7.7-.2.1-.5.2-.8.2s-.6,0-.8-.3c-.1-.2-.2-.4-.2-.6,0-.4.1-.7.3-1.1.2-.4.5-.6.8-.9.4-.2.7-.3,1.1-.3s.3,0,.4.1c0,0,.1.2.1.3s0,.3-.1.5c-.1.2-.3.4-.5.5-.2.1-.4.2-.6.3-.2,0-.4,0-.6,0h0ZM57.4,44.5c.2,0,.3,0,.4-.1.1,0,.2-.1.3-.2.1-.1.2-.2.3-.4,0-.2.1-.3.1-.5s0-.1,0-.1c0,0,0,0-.1,0-.1,0-.2,0-.4.2-.2.3-.4.7-.6,1.2Z"/>
  <path class="cls-1" d="M61.4,41.4l-1.1,3.7c0,.2,0,.4,0,.4s0,0,0,0c0,0,0,0,0,0,0,0,0,0,.1,0,.1,0,.2-.2.3-.4h.1c-.2.4-.4.6-.6.8-.1,0-.3.1-.4.1s-.3,0-.3-.1c0,0-.1-.2-.1-.3s0-.2,0-.4l.9-3c0-.2,0-.3,0-.3s0,0,0-.1c0,0-.2,0-.3,0h0c0-.1,1.1-.3,1.1-.3h.2Z"/>
  <path class="cls-1" d="M61.4,41.4l-1.1,3.7c0,.2,0,.4,0,.4s0,0,0,0c0,0,0,0,0,0,0,0,0,0,.1,0,.1,0,.2-.2.3-.4h.1c-.2.4-.4.6-.6.8-.1,0-.3.1-.4.1s-.3,0-.3-.1c0,0-.1-.2-.1-.3s0-.2,0-.4l.9-3c0-.2,0-.3,0-.3s0,0,0-.1c0,0-.2,0-.3,0h0c0-.1,1.1-.3,1.1-.3h.2Z"/>
  <path class="cls-1" d="M66.5,41.4l-1.1,3.6c0,.2-.1.4-.1.4s0,0,0,0c0,0,0,0,0,0,0,0,0,0,.1,0,0,0,.2-.2.3-.3h.1c-.3.6-.6.9-1,.9s-.2,0-.3-.1c0,0-.1-.2-.1-.3s0-.2,0-.4v-.3c-.2.5-.4.8-.6,1-.2.1-.3.2-.4.2s-.3,0-.4-.2c-.1-.1-.2-.3-.2-.6s0-.6.2-1c.1-.3.3-.6.5-.8.2-.2.4-.4.5-.5.2,0,.3-.1.5-.1s.2,0,.2,0c0,0,.1,0,.2.2l.2-.8c0-.2,0-.3,0-.4s0,0,0-.1,0,0-.2,0,0,0-.1,0h0c0-.1,1.1-.3,1.1-.3h.2,0ZM65,43.4c0-.1,0-.2,0-.3,0,0-.1,0-.2,0s-.1,0-.2.1c-.2.1-.3.4-.5.8-.2.4-.3.8-.3,1.1s0,.2,0,.2c0,0,0,0,.1,0,0,0,.2,0,.2-.1.2-.2.4-.4.5-.9.2-.4.3-.7.3-1h0Z"/>
  <path class="cls-1" d="M66.5,41.4l-1.1,3.6c0,.2-.1.4-.1.4s0,0,0,0c0,0,0,0,0,0,0,0,0,0,.1,0,0,0,.2-.2.3-.3h.1c-.3.6-.6.9-1,.9s-.2,0-.3-.1c0,0-.1-.2-.1-.3s0-.2,0-.4v-.3c-.2.5-.4.8-.6,1-.2.1-.3.2-.4.2s-.3,0-.4-.2c-.1-.1-.2-.3-.2-.6s0-.6.2-1c.1-.3.3-.6.5-.8.2-.2.4-.4.5-.5.2,0,.3-.1.5-.1s.2,0,.2,0c0,0,.1,0,.2.2l.2-.8c0-.2,0-.3,0-.4s0,0,0-.1,0,0-.2,0,0,0-.1,0h0c0-.1,1.1-.3,1.1-.3h.2,0ZM65,43.4c0-.1,0-.2,0-.3,0,0-.1,0-.2,0s-.1,0-.2.1c-.2.1-.3.4-.5.8-.2.4-.3.8-.3,1.1s0,.2,0,.2c0,0,0,0,.1,0,0,0,.2,0,.2-.1.2-.2.4-.4.5-.9.2-.4.3-.7.3-1h0Z"/>
  <path class="cls-1" d="M67.2,44.7c0,.1,0,.3,0,.3,0,.2,0,.3.1.4,0,0,.2.1.4.1s.3,0,.5-.1c.2,0,.3-.2.5-.4h0c-.3.4-.5.6-.7.7-.2.1-.5.2-.8.2s-.6,0-.8-.3c-.1-.2-.2-.4-.2-.6,0-.4.1-.7.3-1.1.2-.4.5-.6.8-.9.4-.2.7-.3,1.1-.3s.3,0,.4.1c0,0,.1.2.1.3s0,.3-.1.5c-.1.2-.3.4-.5.5-.2.1-.4.2-.6.3-.2,0-.4,0-.6,0h0ZM67.2,44.5c.2,0,.3,0,.4-.1.1,0,.2-.1.3-.2.1-.1.2-.2.3-.4,0-.2.1-.3.1-.5s0-.1,0-.1c0,0,0,0-.1,0-.1,0-.2,0-.4.2-.2.3-.4.7-.6,1.2Z"/>
  <path class="cls-1" d="M67.2,44.7c0,.1,0,.3,0,.3,0,.2,0,.3.1.4,0,0,.2.1.4.1s.3,0,.5-.1c.2,0,.3-.2.5-.4h0c-.3.4-.5.6-.7.7-.2.1-.5.2-.8.2s-.6,0-.8-.3c-.1-.2-.2-.4-.2-.6,0-.4.1-.7.3-1.1.2-.4.5-.6.8-.9.4-.2.7-.3,1.1-.3s.3,0,.4.1c0,0,.1.2.1.3s0,.3-.1.5c-.1.2-.3.4-.5.5-.2.1-.4.2-.6.3-.2,0-.4,0-.6,0h0ZM67.2,44.5c.2,0,.3,0,.4-.1.1,0,.2-.1.3-.2.1-.1.2-.2.3-.4,0-.2.1-.3.1-.5s0-.1,0-.1c0,0,0,0-.1,0-.1,0-.2,0-.4.2-.2.3-.4.7-.6,1.2Z"/>
  <path class="cls-1" d="M71.6,42.9v1h-.3c0-.3,0-.5-.2-.6-.1-.2-.3-.2-.5-.2s-.2,0-.2,0c0,0,0,.1,0,.2s0,.1,0,.2c0,0,0,.1.2.2.3.4.5.6.6.8,0,.1.1.3.1.4s0,.3-.1.5c0,.2-.2.3-.4.4-.2,0-.4.1-.5.1s-.3,0-.5,0c-.1,0-.2,0-.3,0s0,0-.1,0,0,0-.1.1h-.1l.2-1.1h.1c0,.3.1.5.2.6,0,.1.2.2.3.3.1,0,.2,0,.3,0s.2,0,.3-.1.1-.2.1-.3,0-.2,0-.3c0,0-.2-.2-.4-.4-.3-.3-.4-.5-.5-.6,0-.1,0-.2,0-.4,0-.2,0-.4.3-.6.2-.2.4-.2.7-.2s.3,0,.5,0c0,0,.2,0,.2,0s.2,0,.2-.1h.1,0Z"/>
  <path class="cls-1" d="M71.6,42.9v1h-.3c0-.3,0-.5-.2-.6-.1-.2-.3-.2-.5-.2s-.2,0-.2,0c0,0,0,.1,0,.2s0,.1,0,.2c0,0,0,.1.2.2.3.4.5.6.6.8,0,.1.1.3.1.4s0,.3-.1.5c0,.2-.2.3-.4.4-.2,0-.4.1-.5.1s-.3,0-.5,0c-.1,0-.2,0-.3,0s0,0-.1,0,0,0-.1.1h-.1l.2-1.1h.1c0,.3.1.5.2.6,0,.1.2.2.3.3.1,0,.2,0,.3,0s.2,0,.3-.1.1-.2.1-.3,0-.2,0-.3c0,0-.2-.2-.4-.4-.3-.3-.4-.5-.5-.6,0-.1,0-.2,0-.4,0-.2,0-.4.3-.6.2-.2.4-.2.7-.2s.3,0,.5,0c0,0,.2,0,.2,0s.2,0,.2-.1h.1,0Z"/>
  <path class="cls-1" d="M74.9,42.9l-.6,2.2v.3c0,0,0,0,0,0,0,0,0,0,0,0,0,0,0,0,0,0,0,0,.1,0,.2-.1,0,0,.1-.1.2-.3h.1c-.2.3-.3.5-.5.7-.2.1-.4.2-.6.2s-.2,0-.3,0c0,0,0-.1,0-.2s0-.2.1-.5v-.3c-.2.4-.4.7-.6.9-.1.1-.3.2-.4.2s-.3,0-.4-.2c0-.2-.1-.4-.1-.6,0-.3,0-.7.3-1.1.2-.4.4-.7.7-1,.3-.2.5-.3.7-.3s.2,0,.3.1c0,0,.1.2.2.4v-.4c.1,0,.9,0,.9,0h0ZM73.9,43.5c0-.2,0-.3,0-.4,0,0,0,0-.2,0s-.1,0-.2,0c-.1.1-.3.4-.5.8-.2.4-.3.8-.3,1.1s0,.2,0,.2c0,0,0,0,.1,0,0,0,.2,0,.3-.2.1-.2.3-.4.4-.6.2-.4.3-.8.3-1.1Z"/>
  <path class="cls-1" d="M74.9,42.9l-.6,2.2v.3c0,0,0,0,0,0,0,0,0,0,0,0,0,0,0,0,0,0,0,0,.1,0,.2-.1,0,0,.1-.1.2-.3h.1c-.2.3-.3.5-.5.7-.2.1-.4.2-.6.2s-.2,0-.3,0c0,0,0-.1,0-.2s0-.2.1-.5v-.3c-.2.4-.4.7-.6.9-.1.1-.3.2-.4.2s-.3,0-.4-.2c0-.2-.1-.4-.1-.6,0-.3,0-.7.3-1.1.2-.4.4-.7.7-1,.3-.2.5-.3.7-.3s.2,0,.3.1c0,0,.1.2.2.4v-.4c.1,0,.9,0,.9,0h0ZM73.9,43.5c0-.2,0-.3,0-.4,0,0,0,0-.2,0s-.1,0-.2,0c-.1.1-.3.4-.5.8-.2.4-.3.8-.3,1.1s0,.2,0,.2c0,0,0,0,.1,0,0,0,.2,0,.3-.2.1-.2.3-.4.4-.6.2-.4.3-.8.3-1.1Z"/>
  <path class="cls-1" d="M76.6,42.9l-.5,1.8c.4-.9.7-1.4.9-1.6.1-.1.2-.2.4-.2s.2,0,.2,0c0,0,0,.2,0,.3,0,.2,0,.4-.2.5,0,0-.1.1-.2.1s-.2,0-.2-.1c0,0,0-.1,0-.1,0,0,0,0,0,0s0,0,0,0c0,0-.1,0-.2.2,0,.1-.2.3-.3.5s-.2.4-.3.6c0,.2-.2.5-.3.9h-.8l.5-2.2c0-.2,0-.3,0-.3s0-.1,0-.1c0,0,0,0,0,0,0,0-.1,0-.2,0h0c0,0,1-.3,1-.3h.2Z"/>
  <path class="cls-1" d="M76.6,42.9l-.5,1.8c.4-.9.7-1.4.9-1.6.1-.1.2-.2.4-.2s.2,0,.2,0c0,0,0,.2,0,.3,0,.2,0,.4-.2.5,0,0-.1.1-.2.1s-.2,0-.2-.1c0,0,0-.1,0-.1,0,0,0,0,0,0s0,0,0,0c0,0-.1,0-.2.2,0,.1-.2.3-.3.5s-.2.4-.3.6c0,.2-.2.5-.3.9h-.8l.5-2.2c0-.2,0-.3,0-.3s0-.1,0-.1c0,0,0,0,0,0,0,0-.1,0-.2,0h0c0,0,1-.3,1-.3h.2Z"/>
  <path class="cls-1" d="M79.2,42.9l-.5,1.8c.4-.9.7-1.4.9-1.6.1-.1.2-.2.4-.2s.2,0,.2,0c0,0,0,.2,0,.3,0,.2,0,.4-.2.5,0,0-.1.1-.2.1s-.2,0-.2-.1c0,0,0-.1,0-.1,0,0,0,0,0,0s0,0,0,0c0,0-.1,0-.2.2,0,.1-.2.3-.3.5s-.2.4-.3.6c0,.2-.1.5-.3.9h-.8l.5-2.2c0-.2,0-.3,0-.3s0-.1,0-.1c0,0,0,0,0,0,0,0-.1,0-.2,0h0c0,0,1-.3,1-.3h.2Z"/>
  <path class="cls-1" d="M79.2,42.9l-.5,1.8c.4-.9.7-1.4.9-1.6.1-.1.2-.2.4-.2s.2,0,.2,0c0,0,0,.2,0,.3,0,.2,0,.4-.2.5,0,0-.1.1-.2.1s-.2,0-.2-.1c0,0,0-.1,0-.1,0,0,0,0,0,0s0,0,0,0c0,0-.1,0-.2.2,0,.1-.2.3-.3.5s-.2.4-.3.6c0,.2-.1.5-.3.9h-.8l.5-2.2c0-.2,0-.3,0-.3s0-.1,0-.1c0,0,0,0,0,0,0,0-.1,0-.2,0h0c0,0,1-.3,1-.3h.2Z"/>
  <path class="cls-1" d="M82.4,42.9c.2,0,.3,0,.5.1.2,0,.3.2.3.3,0,.1.1.3.1.5,0,.4,0,.7-.3,1.1-.2.4-.5.6-.8.8-.3.2-.6.3-1,.3s-.5,0-.7-.3c-.2-.2-.2-.4-.2-.6s0-.6.2-.9c.1-.3.3-.5.5-.7.2-.2.4-.4.6-.5.2-.1.5-.2.7-.2h0ZM82.3,43c-.1,0-.2,0-.3.1-.2.1-.3.5-.5,1-.2.5-.3,1-.3,1.4s0,.2,0,.2c0,0,.1,0,.2,0s.2,0,.2,0c0,0,.2-.3.4-.5.1-.3.3-.6.3-.9,0-.3.1-.6.1-.9s0-.2,0-.3c0,0-.1,0-.2,0h0Z"/>
  <path class="cls-1" d="M82.4,42.9c.2,0,.3,0,.5.1.2,0,.3.2.3.3,0,.1.1.3.1.5,0,.4,0,.7-.3,1.1-.2.4-.5.6-.8.8-.3.2-.6.3-1,.3s-.5,0-.7-.3c-.2-.2-.2-.4-.2-.6s0-.6.2-.9c.1-.3.3-.5.5-.7.2-.2.4-.4.6-.5.2-.1.5-.2.7-.2h0ZM82.3,43c-.1,0-.2,0-.3.1-.2.1-.3.5-.5,1-.2.5-.3,1-.3,1.4s0,.2,0,.2c0,0,.1,0,.2,0s.2,0,.2,0c0,0,.2-.3.4-.5.1-.3.3-.6.3-.9,0-.3.1-.6.1-.9s0-.2,0-.3c0,0-.1,0-.2,0h0Z"/>
  <path class="cls-1" d="M85.7,41.4l-1.1,3.7c0,.2,0,.4,0,.4s0,0,0,0c0,0,0,0,0,0,0,0,0,0,.1,0,.1,0,.2-.2.3-.4h.1c-.2.4-.4.6-.6.8-.1,0-.3.1-.4.1s-.3,0-.3-.1c0,0-.1-.2-.1-.3s0-.2,0-.4l.9-3c0-.2,0-.3,0-.3s0,0,0-.1c0,0-.2,0-.3,0h0c0-.1,1.1-.3,1.1-.3h.2Z"/>
  <path class="cls-1" d="M85.7,41.4l-1.1,3.7c0,.2,0,.4,0,.4s0,0,0,0c0,0,0,0,0,0,0,0,0,0,.1,0,.1,0,.2-.2.3-.4h.1c-.2.4-.4.6-.6.8-.1,0-.3.1-.4.1s-.3,0-.3-.1c0,0-.1-.2-.1-.3s0-.2,0-.4l.9-3c0-.2,0-.3,0-.3s0,0,0-.1c0,0-.2,0-.3,0h0c0-.1,1.1-.3,1.1-.3h.2Z"/>
  <path class="cls-1" d="M87.5,41.4l-1.1,3.7c0,.2,0,.4,0,.4s0,0,0,0c0,0,0,0,0,0,0,0,0,0,.1,0,.1,0,.2-.2.3-.4h.1c-.2.4-.4.6-.6.8-.1,0-.3.1-.4.1s-.3,0-.3-.1c0,0-.1-.2-.1-.3s0-.2,0-.4l.9-3c0-.2,0-.3,0-.3s0,0,0-.1c0,0-.2,0-.3,0h0c0-.1,1.1-.3,1.1-.3h.2Z"/>
  <path class="cls-1" d="M87.5,41.4l-1.1,3.7c0,.2,0,.4,0,.4s0,0,0,0c0,0,0,0,0,0,0,0,0,0,.1,0,.1,0,.2-.2.3-.4h.1c-.2.4-.4.6-.6.8-.1,0-.3.1-.4.1s-.3,0-.3-.1c0,0-.1-.2-.1-.3s0-.2,0-.4l.9-3c0-.2,0-.3,0-.3s0,0,0-.1c0,0-.2,0-.3,0h0c0-.1,1.1-.3,1.1-.3h.2Z"/>
  <path class="cls-1" d="M89.5,42.9c.2,0,.3,0,.5.1s.3.2.3.3c0,.1.1.3.1.5,0,.4,0,.7-.3,1.1-.2.4-.5.6-.8.8-.3.2-.6.3-1,.3s-.5,0-.7-.3c-.2-.2-.2-.4-.2-.6s0-.6.2-.9c.1-.3.3-.5.5-.7.2-.2.4-.4.6-.5.2-.1.5-.2.7-.2h0ZM89.3,43c-.1,0-.2,0-.3.1-.2.1-.3.5-.5,1-.2.5-.3,1-.3,1.4s0,.2,0,.2c0,0,.1,0,.2,0s.2,0,.2,0c0,0,.2-.3.4-.5.1-.3.3-.6.3-.9,0-.3.1-.6.1-.9s0-.2,0-.3c0,0-.1,0-.2,0h0Z"/>
  <path class="cls-1" d="M89.5,42.9c.2,0,.3,0,.5.1s.3.2.3.3c0,.1.1.3.1.5,0,.4,0,.7-.3,1.1-.2.4-.5.6-.8.8-.3.2-.6.3-1,.3s-.5,0-.7-.3c-.2-.2-.2-.4-.2-.6s0-.6.2-.9c.1-.3.3-.5.5-.7.2-.2.4-.4.6-.5.2-.1.5-.2.7-.2h0ZM89.3,43c-.1,0-.2,0-.3.1-.2.1-.3.5-.5,1-.2.5-.3,1-.3,1.4s0,.2,0,.2c0,0,.1,0,.2,0s.2,0,.2,0c0,0,.2-.3.4-.5.1-.3.3-.6.3-.9,0-.3.1-.6.1-.9s0-.2,0-.3c0,0-.1,0-.2,0h0Z"/>
  <path class="cls-1" d="M93.8,42.9l-.5,1.8c.4-.9.7-1.4.9-1.6.1-.1.2-.2.4-.2s.2,0,.2,0c0,0,0,.2,0,.3,0,.2,0,.4-.2.5,0,0-.1.1-.2.1s-.2,0-.2-.1c0,0,0-.1,0-.1,0,0,0,0,0,0s0,0,0,0c0,0-.1,0-.2.2,0,.1-.2.3-.3.5-.1.2-.2.4-.3.6,0,.2-.2.5-.3.9h-.8l.5-2.2c0-.2,0-.3,0-.3s0-.1,0-.1c0,0,0,0,0,0,0,0-.1,0-.2,0h0c0,0,1-.3,1-.3h.2Z"/>
  <path class="cls-1" d="M93.8,42.9l-.5,1.8c.4-.9.7-1.4.9-1.6.1-.1.2-.2.4-.2s.2,0,.2,0c0,0,0,.2,0,.3,0,.2,0,.4-.2.5,0,0-.1.1-.2.1s-.2,0-.2-.1c0,0,0-.1,0-.1,0,0,0,0,0,0s0,0,0,0c0,0-.1,0-.2.2,0,.1-.2.3-.3.5-.1.2-.2.4-.3.6,0,.2-.2.5-.3.9h-.8l.5-2.2c0-.2,0-.3,0-.3s0-.1,0-.1c0,0,0,0,0,0,0,0-.1,0-.2,0h0c0,0,1-.3,1-.3h.2Z"/>
  <path class="cls-1" d="M95.9,44.7c0,.1,0,.3,0,.3,0,.2,0,.3.1.4,0,0,.2.1.4.1s.3,0,.5-.1c.2,0,.3-.2.5-.4h0c-.3.4-.5.6-.7.7-.2.1-.5.2-.8.2s-.6,0-.8-.3c-.1-.2-.2-.4-.2-.6,0-.4.1-.7.3-1.1.2-.4.5-.6.8-.9.4-.2.7-.3,1.1-.3s.3,0,.4.1c0,0,.1.2.1.3s0,.3-.1.5c-.1.2-.3.4-.5.5-.2.1-.4.2-.6.3-.2,0-.4,0-.6,0h0ZM95.9,44.5c.2,0,.3,0,.4-.1.1,0,.2-.1.3-.2.1-.1.2-.2.3-.4,0-.2.1-.3.1-.5s0-.1,0-.1c0,0,0,0-.1,0-.1,0-.2,0-.4.2-.2.3-.4.7-.6,1.2Z"/>
  <path class="cls-1" d="M95.9,44.7c0,.1,0,.3,0,.3,0,.2,0,.3.1.4,0,0,.2.1.4.1s.3,0,.5-.1c.2,0,.3-.2.5-.4h0c-.3.4-.5.6-.7.7-.2.1-.5.2-.8.2s-.6,0-.8-.3c-.1-.2-.2-.4-.2-.6,0-.4.1-.7.3-1.1.2-.4.5-.6.8-.9.4-.2.7-.3,1.1-.3s.3,0,.4.1c0,0,.1.2.1.3s0,.3-.1.5c-.1.2-.3.4-.5.5-.2.1-.4.2-.6.3-.2,0-.4,0-.6,0h0ZM95.9,44.5c.2,0,.3,0,.4-.1.1,0,.2-.1.3-.2.1-.1.2-.2.3-.4,0-.2.1-.3.1-.5s0-.1,0-.1c0,0,0,0-.1,0-.1,0-.2,0-.4.2-.2.3-.4.7-.6,1.2Z"/>
  <path class="cls-1" d="M100.4,43.1h.9v.4h-.6c0,.1.1.3.1.4,0,.2,0,.4-.2.5-.1.2-.3.3-.5.4-.2,0-.4.2-.7.2s-.1,0-.2,0c0,0-.2,0-.3,0-.1,0-.2.1-.3.2,0,0,0,0,0,0s0,0,0,.1c0,0,.1,0,.3.1.4,0,.7.2.9.2.2,0,.3.2.4.3,0,.1.1.3.1.5,0,.3-.1.5-.4.7-.2.2-.6.3-1.2.3s-.9,0-1.2-.3c-.2-.1-.3-.3-.3-.4s0-.3.2-.4c.1-.1.4-.2.8-.3-.1,0-.2-.1-.3-.2,0,0,0-.2,0-.3,0-.1,0-.3.2-.4.1-.1.3-.2.6-.3-.2,0-.4-.2-.5-.3,0-.1-.1-.3-.1-.5s0-.4.2-.5c.1-.2.3-.3.5-.4.2-.1.5-.2.8-.2s.3,0,.5,0c0,0,.2,0,.3.1ZM98.6,46c-.2,0-.3.2-.4.3,0,0-.1.2-.1.3s0,.3.2.4c.1.1.4.2.7.2s.5,0,.6-.1c.1,0,.2-.2.2-.3s0-.2-.2-.3c-.1,0-.3-.2-.6-.2-.1,0-.3,0-.4-.1h0ZM99.7,43c-.1,0-.2,0-.3.1-.1.1-.2.3-.3.5,0,.3-.1.5-.1.7s0,.2,0,.3c0,0,.1,0,.2,0s.2,0,.2,0c.1-.1.2-.3.3-.6,0-.3.1-.5.1-.7s0-.2,0-.2c0,0-.1,0-.2,0h0Z"/>
  <path class="cls-1" d="M100.4,43.1h.9v.4h-.6c0,.1.1.3.1.4,0,.2,0,.4-.2.5-.1.2-.3.3-.5.4-.2,0-.4.2-.7.2s-.1,0-.2,0c0,0-.2,0-.3,0-.1,0-.2.1-.3.2,0,0,0,0,0,0s0,0,0,.1c0,0,.1,0,.3.1.4,0,.7.2.9.2.2,0,.3.2.4.3,0,.1.1.3.1.5,0,.3-.1.5-.4.7-.2.2-.6.3-1.2.3s-.9,0-1.2-.3c-.2-.1-.3-.3-.3-.4s0-.3.2-.4c.1-.1.4-.2.8-.3-.1,0-.2-.1-.3-.2,0,0,0-.2,0-.3,0-.1,0-.3.2-.4.1-.1.3-.2.6-.3-.2,0-.4-.2-.5-.3,0-.1-.1-.3-.1-.5s0-.4.2-.5c.1-.2.3-.3.5-.4.2-.1.5-.2.8-.2s.3,0,.5,0c0,0,.2,0,.3.1ZM98.6,46c-.2,0-.3.2-.4.3,0,0-.1.2-.1.3s0,.3.2.4c.1.1.4.2.7.2s.5,0,.6-.1c.1,0,.2-.2.2-.3s0-.2-.2-.3c-.1,0-.3-.2-.6-.2-.1,0-.3,0-.4-.1h0ZM99.7,43c-.1,0-.2,0-.3.1-.1.1-.2.3-.3.5,0,.3-.1.5-.1.7s0,.2,0,.3c0,0,.1,0,.2,0s.2,0,.2,0c.1-.1.2-.3.3-.6,0-.3.1-.5.1-.7s0-.2,0-.2c0,0-.1,0-.2,0h0Z"/>
  <path class="cls-1" d="M102.8,42.9l-.7,2.3c0,.1,0,.2,0,.3s0,0,0,0c0,0,0,0,0,0,0,0,0,0,.1,0,0,0,.2-.2.4-.4h.1c-.3.6-.7.9-1,.9s-.3,0-.3-.1c0,0-.1-.2-.1-.3s0-.2,0-.3l.5-1.6c0-.1,0-.3,0-.3s0,0,0-.1c0,0,0,0-.2,0s0,0-.1,0h0c0-.1,1.1-.3,1.1-.3h.2,0ZM102.6,41.4c.1,0,.2,0,.3.1,0,0,.1.2.1.3s0,.2-.1.3c0,0-.2.1-.3.1s-.2,0-.3-.1c0,0-.1-.2-.1-.3s0-.2.1-.3c0,0,.2-.1.3-.1Z"/>
  <path class="cls-1" d="M102.8,42.9l-.7,2.3c0,.1,0,.2,0,.3s0,0,0,0c0,0,0,0,0,0,0,0,0,0,.1,0,0,0,.2-.2.4-.4h.1c-.3.6-.7.9-1,.9s-.3,0-.3-.1c0,0-.1-.2-.1-.3s0-.2,0-.3l.5-1.6c0-.1,0-.3,0-.3s0,0,0-.1c0,0,0,0-.2,0s0,0-.1,0h0c0-.1,1.1-.3,1.1-.3h.2,0ZM102.6,41.4c.1,0,.2,0,.3.1,0,0,.1.2.1.3s0,.2-.1.3c0,0-.2.1-.3.1s-.2,0-.3-.1c0,0-.1-.2-.1-.3s0-.2.1-.3c0,0,.2-.1.3-.1Z"/>
  <path class="cls-1" d="M105.2,42.9c.2,0,.3,0,.5.1s.3.2.3.3c0,.1.1.3.1.5,0,.4,0,.7-.3,1.1-.2.4-.5.6-.8.8-.3.2-.6.3-1,.3s-.5,0-.7-.3c-.2-.2-.2-.4-.2-.6s0-.6.2-.9c.1-.3.3-.5.5-.7.2-.2.4-.4.6-.5.2-.1.5-.2.7-.2h0ZM105.1,43c-.1,0-.2,0-.3.1-.2.1-.3.5-.5,1-.2.5-.3,1-.3,1.4s0,.2,0,.2c0,0,.1,0,.2,0s.2,0,.2,0c0,0,.2-.3.4-.5.1-.3.3-.6.3-.9,0-.3.1-.6.1-.9s0-.2,0-.3c0,0-.1,0-.2,0h0Z"/>
  <path class="cls-1" d="M105.2,42.9c.2,0,.3,0,.5.1s.3.2.3.3c0,.1.1.3.1.5,0,.4,0,.7-.3,1.1-.2.4-.5.6-.8.8-.3.2-.6.3-1,.3s-.5,0-.7-.3c-.2-.2-.2-.4-.2-.6s0-.6.2-.9c.1-.3.3-.5.5-.7.2-.2.4-.4.6-.5.2-.1.5-.2.7-.2h0ZM105.1,43c-.1,0-.2,0-.3.1-.2.1-.3.5-.5,1-.2.5-.3,1-.3,1.4s0,.2,0,.2c0,0,.1,0,.2,0s.2,0,.2,0c0,0,.2-.3.4-.5.1-.3.3-.6.3-.9,0-.3.1-.6.1-.9s0-.2,0-.3c0,0-.1,0-.2,0h0Z"/>
  <path class="cls-1" d="M108.1,42.9l-.4,1.4c.3-.4.5-.7.6-.8.2-.2.4-.4.5-.4.1,0,.3-.1.4-.1s.2,0,.3.1c0,0,.1.2.1.3s0,.3,0,.4l-.4,1.4c0,.1,0,.2,0,.2s0,0,0,0c0,0,0,0,0,0s0,0,0,0c0,0,.2-.2.2-.3,0,0,0,0,0-.1h.1c-.3.6-.7.9-1,.9s-.2,0-.3-.1c0,0-.1-.2-.1-.3s0-.2,0-.4l.4-1.4c0,0,0-.2,0-.2s0,0,0,0c0,0,0,0,0,0,0,0-.2,0-.3.2-.3.3-.6.7-.9,1.3l-.3,1h-.8l.6-2.1c0-.2,0-.4,0-.4s0,0,0,0c0,0,0,0,0,0,0,0-.1,0-.2,0h0c0-.1,1.1-.3,1.1-.3h.2,0Z"/>
  <path class="cls-1" d="M108.1,42.9l-.4,1.4c.3-.4.5-.7.6-.8.2-.2.4-.4.5-.4.1,0,.3-.1.4-.1s.2,0,.3.1c0,0,.1.2.1.3s0,.3,0,.4l-.4,1.4c0,.1,0,.2,0,.2s0,0,0,0c0,0,0,0,0,0s0,0,0,0c0,0,.2-.2.2-.3,0,0,0,0,0-.1h.1c-.3.6-.7.9-1,.9s-.2,0-.3-.1c0,0-.1-.2-.1-.3s0-.2,0-.4l.4-1.4c0,0,0-.2,0-.2s0,0,0,0c0,0,0,0,0,0,0,0-.2,0-.3.2-.3.3-.6.7-.9,1.3l-.3,1h-.8l.6-2.1c0-.2,0-.4,0-.4s0,0,0,0c0,0,0,0,0,0,0,0-.1,0-.2,0h0c0-.1,1.1-.3,1.1-.3h.2,0Z"/>
  <path class="cls-1" d="M113.2,42.9l-.6,2.2v.3c0,0,0,0,0,0,0,0,0,0,0,0,0,0,0,0,0,0,0,0,.1,0,.2-.1,0,0,.1-.1.2-.3h.1c-.2.3-.3.5-.5.7-.2.1-.4.2-.6.2s-.2,0-.3,0c0,0,0-.1,0-.2s0-.2.1-.5v-.3c-.2.4-.4.7-.6.9-.1.1-.3.2-.4.2s-.3,0-.4-.2c0-.2-.1-.4-.1-.6,0-.3,0-.7.3-1.1.2-.4.4-.7.7-1,.3-.2.5-.3.7-.3s.2,0,.3.1c0,0,.1.2.2.4v-.4c.1,0,.9,0,.9,0h0ZM112.2,43.5c0-.2,0-.3,0-.4,0,0,0,0-.2,0s-.1,0-.2,0c-.1.1-.3.4-.5.8-.2.4-.3.8-.3,1.1s0,.2,0,.2c0,0,0,0,.1,0,0,0,.2,0,.3-.2.1-.2.3-.4.4-.6.2-.4.3-.8.3-1.1Z"/>
  <path class="cls-1" d="M113.2,42.9l-.6,2.2v.3c0,0,0,0,0,0,0,0,0,0,0,0,0,0,0,0,0,0,0,0,.1,0,.2-.1,0,0,.1-.1.2-.3h.1c-.2.3-.3.5-.5.7-.2.1-.4.2-.6.2s-.2,0-.3,0c0,0,0-.1,0-.2s0-.2.1-.5v-.3c-.2.4-.4.7-.6.9-.1.1-.3.2-.4.2s-.3,0-.4-.2c0-.2-.1-.4-.1-.6,0-.3,0-.7.3-1.1.2-.4.4-.7.7-1,.3-.2.5-.3.7-.3s.2,0,.3.1c0,0,.1.2.2.4v-.4c.1,0,.9,0,.9,0h0ZM112.2,43.5c0-.2,0-.3,0-.4,0,0,0,0-.2,0s-.1,0-.2,0c-.1.1-.3.4-.5.8-.2.4-.3.8-.3,1.1s0,.2,0,.2c0,0,0,0,.1,0,0,0,.2,0,.3-.2.1-.2.3-.4.4-.6.2-.4.3-.8.3-1.1Z"/>
  <path class="cls-1" d="M115.5,41.4l-1.1,3.7c0,.2,0,.4,0,.4s0,0,0,0c0,0,0,0,0,0,0,0,0,0,.1,0,.1,0,.2-.2.3-.4h.1c-.2.4-.4.6-.6.8-.1,0-.3.1-.4.1s-.3,0-.3-.1c0,0-.1-.2-.1-.3s0-.2,0-.4l.9-3c0-.2,0-.3,0-.3s0,0,0-.1c0,0-.2,0-.3,0h0c0-.1,1.1-.3,1.1-.3h.2Z"/>
  <path class="cls-1" d="M115.5,41.4l-1.1,3.7c0,.2,0,.4,0,.4s0,0,0,0c0,0,0,0,0,0,0,0,0,0,.1,0,.1,0,.2-.2.3-.4h.1c-.2.4-.4.6-.6.8-.1,0-.3.1-.4.1s-.3,0-.3-.1c0,0-.1-.2-.1-.3s0-.2,0-.4l.9-3c0-.2,0-.3,0-.3s0,0,0-.1c0,0-.2,0-.3,0h0c0-.1,1.1-.3,1.1-.3h.2Z"/>
  <path class="cls-1" d="M125,2h-1.1v48h1.1V2Z"/>
  <path class="cls-1" d="M125,2h-1.1v48h1.1V2Z"/>
</svg>