<svg width="233" height="50" viewBox="0 0 233 50" fill="none" xmlns="http://www.w3.org/2000/svg">
<path d="M133.865 25V8.26627H139.028L143.068 16.2985L147.084 8.26627H152.248V25H148.375V13.645L143.02 23.8047L137.642 13.5493V25H133.865ZM154.156 25L160.682 8.26627H165.367L171.798 25H167.351L165.965 21.0078H159.845L158.435 25H154.156ZM160.969 17.8284H164.865L162.929 12.2824L160.969 17.8284ZM180.882 25.263C179.639 25.263 178.484 25.0478 177.416 24.6175C176.364 24.1713 175.432 23.5577 174.619 22.7768C173.822 21.98 173.201 21.0636 172.755 20.0277C172.308 18.9759 172.085 17.8443 172.085 16.6331C172.085 15.4219 172.308 14.2984 172.755 13.2625C173.201 12.2106 173.814 11.2943 174.595 10.5134C175.392 9.71653 176.317 9.10296 177.368 8.67266C178.436 8.22643 179.584 8.00331 180.811 8.00331C182.213 8.00331 183.536 8.29018 184.779 8.8639C186.038 9.42169 187.058 10.2185 187.839 11.2544L184.946 13.7645C184.42 13.0633 183.807 12.5374 183.106 12.1867C182.404 11.8361 181.639 11.6608 180.811 11.6608C180.173 11.6608 179.576 11.7883 179.018 12.0433C178.476 12.2824 178.006 12.633 177.607 13.0951C177.209 13.5414 176.898 14.0673 176.675 14.6729C176.452 15.2626 176.34 15.916 176.34 16.6331C176.34 17.3503 176.452 18.0196 176.675 18.6412C176.914 19.2468 177.241 19.7727 177.655 20.2189C178.07 20.6652 178.556 21.0158 179.113 21.2708C179.671 21.5258 180.285 21.6533 180.954 21.6533C181.592 21.6533 182.165 21.5337 182.675 21.2947C183.201 21.0556 183.648 20.7289 184.014 20.3146C184.381 19.8843 184.636 19.3982 184.779 18.8563H180.596V15.3901H189.202V16.5614C189.202 17.8204 188.994 18.9838 188.58 20.0516C188.182 21.1034 187.608 22.0198 186.859 22.8007C186.11 23.5816 185.225 24.1872 184.205 24.6175C183.201 25.0478 182.094 25.263 180.882 25.263ZM192.134 25V8.26627H196.007L203.441 18.4021L203.369 8.26627H207.242V25H203.608L195.935 14.5295L196.007 25H192.134ZM218.838 25.263C217.627 25.263 216.495 25.0478 215.444 24.6175C214.392 24.1713 213.467 23.5577 212.671 22.7768C211.89 21.98 211.276 21.0636 210.83 20.0277C210.4 18.9759 210.184 17.8443 210.184 16.6331C210.184 15.4219 210.4 14.2984 210.83 13.2625C211.276 12.2106 211.89 11.2943 212.671 10.5134C213.467 9.71653 214.392 9.10296 215.444 8.67266C216.495 8.22643 217.627 8.00331 218.838 8.00331C220.049 8.00331 221.181 8.22643 222.233 8.67266C223.285 9.10296 224.201 9.71653 224.982 10.5134C225.779 11.2943 226.392 12.2106 226.823 13.2625C227.269 14.2984 227.492 15.4219 227.492 16.6331C227.492 17.8443 227.269 18.9759 226.823 20.0277C226.392 21.0636 225.779 21.98 224.982 22.7768C224.201 23.5577 223.285 24.1713 222.233 24.6175C221.181 25.0478 220.049 25.263 218.838 25.263ZM218.838 21.6054C219.46 21.6054 220.041 21.4859 220.583 21.2469C221.125 20.9919 221.595 20.6413 221.994 20.195C222.392 19.7329 222.703 19.2069 222.926 18.6173C223.149 18.0117 223.261 17.3503 223.261 16.6331C223.261 15.916 223.149 15.2626 222.926 14.6729C222.703 14.0673 222.392 13.5414 221.994 13.0951C221.595 12.633 221.125 12.2824 220.583 12.0433C220.041 11.7883 219.46 11.6608 218.838 11.6608C218.217 11.6608 217.635 11.7883 217.093 12.0433C216.551 12.2824 216.081 12.633 215.683 13.0951C215.284 13.5414 214.973 14.0673 214.75 14.6729C214.527 15.2626 214.416 15.916 214.416 16.6331C214.416 17.3503 214.527 18.0117 214.75 18.6173C214.973 19.2069 215.284 19.7329 215.683 20.195C216.081 20.6413 216.551 20.9919 217.093 21.2469C217.635 21.4859 218.217 21.6054 218.838 21.6054Z" fill="white"/>
<path d="M17.8108 14.2065C16.9299 14.2065 16.139 14.0752 15.3727 13.7469L12.7929 24.3887C12.6701 24.8866 12.4711 25.4638 12.4711 26.0109C12.4711 28.6864 14.6691 28.5414 17.3335 28.5414H18.3016C20.9442 28.5414 23.2377 28.6837 23.2377 26.0109C23.2377 25.4638 23.0414 24.9057 22.9159 24.3887L20.3442 13.7798C19.7361 13.9959 19.0925 14.1327 18.4216 14.1764C18.2226 14.1956 18.0207 14.2038 17.8162 14.2038" fill="white"/>
<path d="M53.2387 17.4949H55.6222V10.0921H53.2387V17.4949ZM62.1536 10.0921L60.6101 14.978L59.0447 10.0921H56.5303L59.2574 17.4949H61.8618L64.608 10.0921H62.1536ZM87.0413 17.4949H89.4193V10.0921H87.0413V17.4949ZM77.7718 10.1797C77.5455 10.2508 77.3437 10.3384 77.1719 10.4396C77.0137 10.5271 76.8364 10.6447 76.6428 10.7952C76.4464 10.9375 76.3019 11.0606 76.1901 11.1563V10.0949H73.8039V17.4976H76.1901V12.5406C76.4492 12.4421 76.7192 12.3573 76.9919 12.2889C77.2673 12.2178 77.5264 12.1849 77.7773 12.1849C77.99 12.1849 78.1782 12.1904 78.3445 12.2068C78.5218 12.2205 78.6499 12.2451 78.7399 12.2807H78.9445V10.0949C78.8627 10.0867 78.7781 10.0785 78.6854 10.0757H78.4236C78.2163 10.0757 77.9982 10.1086 77.7691 10.1824M47.8308 10.1633C47.4599 10.3384 47.0809 10.59 46.6882 10.9128V10.0949H44.3074V17.4976H46.6882V12.2533C46.92 12.0974 47.1272 11.9907 47.3345 11.9141C47.5281 11.8484 47.7299 11.8129 47.9263 11.8129C48.1881 11.8129 48.3899 11.8484 48.5453 11.9196C48.698 11.9962 48.8235 12.1111 48.8999 12.2807C48.9653 12.4202 49.0171 12.6418 49.0417 12.9345C49.0635 13.23 49.0798 13.5309 49.0798 13.8263V17.4976H51.4715V12.6828C51.4715 11.7773 51.2643 11.0879 50.8497 10.6064C50.438 10.1332 49.8462 9.89517 49.0608 9.89517C48.6081 9.89517 48.2017 9.98271 47.8308 10.166M81.4371 10.0894C80.9898 10.2207 80.6162 10.3985 80.308 10.6201C79.9971 10.8527 79.7681 11.1125 79.6181 11.4025C79.4626 11.698 79.3835 12.0071 79.3835 12.3327C79.3835 12.9099 79.5335 13.3749 79.8335 13.7306C80.1362 14.0835 80.5862 14.3461 81.1807 14.5376C81.4016 14.5978 81.6416 14.658 81.9252 14.7045C82.1979 14.7592 82.4325 14.8084 82.6097 14.8495C82.9479 14.9261 83.1797 15.0109 83.2942 15.1039C83.4142 15.186 83.4715 15.3145 83.4715 15.4923C83.4715 15.7112 83.3488 15.8726 83.087 15.9711C82.8333 16.075 82.5361 16.1215 82.2007 16.1215C81.8652 16.1215 81.568 16.0833 81.2871 16.0121C81.0116 15.941 80.7607 15.8535 80.5344 15.7522C80.2808 15.6428 80.0762 15.5416 79.929 15.4376C79.7844 15.3364 79.6535 15.2461 79.5417 15.1613H79.3426V17.1119C79.6726 17.2678 80.0844 17.41 80.5889 17.5277C81.0907 17.6453 81.617 17.7055 82.187 17.7055C82.8006 17.7055 83.3324 17.6398 83.7796 17.5113C84.2187 17.3827 84.6005 17.2021 84.9305 16.9723C85.2387 16.7562 85.4814 16.4909 85.6477 16.1817C85.8113 15.8589 85.8986 15.5334 85.8986 15.186C85.8986 14.6333 85.7568 14.1984 85.4705 13.8646C85.1868 13.5336 84.7669 13.2792 84.2214 13.1123C83.976 13.033 83.7224 12.9701 83.4497 12.9208C83.1906 12.8743 82.9506 12.8305 82.7461 12.7813C82.3561 12.6856 82.0997 12.5953 81.9797 12.4941C81.8598 12.401 81.797 12.2697 81.797 12.1029C81.797 11.9141 81.9225 11.7609 82.1597 11.646C82.3943 11.5338 82.6888 11.4764 83.0351 11.4764C83.2888 11.4764 83.5451 11.5065 83.7906 11.5585C84.0415 11.6214 84.2651 11.6925 84.4614 11.78C84.636 11.8512 84.8078 11.9387 84.985 12.0481C85.1568 12.1494 85.285 12.2314 85.3668 12.2916H85.5605V10.415C85.2523 10.2782 84.8732 10.1496 84.4287 10.0484C83.976 9.94442 83.4797 9.89517 82.9451 9.89517C82.3834 9.89517 81.8734 9.95809 81.4343 10.0949M102.16 15.8972C101.964 15.7604 101.869 15.5252 101.869 15.1805C101.869 14.9425 101.923 14.7537 102.038 14.6087C102.16 14.4665 102.316 14.3625 102.526 14.2887C102.769 14.2066 103.009 14.1519 103.262 14.119C103.508 14.0972 103.838 14.0616 104.244 14.0206V15.5607C104.069 15.7276 103.873 15.8507 103.649 15.9492C103.437 16.0395 103.219 16.0833 103.009 16.0833C102.635 16.0833 102.351 16.0203 102.16 15.8945M101.239 10.0183C100.712 10.1086 100.336 10.1852 100.093 10.2481V12.0372H100.301C100.66 11.8867 101.026 11.7554 101.405 11.6597C101.781 11.5612 102.109 11.5092 102.389 11.5092C103.011 11.5092 103.48 11.5886 103.794 11.7445C104.097 11.9004 104.26 12.1795 104.26 12.5898V12.6308C103.565 12.6773 102.924 12.7375 102.327 12.8141C101.724 12.8907 101.211 13.0385 100.778 13.2382C100.347 13.4351 100.025 13.7032 99.7987 14.0452C99.5642 14.3817 99.4524 14.8276 99.4524 15.372C99.4524 16.0422 99.6787 16.5976 100.129 17.0298C100.57 17.4702 101.14 17.6918 101.809 17.6918C102.177 17.6918 102.46 17.6617 102.662 17.6125C102.864 17.5578 103.069 17.4839 103.284 17.3854C103.505 17.2787 103.674 17.1693 103.802 17.0654C103.933 16.9614 104.083 16.841 104.241 16.7125V17.4976H106.614V12.464C106.614 11.594 106.311 10.9429 105.714 10.5216C105.103 10.0976 104.151 9.88697 102.831 9.88697C102.291 9.88697 101.762 9.93347 101.233 10.021M67.7769 11.75C68.036 11.4737 68.3987 11.3396 68.8678 11.3396C69.3368 11.3396 69.6559 11.4709 69.8795 11.7253C70.1004 11.9852 70.2177 12.3545 70.2313 12.8415H67.3488C67.3761 12.3819 67.5206 12.0153 67.7797 11.75M66.0452 10.9457C65.3225 11.6679 64.9653 12.6281 64.9653 13.8345C64.9653 15.041 65.3471 16.0231 66.1161 16.6878C66.8879 17.3526 67.9897 17.6918 69.4378 17.6918C69.8332 17.6918 70.1713 17.6727 70.4413 17.6344C70.7195 17.6015 70.9813 17.5468 71.2431 17.4784C71.5267 17.4128 71.7449 17.3499 71.9058 17.2815C72.064 17.224 72.2494 17.1502 72.4376 17.0763V15.1723H72.1921C72.0885 15.2461 71.9522 15.3337 71.7885 15.4294C71.6194 15.5224 71.4422 15.6155 71.2431 15.6975C71.0222 15.796 70.7713 15.8726 70.5041 15.9355C70.2341 15.9957 69.9614 16.0231 69.6914 16.0231C69.3641 16.0231 69.0696 15.9957 68.8023 15.9355C68.5269 15.8726 68.2842 15.7796 68.0824 15.6401C67.8697 15.5006 67.7033 15.32 67.5751 15.0902C67.4497 14.8631 67.3788 14.5732 67.3515 14.2285H72.5821V13.3996C72.5821 12.2643 72.2821 11.3916 71.6904 10.7788C71.1013 10.1687 70.2204 9.86508 69.0532 9.86508C67.7579 9.86508 66.7543 10.2235 66.0425 10.9457M39.9413 7.24705V13.6403C39.9413 14.3735 39.7995 14.9124 39.524 15.2407C39.2486 15.5799 38.8204 15.744 38.2314 15.744C37.6423 15.744 37.206 15.5689 36.9387 15.2243C36.6715 14.8768 36.5433 14.3461 36.5433 13.6403V7.24705H33.9907V13.788C33.9907 15.0656 34.3589 16.0367 35.087 16.7042C35.8261 17.3635 36.8706 17.7 38.2314 17.7C39.5922 17.7 40.6994 17.3581 41.4139 16.6851C42.1284 16.0039 42.483 15.0382 42.483 13.7798V7.24431H39.9386L39.9413 7.24705ZM53.1705 9.04165H55.6931V7.24158H53.1705V9.04165ZM86.9731 9.04165H89.4875V7.24158H86.9731V9.04165ZM93.4882 15.4048C93.2564 15.0765 93.1446 14.5513 93.1418 13.8209C93.1418 13.1287 93.2918 12.5898 93.5782 12.2041C93.87 11.8156 94.2981 11.6214 94.8681 11.6214C95.0072 11.6214 95.1708 11.6433 95.3617 11.6843C95.5526 11.7144 95.7053 11.7636 95.8199 11.8183V15.4486C95.6453 15.5881 95.449 15.6948 95.2363 15.7741C95.0181 15.8535 94.8108 15.8918 94.6008 15.8918C94.0909 15.8918 93.7173 15.7331 93.4882 15.4075M95.8171 7.24158V10.3903C95.479 10.2207 95.1817 10.0921 94.9199 10.0101C94.6636 9.93074 94.3309 9.89244 93.9354 9.89244C93.4964 9.89244 93.0791 9.98819 92.6837 10.1715C92.2882 10.3575 91.9528 10.6147 91.6746 10.9347C91.3719 11.2849 91.1374 11.698 90.9601 12.1712C90.7829 12.6445 90.7011 13.2053 90.7011 13.8509C90.7011 15.0191 90.952 15.9519 91.4674 16.6523C91.9719 17.3526 92.6646 17.7028 93.5373 17.7028C93.7963 17.7028 94.0172 17.6781 94.2054 17.6371C94.3881 17.5906 94.5817 17.5249 94.7699 17.4374C94.9199 17.3663 95.0917 17.2623 95.2881 17.1228C95.4926 16.9805 95.6617 16.8492 95.8144 16.7234V17.4976H98.1952V7.24158H95.8144H95.8171ZM110.625 15.4048C110.391 15.0765 110.274 14.5513 110.274 13.8209C110.274 13.0904 110.426 12.5898 110.704 12.2041C110.994 11.8156 111.427 11.6214 111.997 11.6214C112.136 11.6214 112.3 11.6433 112.488 11.6843C112.682 11.7144 112.834 11.7636 112.949 11.8183V15.4486C112.774 15.5881 112.578 15.6948 112.363 15.7741C112.155 15.8535 111.94 15.8918 111.735 15.8918C111.22 15.8918 110.844 15.7331 110.625 15.4075M112.949 7.24158V10.3903C112.611 10.2207 112.313 10.0921 112.052 10.0101C111.801 9.93074 111.468 9.89244 111.07 9.89244C110.628 9.89244 110.208 9.98819 109.818 10.1715C109.423 10.3575 109.087 10.6147 108.815 10.9347C108.506 11.2849 108.272 11.698 108.092 12.1712C107.923 12.6445 107.838 13.2053 107.838 13.8509C107.838 15.0191 108.084 15.9519 108.596 16.6523C109.106 17.3526 109.796 17.7028 110.666 17.7028C110.928 17.7028 111.152 17.6781 111.334 17.6371C111.52 17.5906 111.708 17.5249 111.902 17.4374C112.043 17.3663 112.226 17.2623 112.417 17.1228C112.616 16.9805 112.793 16.8492 112.943 16.7234V17.4976H115.327V7.24158H112.943H112.949Z" fill="white"/>
<path d="M17.8708 11.7198C20.5406 11.7198 22.7141 9.5395 22.7141 6.86128C22.7141 4.18306 20.5406 2 17.8708 2C15.2009 2 13.0274 4.18306 13.0274 6.85854C13.0274 9.53403 15.2036 11.7171 17.8708 11.7171" fill="white"/>
<path d="M35.3979 29.8519L24.6995 9.44105L24.6777 9.42737C24.2195 10.7323 23.3005 11.9086 22.2533 12.7047L26.1776 26.3174C26.2839 26.6812 26.3794 27.067 26.3794 27.4937C26.3794 29.157 25.0458 30.5549 23.3332 30.6151H12.3429C10.6303 30.5549 9.29673 29.157 9.29673 27.4937C9.29673 27.067 9.39218 26.6785 9.49854 26.3174L13.4883 12.7074C12.4084 11.8047 11.5548 10.8308 11.0394 9.4137L0.28362 29.8519C0.119993 30.3388 0 30.8668 0 31.4139C0 34.0894 2.13806 36.2369 4.66064 36.2369H31.0809C33.5408 36.2369 35.6188 34.0867 35.6188 31.4139C35.6188 30.8668 35.5588 30.3388 35.3979 29.8519Z" fill="white"/>
<mask id="mask0_474_1749" style="mask-type:luminance" maskUnits="userSpaceOnUse" x="33" y="7" width="83" height="11">
<path d="M115.681 7.09656H33.8435V17.9325H115.681V7.09656Z" fill="white"/>
</mask>
<g mask="url(#mask0_474_1749)">
<mask id="mask1_474_1749" style="mask-type:luminance" maskUnits="userSpaceOnUse" x="33" y="7" width="83" height="11">
<path d="M53.2387 17.4949H55.6222V10.0921H53.2387V17.4949ZM62.1537 10.0921L60.6128 14.978L59.0475 10.0921H56.5331L59.2602 17.4949H61.8646L64.6108 10.0921H62.1564H62.1537ZM87.0413 17.4949H89.4193V10.0921H87.0413V17.4949ZM77.7718 10.1797C77.5482 10.2508 77.3464 10.3384 77.1719 10.4396C77.0137 10.5271 76.8364 10.6447 76.6455 10.7925C76.4492 10.9347 76.3047 11.0606 76.1928 11.1563V10.0949H73.8066V17.4976H76.1928V12.5378C76.4492 12.4421 76.7192 12.3545 76.9919 12.2889C77.2673 12.2178 77.5264 12.1849 77.78 12.1849C77.99 12.1849 78.1809 12.1904 78.3473 12.2068C78.5245 12.2232 78.6527 12.2451 78.7427 12.2807H78.95V10.0949C78.8681 10.0867 78.7809 10.0757 78.6909 10.0757H78.4291C78.2218 10.0757 78.0064 10.1086 77.7746 10.1824M81.4371 10.0894C80.9898 10.2235 80.6162 10.3985 80.3081 10.6201C79.9972 10.8527 79.7681 11.1125 79.6181 11.4025C79.4627 11.698 79.3836 12.0071 79.3836 12.3327C79.3836 12.9099 79.5336 13.3722 79.8363 13.7278C80.1417 14.0807 80.5889 14.3434 81.1862 14.5349C81.4044 14.595 81.6443 14.6552 81.9252 14.7017C82.1979 14.7565 82.4352 14.8057 82.6125 14.8467C82.9506 14.9233 83.1824 15.0081 83.297 15.1011C83.417 15.1832 83.4715 15.3118 83.4715 15.4896C83.4715 15.7085 83.3515 15.8699 83.0897 15.9684C82.8361 16.0696 82.5388 16.1188 82.2034 16.1188C81.868 16.1188 81.5707 16.0805 81.2898 16.0094C81.0144 15.9383 80.7635 15.8507 80.5371 15.7495C80.2835 15.6401 80.079 15.5389 79.9317 15.4349C79.7872 15.3337 79.6563 15.2434 79.5445 15.1559H79.3454V17.1091C79.6726 17.2651 80.0844 17.4073 80.5889 17.5249C81.0907 17.6426 81.6171 17.7028 82.187 17.7028C82.8006 17.7028 83.3324 17.6371 83.7797 17.5085C84.2187 17.38 84.6005 17.2021 84.9305 16.9696C85.2387 16.7535 85.4814 16.4909 85.6477 16.179C85.8141 15.8589 85.8959 15.5306 85.8959 15.1832C85.8959 14.6306 85.7541 14.1956 85.4732 13.8619C85.1869 13.5309 84.7669 13.2792 84.2215 13.1096C83.9787 13.0302 83.7224 12.9673 83.4524 12.9181C83.1933 12.8716 82.9561 12.8251 82.7488 12.7786C82.3588 12.6828 82.1025 12.5925 81.9852 12.4913C81.8625 12.3983 81.8025 12.2643 81.8025 12.1001C81.8025 11.9114 81.928 11.7582 82.1652 11.646C82.3997 11.5311 82.697 11.4737 83.0406 11.4737C83.2942 11.4737 83.5506 11.5037 83.796 11.5557C84.0469 11.6186 84.2706 11.6898 84.4669 11.7773C84.6414 11.8484 84.8132 11.936 84.9905 12.0454C85.165 12.1466 85.2932 12.2287 85.375 12.2889H85.5659V10.4122C85.2605 10.2727 84.876 10.1469 84.4342 10.0456C83.9815 9.94168 83.4851 9.89517 82.9506 9.89517C82.3888 9.89517 81.8789 9.95809 81.4398 10.0921M47.8308 10.1633C47.46 10.3411 47.0809 10.5928 46.6882 10.9101V10.0921H44.3047V17.4949H46.6882V12.2478C46.92 12.0946 47.1273 11.9852 47.3345 11.9086C47.5281 11.843 47.7299 11.8074 47.9263 11.8074C48.1881 11.8074 48.3899 11.8457 48.5453 11.9168C48.7008 11.9907 48.8235 12.1056 48.8999 12.2752C48.9653 12.4147 49.0171 12.6363 49.0417 12.929C49.0635 13.2245 49.0799 13.5254 49.0799 13.8209V17.4949H51.4743V12.6773C51.4743 11.7718 51.267 11.0825 50.8552 10.601C50.4434 10.1277 49.8489 9.8897 49.0662 9.8897C48.6135 9.8897 48.2072 9.97724 47.8336 10.1605M102.16 15.8945C101.964 15.7604 101.866 15.5252 101.866 15.1805C101.866 14.9425 101.923 14.7537 102.038 14.6087C102.16 14.4665 102.316 14.3625 102.526 14.2887C102.769 14.2066 103.009 14.1519 103.262 14.119C103.508 14.0972 103.838 14.0589 104.244 14.0206V15.5607C104.069 15.7276 103.873 15.8535 103.649 15.9465C103.437 16.0395 103.219 16.086 103.009 16.086C102.638 16.086 102.351 16.0231 102.16 15.8945ZM101.239 10.0183C100.712 10.1086 100.333 10.1852 100.093 10.2508V12.0399H100.301C100.661 11.8867 101.023 11.7582 101.405 11.6597C101.781 11.5585 102.109 11.5092 102.39 11.5092C103.009 11.5092 103.48 11.5886 103.794 11.7445C104.097 11.9004 104.26 12.1795 104.26 12.5898V12.6308C103.565 12.6773 102.924 12.7375 102.327 12.8141C101.721 12.8907 101.211 13.0385 100.775 13.2354C100.347 13.4324 100.022 13.7005 99.7987 14.0424C99.5642 14.3789 99.4497 14.8248 99.4497 15.3692C99.4497 16.0367 99.6787 16.5948 100.126 17.0271C100.568 17.4675 101.138 17.6891 101.809 17.6891C102.177 17.6891 102.458 17.659 102.659 17.6098C102.861 17.555 103.069 17.4812 103.281 17.38C103.502 17.2733 103.671 17.1666 103.799 17.0599C103.933 16.9559 104.08 16.8356 104.238 16.707V17.4921H106.608V12.4558C106.608 11.5858 106.306 10.9375 105.711 10.5134C105.1 10.0894 104.148 9.87876 102.829 9.87876C102.289 9.87876 101.757 9.92527 101.23 10.0128M67.777 11.75C68.036 11.4764 68.3987 11.3396 68.8678 11.3396C69.3369 11.3396 69.6559 11.4709 69.8796 11.7253C70.1005 11.9852 70.215 12.3518 70.2314 12.8415H67.3488C67.3761 12.3792 67.5206 12.0153 67.7797 11.75M66.0452 10.9457C65.3198 11.6679 64.9653 12.6281 64.9653 13.8345C64.9653 15.041 65.3471 16.0258 66.1161 16.6878C66.8879 17.3526 67.9924 17.6918 69.4378 17.6918C69.8332 17.6918 70.1714 17.6727 70.4413 17.6344C70.7195 17.6015 70.9813 17.5468 71.2431 17.4812C71.5267 17.4155 71.7449 17.3499 71.9058 17.2815C72.0667 17.224 72.2494 17.1502 72.4403 17.0763V15.175H72.1894C72.0858 15.2489 71.9522 15.3337 71.7858 15.4294C71.6167 15.5224 71.4395 15.6155 71.2404 15.6975C71.0195 15.796 70.7686 15.8726 70.5013 15.9355C70.2314 15.9957 69.9586 16.0258 69.6887 16.0258C69.3614 16.0258 69.0669 15.9957 68.7996 15.9355C68.5242 15.8726 68.2815 15.7796 68.0797 15.6401C67.867 15.5006 67.7006 15.32 67.5724 15.0875C67.4443 14.8604 67.3761 14.5704 67.3515 14.2285H72.5821V13.3996C72.5821 12.2615 72.2822 11.3916 71.6904 10.7761C71.1013 10.166 70.2232 9.86235 69.0532 9.86235C67.7579 9.86235 66.7543 10.2235 66.0425 10.9457M39.9413 7.24705V13.6403C39.9413 14.3735 39.7995 14.9124 39.5241 15.2407C39.2486 15.5799 38.8205 15.744 38.2341 15.744C37.6478 15.744 37.206 15.5689 36.9415 15.2243C36.6715 14.8768 36.546 14.3461 36.546 13.6403V7.24705H33.9935V13.7853C33.9935 15.0656 34.3589 16.0367 35.0898 16.7015C35.8288 17.3635 36.876 17.7 38.2369 17.7C39.5977 17.7 40.7049 17.3581 41.4194 16.6851C42.1339 16.0039 42.4884 15.0355 42.4884 13.7798V7.24431H39.944L39.9413 7.24705ZM53.1705 9.04165H55.6931V7.24158H53.1705V9.04165ZM86.9731 9.04165H89.4875V7.24158H86.9731V9.04165ZM93.4882 15.4048C93.2537 15.0793 93.1419 14.5513 93.1391 13.8209C93.1391 13.1287 93.2891 12.5898 93.5755 12.2041C93.8673 11.8156 94.2954 11.6214 94.8654 11.6214C95.0045 11.6214 95.1681 11.6433 95.359 11.6843C95.5499 11.7144 95.7026 11.7609 95.8172 11.8183V15.4486C95.6426 15.5881 95.4463 15.6948 95.2363 15.7741C95.0181 15.8535 94.8081 15.8918 94.6009 15.8918C94.0882 15.8918 93.7145 15.7331 93.4882 15.4075M95.8172 7.24158V10.3876C95.479 10.2207 95.1817 10.0921 94.9199 10.0073C94.6663 9.93074 94.3336 9.8897 93.9354 9.8897C93.4991 9.8897 93.0764 9.97998 92.6837 10.166C92.2883 10.3548 91.9501 10.6119 91.6747 10.932C91.372 11.2822 91.1374 11.6952 90.9602 12.1685C90.7856 12.6418 90.7011 13.2026 90.7011 13.8482C90.7011 15.0163 90.952 15.9492 91.4674 16.6495C91.9692 17.3499 92.6646 17.7 93.5373 17.7C93.7964 17.7 94.0173 17.6754 94.2027 17.6344C94.3854 17.5879 94.5818 17.5222 94.7699 17.4319C94.9199 17.3635 95.0945 17.2596 95.2881 17.1173C95.4899 16.9751 95.6617 16.8438 95.8144 16.7179V17.4949H98.1952V7.24158H95.8144H95.8172ZM110.628 15.4048C110.391 15.0793 110.274 14.5513 110.274 13.8209C110.274 13.0904 110.426 12.5898 110.704 12.2041C110.994 11.8156 111.427 11.6214 112 11.6214C112.136 11.6214 112.3 11.6433 112.491 11.6843C112.682 11.7144 112.834 11.7609 112.949 11.8183V15.4486C112.777 15.5881 112.578 15.6948 112.363 15.7741C112.155 15.8535 111.94 15.8918 111.735 15.8918C111.223 15.8918 110.846 15.7331 110.628 15.4075M112.949 7.24158V10.3876C112.611 10.2207 112.313 10.0921 112.052 10.0073C111.801 9.93074 111.468 9.8897 111.07 9.8897C110.628 9.8897 110.208 9.97998 109.818 10.166C109.423 10.3548 109.087 10.6119 108.815 10.932C108.509 11.2822 108.272 11.6952 108.095 12.1685C107.926 12.6418 107.841 13.2026 107.841 13.8482C107.841 15.0163 108.086 15.9492 108.602 16.6495C109.109 17.3499 109.799 17.7 110.669 17.7C110.931 17.7 111.16 17.6754 111.34 17.6344C111.525 17.5879 111.714 17.5222 111.907 17.4319C112.049 17.3635 112.229 17.2596 112.423 17.1173C112.622 16.9751 112.799 16.8438 112.949 16.7179V17.4949H115.332V7.24158H112.949Z" fill="white"/>
</mask>
<g mask="url(#mask1_474_1749)">
<path d="M115.332 7.24158H33.9907V17.7H115.332V7.24158Z" fill="white"/>
</g>
</g>
<path d="M103.709 28.484V33.8787C103.508 34.0128 103.289 34.1304 103.055 34.207C102.818 34.2863 102.613 34.3301 102.439 34.3301C102.16 34.3301 101.937 34.2863 101.784 34.207C101.626 34.1277 101.514 34.0073 101.435 33.8486C101.359 33.679 101.307 33.4656 101.28 33.2194C101.258 32.9705 101.25 32.6504 101.25 32.2592V28.484H98.7843V33.4383C98.7843 34.3985 99.0024 35.1125 99.447 35.5885C99.8778 36.0645 100.486 36.3025 101.263 36.3025C101.76 36.3025 102.18 36.2177 102.537 36.0344C102.891 35.8594 103.284 35.5995 103.712 35.2575V36.0946H106.161V28.4813H103.712L103.709 28.484ZM92.5119 34.0921C92.3237 34.0046 92.1792 33.8815 92.0647 33.7173C91.9474 33.5422 91.8629 33.3453 91.8219 33.1264C91.781 32.8994 91.7592 32.634 91.7592 32.3112C91.7592 31.6683 91.901 31.1759 92.1819 30.8148C92.471 30.4591 92.9073 30.2786 93.4746 30.2786C93.6518 30.2786 93.8237 30.295 93.9955 30.3278C94.1645 30.3634 94.3118 30.4099 94.4345 30.4619V33.8131C94.2409 33.9416 94.0445 34.0429 93.8427 34.1167C93.6355 34.1851 93.4255 34.2207 93.2155 34.2207C92.9264 34.2207 92.6919 34.1742 92.5092 34.0921M91.3856 28.7083C90.9847 28.8752 90.6411 29.1132 90.3657 29.4278C90.0684 29.7506 89.8366 30.1418 89.6702 30.6041C89.5093 31.0665 89.4221 31.5862 89.4221 32.1662C89.4221 33.4383 89.6921 34.3903 90.2266 35.0113C90.772 35.635 91.5356 35.9469 92.5255 35.9469C92.8964 35.9469 93.2619 35.8785 93.6055 35.7417C93.9627 35.6049 94.2736 35.4189 94.5436 35.1946V35.3341C94.5436 35.646 94.5136 35.9059 94.4563 36.1192C94.3991 36.3299 94.3063 36.5104 94.1754 36.6582C94.0418 36.8114 93.8291 36.929 93.5618 37.0056C93.2919 37.0877 92.9537 37.126 92.5528 37.126C92.3565 37.126 92.1656 37.1123 91.9801 37.0795C91.7892 37.0466 91.6038 37.0083 91.4101 36.9618C91.2438 36.9153 91.0829 36.8715 90.922 36.8168C90.7584 36.7649 90.6166 36.7183 90.502 36.6718H90.2239V38.5266C90.5538 38.6087 90.9547 38.6826 91.4101 38.7455C91.8683 38.8084 92.351 38.8467 92.8528 38.8467C93.4637 38.8467 94.0091 38.7838 94.5054 38.6634C95.0018 38.543 95.4272 38.3461 95.7817 38.0725C96.1335 37.8017 96.4089 37.4296 96.6135 36.9509C96.8235 36.4721 96.9244 35.8922 96.9244 35.2083V28.6563H94.6145L94.5245 28.9846C94.2736 28.8232 93.9982 28.6946 93.6873 28.5962C93.3764 28.5004 93.0219 28.4484 92.6346 28.4484C92.1983 28.4484 91.7865 28.536 91.3856 28.7083ZM83.2424 34.5052C83.057 34.3794 82.9561 34.1414 82.9561 33.7912C82.9561 33.5559 83.0188 33.3672 83.1334 33.2222C83.2424 33.0826 83.4115 32.976 83.6188 32.9076C83.8615 32.82 84.1015 32.7653 84.3551 32.7352C84.6005 32.7079 84.9333 32.675 85.3314 32.6367V34.1769C85.1569 34.3438 84.9605 34.4724 84.7396 34.5654C84.5242 34.6529 84.3115 34.7049 84.0988 34.7049C83.7224 34.7049 83.4388 34.6392 83.2424 34.5079M82.3289 28.6317C81.8053 28.7193 81.4262 28.7959 81.1862 28.8615V30.6534H81.3935C81.7534 30.4974 82.1161 30.3716 82.4952 30.2731C82.8743 30.1719 83.1988 30.1199 83.4824 30.1199C84.1015 30.1199 84.5678 30.1993 84.8787 30.3579C85.1978 30.5084 85.3478 30.7956 85.3478 31.2005V31.2415C84.6605 31.2881 84.0169 31.3482 83.4142 31.4303C82.8088 31.5042 82.2961 31.6492 81.8652 31.8461C81.4425 32.0404 81.1126 32.3085 80.8862 32.6477C80.6571 32.9869 80.548 33.4355 80.548 33.9799C80.548 34.6474 80.769 35.2028 81.2189 35.6405C81.6662 36.0809 82.2307 36.2998 82.9016 36.2998C83.2643 36.2998 83.5506 36.2724 83.7524 36.2232C83.9542 36.1657 84.1642 36.0919 84.3742 35.9852C84.5924 35.884 84.7696 35.7773 84.8923 35.6733C85.026 35.5666 85.1678 35.4463 85.3314 35.3177V36.1028H87.7013V31.0692C87.7013 30.1965 87.4067 29.5509 86.8068 29.1269C86.2068 28.7028 85.2496 28.4895 83.9269 28.4895C83.3924 28.4895 82.8579 28.5387 82.3289 28.6262M53.1651 30.4017C53.4269 30.1309 53.7923 29.9941 54.2587 29.9941C54.725 29.9941 55.0414 30.1254 55.265 30.3798C55.4859 30.637 55.6031 31.0035 55.6195 31.4987H52.7342C52.7588 31.0336 52.906 30.6671 53.1651 30.4044M51.4716 29.5564C50.7571 30.2759 50.3971 31.2415 50.3971 32.4425C50.3971 33.6435 50.7789 34.6365 51.5479 35.304C52.3224 35.9688 53.4269 36.3025 54.8723 36.3025C55.2623 36.3025 55.6004 36.2834 55.8731 36.2478C56.1486 36.2095 56.4131 36.1575 56.6749 36.0946C56.9558 36.0235 57.1821 35.9578 57.3403 35.9004C57.4985 35.8375 57.6785 35.7663 57.8748 35.6925V33.783H57.6212C57.5203 33.8623 57.3839 33.9471 57.2121 34.0429C57.0512 34.1414 56.8685 34.2316 56.6722 34.311C56.454 34.4094 56.2086 34.486 55.9358 34.5462C55.674 34.6037 55.3931 34.6338 55.1204 34.6338C54.7932 34.6338 54.4987 34.6037 54.2287 34.5462C53.956 34.486 53.7132 34.3876 53.5114 34.2508C53.3015 34.1167 53.1351 33.9307 53.0097 33.6982C52.8788 33.4711 52.8078 33.1811 52.7833 32.8392H58.0139V32.0103C58.0139 30.8722 57.7167 29.9996 57.1303 29.3868C56.5358 28.7767 55.6522 28.4731 54.4796 28.4731C53.1896 28.4731 52.1861 28.8314 51.4688 29.5536M110.674 30.4017C110.936 30.1309 111.296 29.9941 111.763 29.9941C112.229 29.9941 112.553 30.1254 112.774 30.3798C112.995 30.637 113.107 31.0035 113.126 31.4987H110.241C110.268 31.0336 110.415 30.6671 110.674 30.4044M108.94 29.5591C108.217 30.2759 107.863 31.2443 107.86 32.4425C107.86 33.679 108.25 34.6365 109.022 35.304C109.785 35.9688 110.895 36.3025 112.341 36.3025C112.733 36.3025 113.069 36.2834 113.339 36.2478C113.617 36.2095 113.887 36.1575 114.141 36.0946C114.424 36.0235 114.653 35.9606 114.812 35.9004C114.967 35.8375 115.15 35.7663 115.346 35.6925V33.783H115.092C114.986 33.8623 114.85 33.9471 114.689 34.0429C114.522 34.1414 114.334 34.2316 114.141 34.311C113.925 34.4094 113.68 34.486 113.407 34.5462C113.145 34.6064 112.864 34.6338 112.589 34.6338C112.264 34.6338 111.967 34.6064 111.697 34.5462C111.427 34.486 111.184 34.3876 110.985 34.2508C110.773 34.1167 110.601 33.9307 110.475 33.7009C110.355 33.4738 110.276 33.1839 110.255 32.8419H115.48V32.013C115.48 30.875 115.18 30.0023 114.596 29.3895C114.004 28.7794 113.123 28.4758 111.948 28.4758C110.658 28.4758 109.657 28.8342 108.94 29.5591ZM64.5999 25.9015V27.7098H66.0616V34.4614H64.5999V36.2752H70.0678V34.4614H68.6033V27.7098H70.0678V25.9015H64.5999ZM43.9502 34.01C43.7184 33.6872 43.6038 33.1592 43.6038 32.4316C43.6038 31.7039 43.7456 31.1978 44.0374 30.8093C44.3211 30.4236 44.7547 30.2321 45.3301 30.2321C45.4692 30.2321 45.6246 30.2512 45.8183 30.2923C46.0037 30.3224 46.1673 30.3716 46.2846 30.4291V34.0593C46.1073 34.1988 45.9055 34.3 45.6983 34.3848C45.4855 34.4614 45.2783 34.5025 45.0656 34.5025C44.5501 34.5025 44.1793 34.3383 43.9529 34.0128M46.2819 25.8441V28.9983C45.9437 28.8232 45.6437 28.7001 45.3874 28.618C45.1283 28.536 44.801 28.4922 44.3974 28.4922C43.9638 28.4922 43.5384 28.5852 43.143 28.7767C42.7475 28.96 42.4121 29.2117 42.1366 29.5345C41.8339 29.8819 41.594 30.2977 41.4221 30.771C41.2558 31.247 41.1603 31.8078 41.1603 32.4534C41.1603 33.6161 41.4167 34.5572 41.9294 35.2548C42.4366 35.9496 43.1293 36.2971 43.9965 36.2971C44.2583 36.2971 44.4765 36.2752 44.6674 36.2369C44.8529 36.1904 45.0383 36.1274 45.2292 36.0399C45.3792 35.966 45.551 35.8593 45.7473 35.7226C45.9519 35.5803 46.1264 35.4463 46.2791 35.3259V36.0974H48.6626V25.8413H46.2791L46.2819 25.8441ZM74.9002 34.6967C74.7338 34.6748 74.5784 34.6365 74.4175 34.5736V30.8613C74.6275 30.7272 74.8348 30.6315 75.042 30.5631C75.2575 30.4974 75.4702 30.4646 75.6829 30.4646C76.1656 30.4646 76.5174 30.6178 76.7519 30.9351C76.981 31.2525 77.0955 31.7777 77.0955 32.5218C77.0955 33.2659 76.9592 33.8076 76.6701 34.1824C76.3892 34.5462 75.9556 34.735 75.3856 34.735C75.2302 34.735 75.0638 34.7213 74.9029 34.6967M72.0313 25.9043V36.1603H74.3221L74.4175 35.7964C74.7366 35.966 75.042 36.1001 75.3202 36.1794C75.6038 36.267 75.9338 36.3053 76.3101 36.3053C77.2264 36.3053 77.9873 35.9414 78.6091 35.2165C79.2254 34.486 79.5336 33.5368 79.5336 32.3604C79.5336 31.1841 79.2909 30.2403 78.8082 29.5618C78.3255 28.8943 77.6437 28.5579 76.7492 28.5579C76.2747 28.5579 75.8547 28.6481 75.4893 28.826C75.1265 29.0065 74.772 29.2445 74.4148 29.5345V25.9043H72.0285H72.0313ZM112.532 25.1L111.127 27.6879H112.75L114.79 25.1H112.534H112.532Z" fill="white"/>
<path d="M4.49155 41.3553L4.16975 42.7587H4.04158C4.02794 42.3784 3.93522 42.0939 3.76341 41.9052C3.59161 41.7164 3.36526 41.6206 3.08982 41.6206C2.79256 41.6206 2.49258 41.7492 2.19532 42.0064C1.89807 42.2635 1.64717 42.6547 1.43991 43.1854C1.27356 43.6149 1.18902 44.0362 1.18902 44.4521C1.18902 44.8268 1.28174 45.1114 1.46446 45.3083C1.6499 45.5053 1.9008 45.601 2.21714 45.601C2.47622 45.601 2.71075 45.5436 2.92074 45.4342C3.13072 45.322 3.34617 45.1387 3.56434 44.8816H3.72251C3.45252 45.2864 3.18254 45.5709 2.9071 45.7324C2.63166 45.8965 2.29895 45.9786 1.90352 45.9786C1.37446 45.9786 0.946305 45.8172 0.621779 45.4943C0.297252 45.1715 0.136353 44.7502 0.136353 44.2305C0.136353 43.7435 0.264527 43.2812 0.520876 42.8408C0.777224 42.4003 1.14811 42.0419 1.63354 41.7684C2.11624 41.4948 2.59894 41.358 3.07891 41.358C3.26163 41.358 3.48798 41.3963 3.75796 41.4757C3.89704 41.5167 3.99522 41.5358 4.04703 41.5358C4.15339 41.5358 4.26248 41.4757 4.37429 41.358H4.49428L4.49155 41.3553Z" fill="white"/>
<path d="M6.32416 42.8544C6.49324 42.8544 6.65414 42.8955 6.80413 42.9748C6.95412 43.0541 7.06866 43.1636 7.14502 43.3058C7.22138 43.4453 7.25956 43.6013 7.25956 43.7764C7.25956 44.1265 7.16138 44.4794 6.96776 44.8296C6.7714 45.1825 6.51506 45.4588 6.19326 45.664C5.87146 45.8664 5.54966 45.9704 5.22786 45.9704C4.93333 45.9704 4.70425 45.8828 4.54063 45.705C4.37973 45.5272 4.29791 45.3138 4.29791 45.0594C4.29791 44.7585 4.35791 44.4739 4.48063 44.2086C4.60335 43.9432 4.75334 43.7134 4.93878 43.5192C5.12423 43.3222 5.33422 43.1636 5.57693 43.0405C5.81692 42.9174 6.06781 42.8572 6.32416 42.8572V42.8544ZM6.19053 43.0268C6.07599 43.0268 5.98054 43.0596 5.90418 43.128C5.75419 43.2648 5.58238 43.5849 5.39149 44.0882C5.20059 44.5916 5.10514 45.0457 5.10514 45.4506C5.10514 45.5518 5.13514 45.6339 5.19513 45.6968C5.25513 45.7624 5.32876 45.7953 5.41058 45.7953C5.49239 45.7953 5.56875 45.7707 5.63147 45.7187C5.72692 45.6393 5.84691 45.4643 5.98327 45.1934C6.12235 44.9199 6.23416 44.6189 6.32416 44.2907C6.41415 43.9624 6.45779 43.6587 6.45779 43.3852C6.45779 43.273 6.43052 43.1854 6.37597 43.1225C6.32143 43.0596 6.25871 43.0295 6.1878 43.0295L6.19053 43.0268Z" fill="white"/>
<path d="M9.22853 42.8544L8.81401 44.2551C9.0949 43.8256 9.29671 43.5356 9.42216 43.3852C9.61033 43.1663 9.76577 43.024 9.88849 42.9557C10.0112 42.8873 10.1339 42.8544 10.2567 42.8544C10.3957 42.8544 10.4994 42.8982 10.5621 42.983C10.6248 43.0678 10.6575 43.1608 10.6575 43.2593C10.6575 43.366 10.6275 43.5247 10.5675 43.7298L10.423 44.2551C10.7066 43.8201 10.9084 43.5329 11.0312 43.3879C11.2221 43.1663 11.3884 43.0158 11.5275 42.9392C11.6257 42.8818 11.7266 42.8544 11.8384 42.8544C11.9502 42.8544 12.0511 42.8927 12.1275 42.9693C12.2038 43.0459 12.242 43.1471 12.242 43.2703C12.242 43.407 12.2093 43.5876 12.1465 43.8092L11.7838 45.0266C11.7293 45.2071 11.702 45.322 11.702 45.374C11.702 45.3904 11.7102 45.4068 11.7238 45.4232C11.7375 45.4396 11.7538 45.4478 11.7702 45.4478C11.7947 45.4478 11.8166 45.4396 11.8357 45.4232C11.9147 45.3603 11.9966 45.2673 12.0811 45.1442C12.1002 45.1196 12.1275 45.0813 12.1656 45.0266L12.2774 45.0949C12.1275 45.3767 11.9611 45.5819 11.7838 45.7132C11.6038 45.8445 11.4402 45.9102 11.2902 45.9102C11.1593 45.9102 11.053 45.8746 10.9712 45.8007C10.8893 45.7269 10.8512 45.6421 10.8512 45.5463C10.8512 45.4506 10.8784 45.3111 10.9357 45.1223L11.3039 43.8502C11.353 43.6751 11.3775 43.5657 11.3775 43.5219C11.3775 43.5055 11.3693 43.4918 11.3557 43.4782C11.342 43.4645 11.3257 43.459 11.3093 43.459C11.2821 43.459 11.2548 43.4645 11.2248 43.4782C11.1839 43.5 11.1212 43.5548 11.0339 43.645C10.9466 43.7353 10.8239 43.8995 10.6657 44.1347C10.5048 44.37 10.3957 44.556 10.333 44.6873C10.2703 44.8186 10.2103 44.991 10.1503 45.2016L9.95395 45.8746H9.13036L9.7385 43.7463C9.77123 43.6314 9.78759 43.5548 9.78759 43.511C9.78759 43.4946 9.77941 43.4809 9.76577 43.4672C9.75214 43.4535 9.73578 43.4481 9.71941 43.4481C9.64033 43.4481 9.51488 43.552 9.34034 43.7627C9.07581 44.0882 8.83856 44.4822 8.62311 44.939L8.35586 45.8746H7.52954L8.13769 43.7791C8.20041 43.5739 8.23041 43.4289 8.23041 43.3414C8.23041 43.3058 8.22223 43.2757 8.20314 43.2511C8.18678 43.2265 8.15678 43.2046 8.1186 43.1937C8.08042 43.18 8.00406 43.1745 7.89497 43.1745L7.9277 43.0487L9.03763 42.8572H9.23126L9.22853 42.8544Z" fill="white"/>
<path d="M13.071 43.0377L14.1455 42.8544H14.3446L14.1946 43.3852C14.4237 43.1772 14.6091 43.0377 14.7564 42.9639C14.9009 42.89 15.0455 42.8544 15.1873 42.8544C15.3918 42.8544 15.55 42.9338 15.6591 43.0897C15.7681 43.2456 15.8254 43.4399 15.8254 43.6697C15.8254 44.2934 15.61 44.846 15.1764 45.3302C14.7973 45.757 14.3828 45.9704 13.9301 45.9704C13.851 45.9704 13.7855 45.9621 13.7283 45.9457C13.671 45.9293 13.5919 45.8965 13.491 45.8445L13.3219 46.4327C13.2592 46.6461 13.2292 46.8075 13.2292 46.9169C13.2292 46.988 13.2537 47.0427 13.3028 47.081C13.3519 47.1193 13.4637 47.1549 13.6383 47.185L13.611 47.3054H11.8629L11.8956 47.185C12.032 47.1795 12.1465 47.1357 12.242 47.0482C12.3347 46.9634 12.422 46.7828 12.5011 46.5038L13.2919 43.7627C13.3519 43.5575 13.3819 43.4125 13.3792 43.325C13.3792 43.2894 13.371 43.2593 13.3519 43.2347C13.3356 43.2101 13.3083 43.1909 13.2728 43.18C13.2374 43.169 13.161 43.1636 13.0383 43.1636L13.0738 43.0377H13.071ZM13.5755 45.5381C13.6437 45.6448 13.701 45.7187 13.7528 45.7515C13.8046 45.7871 13.8646 45.8035 13.9355 45.8035C14.0064 45.8035 14.0746 45.7843 14.1401 45.746C14.2055 45.7077 14.2873 45.6311 14.3855 45.5162C14.4809 45.4013 14.5764 45.2536 14.6664 45.0731C14.7564 44.8925 14.8273 44.6873 14.8818 44.4575C14.9364 44.2277 14.9636 44.0089 14.9636 43.801C14.9636 43.6341 14.9336 43.511 14.8736 43.4344C14.8137 43.3578 14.7427 43.3195 14.6609 43.3195C14.5818 43.3195 14.5109 43.3386 14.4482 43.3797C14.3473 43.4371 14.2328 43.5411 14.1019 43.6943L13.581 45.5327L13.5755 45.5381Z" fill="white"/>
<path d="M17.5653 42.8544L17.0772 44.6846C17.4808 43.7928 17.7835 43.2429 17.9853 43.0377C18.1053 42.9174 18.2335 42.8544 18.3644 42.8544C18.4543 42.8544 18.5253 42.8873 18.5825 42.9529C18.6398 43.0186 18.6671 43.1116 18.6671 43.2347C18.6671 43.4453 18.6152 43.6232 18.5143 43.7654C18.4489 43.8584 18.378 43.9022 18.3016 43.9022C18.2116 43.9022 18.1462 43.8612 18.1026 43.7818C18.0589 43.7025 18.0289 43.6532 18.0126 43.6396C17.9962 43.6259 17.9771 43.6204 17.958 43.6204C17.9362 43.6204 17.9144 43.6259 17.8898 43.6396C17.8407 43.6642 17.778 43.7271 17.7017 43.8283C17.6253 43.9295 17.5299 44.0992 17.418 44.3372C17.3062 44.5752 17.219 44.7749 17.1562 44.939C17.0935 45.1032 17.0063 45.415 16.8917 45.8746H16.1036L16.6408 43.7134C16.679 43.5548 16.6981 43.4481 16.6981 43.3934C16.6981 43.3359 16.6872 43.2921 16.6681 43.2593C16.649 43.2265 16.619 43.2019 16.5863 43.1854C16.5508 43.169 16.4772 43.1608 16.3654 43.1608L16.3927 43.0678L17.3717 42.8544H17.5653Z" fill="white"/>
<path d="M20.7697 42.8544C20.9388 42.8544 21.0997 42.8955 21.2497 42.9748C21.3997 43.0541 21.5142 43.1636 21.5906 43.3058C21.6669 43.4453 21.7051 43.6013 21.7051 43.7764C21.7051 44.1265 21.6069 44.4794 21.4133 44.8296C21.217 45.1825 20.9606 45.4588 20.6388 45.664C20.317 45.8664 19.9952 45.9704 19.6734 45.9704C19.3789 45.9704 19.1498 45.8828 18.9862 45.705C18.8253 45.5272 18.7435 45.3138 18.7435 45.0594C18.7435 44.7585 18.8035 44.4739 18.9262 44.2086C19.0489 43.9432 19.1989 43.7134 19.3843 43.5192C19.5698 43.3222 19.7798 43.1636 20.0225 43.0405C20.2625 42.9174 20.5134 42.8572 20.7697 42.8572V42.8544ZM20.6361 43.0268C20.5215 43.0268 20.4261 43.0596 20.3497 43.128C20.1997 43.2648 20.0279 43.5849 19.837 44.0882C19.6461 44.5916 19.5507 45.0457 19.5507 45.4506C19.5507 45.5518 19.5807 45.6339 19.6407 45.6968C19.7007 45.7624 19.7743 45.7953 19.8561 45.7953C19.9379 45.7953 20.0143 45.7707 20.077 45.7187C20.1725 45.6393 20.2925 45.4643 20.4288 45.1934C20.5679 44.9199 20.6797 44.6189 20.7697 44.2907C20.8597 43.9624 20.9033 43.6587 20.9033 43.3852C20.9033 43.273 20.8761 43.1854 20.8215 43.1225C20.767 43.0596 20.7043 43.0295 20.6334 43.0295L20.6361 43.0268Z" fill="white"/>
<path d="M23.6986 42.8544L23.2841 44.2551C23.565 43.8256 23.7668 43.5356 23.8923 43.3852C24.0804 43.1663 24.2359 43.024 24.3586 42.9557C24.4813 42.8873 24.604 42.8544 24.7267 42.8544C24.8658 42.8544 24.9695 42.8982 25.0322 42.983C25.0949 43.0678 25.1276 43.1608 25.1276 43.2593C25.1276 43.366 25.0976 43.5247 25.0376 43.7298L24.8931 44.2551C25.1767 43.8201 25.3785 43.5329 25.5012 43.3879C25.6921 43.1663 25.8585 43.0158 25.9976 42.9392C26.0958 42.8818 26.1967 42.8544 26.3085 42.8544C26.4203 42.8544 26.5212 42.8927 26.5975 42.9693C26.6739 43.0459 26.7121 43.1471 26.7121 43.2703C26.7121 43.407 26.6794 43.5876 26.6166 43.8092L26.2539 45.0266C26.1994 45.2071 26.1721 45.322 26.1721 45.374C26.1721 45.3904 26.1803 45.4068 26.1939 45.4232C26.2076 45.4396 26.2239 45.4478 26.2403 45.4478C26.2648 45.4478 26.2867 45.4396 26.3057 45.4232C26.3848 45.3603 26.4666 45.2673 26.5512 45.1442C26.5703 45.1196 26.5975 45.0813 26.6357 45.0266L26.7475 45.0949C26.5975 45.3767 26.4312 45.5819 26.2539 45.7132C26.0739 45.8445 25.9103 45.9102 25.7603 45.9102C25.6294 45.9102 25.5231 45.8746 25.4413 45.8007C25.3594 45.7269 25.3213 45.6421 25.3213 45.5463C25.3213 45.4506 25.3485 45.3111 25.4058 45.1223L25.774 43.8502C25.823 43.6751 25.8476 43.5657 25.8476 43.5219C25.8476 43.5055 25.8394 43.4918 25.8258 43.4782C25.8121 43.4645 25.7958 43.459 25.7794 43.459C25.7521 43.459 25.7249 43.4645 25.6949 43.4782C25.654 43.5 25.5912 43.5548 25.504 43.645C25.4167 43.7353 25.294 43.8995 25.1358 44.1347C24.9749 44.37 24.8658 44.556 24.8031 44.6873C24.7404 44.8186 24.6804 44.991 24.6204 45.2016L24.424 45.8746H23.6005L24.2086 43.7463C24.2413 43.6314 24.2577 43.5548 24.2577 43.511C24.2577 43.4946 24.2495 43.4809 24.2359 43.4672C24.2222 43.4535 24.2059 43.4481 24.1895 43.4481C24.1104 43.4481 23.985 43.552 23.8104 43.7627C23.5459 44.0882 23.3086 44.4822 23.0932 44.939L22.8259 45.8746H21.9996L22.6078 43.7791C22.6705 43.5739 22.7005 43.4289 22.7005 43.3414C22.7005 43.3058 22.6923 43.2757 22.6732 43.2511C22.6569 43.2265 22.6269 43.2046 22.5887 43.1937C22.5505 43.18 22.4742 43.1745 22.3651 43.1745L22.3978 43.0487L23.5077 42.8572H23.7014L23.6986 42.8544Z" fill="white"/>
<path d="M28.1466 44.6518C28.1248 44.7913 28.1138 44.9089 28.1138 44.9992C28.1138 45.1633 28.1602 45.2946 28.2557 45.3904C28.3511 45.4889 28.4765 45.5354 28.6347 45.5354C28.7929 45.5354 28.9402 45.4971 29.0929 45.4232C29.2456 45.3493 29.4229 45.2208 29.6247 45.0375L29.7201 45.1278C29.4692 45.4314 29.2265 45.6448 28.992 45.7734C28.7574 45.902 28.4956 45.9649 28.212 45.9649C27.8493 45.9649 27.5984 45.8773 27.4593 45.705C27.3203 45.5299 27.2521 45.3302 27.2521 45.1004C27.2521 44.7448 27.3557 44.3891 27.563 44.0308C27.7702 43.6751 28.0511 43.3906 28.4084 43.1745C28.7656 42.9611 29.1229 42.8517 29.4801 42.8517C29.6628 42.8517 29.8019 42.8955 29.8946 42.9803C29.9874 43.0678 30.0337 43.1772 30.0337 43.3085C30.0337 43.4672 29.9874 43.6231 29.8974 43.7736C29.7747 43.976 29.6165 44.1402 29.4256 44.266C29.2347 44.3919 29.022 44.4876 28.7847 44.5505C28.6293 44.5943 28.4166 44.6271 28.152 44.649L28.1466 44.6518ZM28.1738 44.4821C28.3647 44.4548 28.512 44.4165 28.6184 44.37C28.722 44.3207 28.8256 44.2441 28.9265 44.1347C29.0274 44.028 29.1147 43.8912 29.1856 43.7271C29.2592 43.563 29.2947 43.4098 29.2947 43.2648C29.2947 43.2046 29.2783 43.1581 29.2456 43.1225C29.2129 43.087 29.1692 43.0705 29.1174 43.0705C29.0138 43.0705 28.8965 43.1444 28.7656 43.2894C28.5284 43.5547 28.332 43.9514 28.1738 44.4821Z" fill="white"/>
<path d="M31.9645 42.0583L31.7027 42.9447H32.1308L32.0136 43.3222H31.599L31.0536 45.2126C31.0182 45.3275 31.0018 45.4178 31.0018 45.4807C31.0018 45.508 31.0127 45.5326 31.0318 45.5545C31.0509 45.5764 31.0754 45.5874 31.0973 45.5874C31.1327 45.5874 31.1709 45.5709 31.2091 45.5381C31.3072 45.4615 31.4245 45.3302 31.5554 45.1414L31.67 45.2153C31.5227 45.4752 31.3591 45.6667 31.1763 45.7871C30.9964 45.9102 30.8191 45.9704 30.6473 45.9704C30.5 45.9704 30.3855 45.9321 30.3009 45.8582C30.2191 45.7816 30.1782 45.6858 30.1782 45.5709C30.1782 45.4478 30.2055 45.2837 30.2628 45.084L30.7782 43.3222H30.3337L30.3991 43.0788C30.6773 42.9748 30.9091 42.8572 31.1 42.7204C31.2909 42.5836 31.52 42.3647 31.7899 42.0583H31.959H31.9645Z" fill="white"/>
<path d="M33.6253 42.8544L32.9599 45.1688C32.9245 45.3001 32.9081 45.3877 32.9081 45.4314C32.9081 45.4533 32.9163 45.4752 32.9354 45.4971C32.9544 45.519 32.9735 45.5299 32.9954 45.5299C33.0335 45.5299 33.069 45.5135 33.1044 45.4807C33.2026 45.3986 33.3199 45.2536 33.4562 45.043L33.568 45.1086C33.2408 45.6804 32.8917 45.9676 32.5236 45.9676C32.3845 45.9676 32.2727 45.9266 32.1881 45.8472C32.1036 45.7679 32.0627 45.6667 32.0627 45.5463C32.0627 45.4643 32.0818 45.363 32.12 45.2399L32.5727 43.6806C32.6163 43.5329 32.6381 43.4207 32.6381 43.3441C32.6381 43.2949 32.6163 43.2511 32.5754 43.2155C32.5345 43.1772 32.4772 43.1581 32.409 43.1581C32.3736 43.1581 32.3354 43.1581 32.2918 43.1608L32.3327 43.0323L33.4344 42.8544H33.628H33.6253ZM33.4235 41.3553C33.5571 41.3553 33.6717 41.4018 33.7644 41.4975C33.8571 41.5933 33.9035 41.7054 33.9035 41.8368C33.9035 41.9681 33.8571 42.0802 33.7617 42.176C33.6662 42.269 33.5544 42.3155 33.4235 42.3155C33.2926 42.3155 33.1835 42.269 33.0908 42.176C32.9981 42.083 32.9517 41.9708 32.9517 41.8368C32.9517 41.7027 32.9981 41.5906 33.0881 41.4975C33.1781 41.4045 33.2899 41.3553 33.4235 41.3553Z" fill="white"/>
<path d="M37.4051 41.3553L36.3524 45.0019C36.2842 45.2317 36.2515 45.3685 36.2515 45.415C36.2515 45.4396 36.2597 45.4615 36.2761 45.4779C36.2924 45.4943 36.3115 45.5053 36.3333 45.5053C36.3688 45.5053 36.4097 45.4889 36.4588 45.4533C36.5406 45.3904 36.6388 45.2755 36.7533 45.1059L36.8706 45.1715C36.5651 45.705 36.227 45.9731 35.8615 45.9731C35.7334 45.9731 35.6325 45.9403 35.5616 45.8691C35.4907 45.8007 35.4552 45.7132 35.4552 45.6038C35.4552 45.5026 35.4825 45.3603 35.5397 45.1715L35.6379 44.8351C35.3679 45.3165 35.1361 45.6339 34.9371 45.7953C34.7843 45.9129 34.6371 45.9731 34.4925 45.9731C34.3316 45.9731 34.1953 45.9074 34.0835 45.7734C33.9717 45.6393 33.9171 45.4451 33.9171 45.1934C33.9171 44.8706 33.988 44.5505 34.1298 44.2359C34.2716 43.9213 34.438 43.6587 34.6262 43.4481C34.8143 43.2374 34.9943 43.087 35.1634 42.9967C35.3325 42.9064 35.4988 42.8599 35.6625 42.8599C35.747 42.8599 35.8206 42.8763 35.8888 42.9119C35.957 42.9474 36.0306 43.0104 36.1152 43.1061L36.3579 42.2936C36.4152 42.0939 36.4424 41.9517 36.4424 41.8641C36.4424 41.8121 36.4233 41.7684 36.3852 41.7328C36.347 41.6972 36.2952 41.6781 36.2297 41.6781C36.1997 41.6781 36.1615 41.6781 36.1179 41.6863L36.1506 41.5605L37.2196 41.358H37.4133L37.4051 41.3553ZM35.9761 43.4234C35.9761 43.2921 35.9488 43.1937 35.897 43.1335C35.8452 43.0733 35.7852 43.0432 35.717 43.0432C35.6488 43.0432 35.5725 43.0788 35.4907 43.1471C35.3379 43.2867 35.177 43.5684 35.008 43.987C34.8389 44.4056 34.7571 44.7612 34.7571 45.0484C34.7571 45.1524 34.7762 45.2263 34.8116 45.2782C34.8471 45.3275 34.888 45.3521 34.9343 45.3521C35.0134 45.3521 35.0898 45.3165 35.1634 45.2481C35.3461 45.084 35.5261 44.7995 35.7061 44.3973C35.8861 43.9952 35.9734 43.6697 35.9734 43.4207L35.9761 43.4234Z" fill="white"/>
<path d="M39.2896 42.8544C39.4586 42.8544 39.6195 42.8955 39.7695 42.9748C39.9195 43.0541 40.0341 43.1636 40.1104 43.3058C40.1868 43.4453 40.225 43.6013 40.225 43.7764C40.225 44.1265 40.1268 44.4794 39.9331 44.8296C39.7368 45.1825 39.4804 45.4588 39.1586 45.664C38.8368 45.8664 38.5151 45.9704 38.1933 45.9704C37.8987 45.9704 37.6696 45.8828 37.506 45.705C37.3451 45.5272 37.2633 45.3138 37.2633 45.0594C37.2633 44.7585 37.3233 44.4739 37.446 44.2086C37.5687 43.9432 37.7187 43.7134 37.9042 43.5192C38.0896 43.3222 38.2996 43.1636 38.5423 43.0405C38.7823 42.9174 39.0332 42.8572 39.2896 42.8572V42.8544ZM39.1559 43.0268C39.0414 43.0268 38.9459 43.0596 38.8696 43.128C38.7196 43.2648 38.5478 43.5849 38.3569 44.0882C38.166 44.5916 38.0705 45.0457 38.0705 45.4506C38.0705 45.5518 38.1005 45.6339 38.1605 45.6968C38.2205 45.7624 38.2942 45.7953 38.376 45.7953C38.4578 45.7953 38.5341 45.7707 38.5969 45.7187C38.6923 45.6393 38.8123 45.4643 38.9487 45.1934C39.0877 44.9199 39.1996 44.6189 39.2896 44.2907C39.3795 43.9624 39.4232 43.6587 39.4232 43.3852C39.4232 43.273 39.3959 43.1854 39.3414 43.1225C39.2868 43.0596 39.2241 43.0295 39.1532 43.0295L39.1559 43.0268Z" fill="white"/>
<path d="M42.9002 42.8544L42.7584 43.8611H42.6384C42.622 43.5985 42.543 43.3933 42.4011 43.2429C42.2593 43.0924 42.1066 43.0185 41.9457 43.0185C41.8475 43.0185 41.763 43.0486 41.7003 43.1061C41.6348 43.1635 41.6048 43.2347 41.6048 43.3195C41.6048 43.3906 41.6185 43.4562 41.6485 43.5164C41.6757 43.5766 41.7385 43.6587 41.8366 43.7599C42.1775 44.1292 42.3848 44.3836 42.4611 44.5232C42.5375 44.6627 42.573 44.8104 42.573 44.9691C42.573 45.1414 42.5293 45.3056 42.4421 45.456C42.3548 45.6092 42.2239 45.7323 42.0521 45.8253C41.8803 45.9183 41.7003 45.9649 41.5148 45.9649C41.3894 45.9649 41.2339 45.9402 41.0512 45.8883C40.9312 45.8527 40.8385 45.8363 40.7758 45.8363C40.7212 45.8363 40.6803 45.8445 40.6503 45.8609C40.6203 45.8773 40.5876 45.9129 40.5494 45.9649H40.4294L40.5903 44.8761H40.6912C40.7703 45.1414 40.8412 45.3302 40.9067 45.4396C40.9721 45.549 41.0594 45.6393 41.1712 45.7077C41.2803 45.7734 41.3867 45.8062 41.4903 45.8062C41.6076 45.8062 41.7057 45.7679 41.7848 45.6913C41.8639 45.6147 41.9021 45.5271 41.9021 45.4232C41.9021 45.3192 41.8775 45.2208 41.8257 45.125C41.7739 45.0293 41.6566 44.8788 41.4739 44.6791C41.2176 44.4028 41.0512 44.1894 40.9749 44.0389C40.9176 43.9323 40.8903 43.8091 40.8903 43.6696C40.8903 43.4344 40.9749 43.2401 41.1439 43.0815C41.313 42.9255 41.5503 42.8462 41.8585 42.8462C41.9921 42.8462 42.1584 42.8681 42.3548 42.9146C42.453 42.9392 42.5293 42.9501 42.5893 42.9501C42.6739 42.9501 42.7393 42.9146 42.7911 42.8462H42.9084L42.9002 42.8544Z" fill="white"/>
<path d="M47.2009 45.0895L47.2963 45.1798C47.0863 45.4314 46.8791 45.6147 46.6745 45.7351C46.4045 45.891 46.1264 45.9704 45.8346 45.9704C45.6382 45.9704 45.4664 45.9293 45.3164 45.8445C45.1664 45.7597 45.0573 45.6448 44.9837 45.4916C44.9101 45.3384 44.8746 45.1852 44.8746 45.0266C44.8746 44.6709 44.9701 44.3208 45.1637 43.9761C45.3573 43.6314 45.611 43.3605 45.9273 43.1581C46.2436 42.9584 46.5545 42.8572 46.8572 42.8572C47.1027 42.8572 47.2854 42.9119 47.4109 43.0186C47.5363 43.1253 47.5963 43.2621 47.5963 43.4235C47.5963 43.5684 47.5499 43.6916 47.4572 43.7928C47.3645 43.894 47.2609 43.9432 47.1436 43.9432C47.0454 43.9432 46.9609 43.9104 46.8954 43.8448C46.83 43.7791 46.7972 43.7025 46.7972 43.615C46.7972 43.5001 46.8572 43.3961 46.9745 43.3086C47.0536 43.2484 47.0918 43.1964 47.0918 43.1499C47.0918 43.1116 47.0754 43.0815 47.0427 43.0569C46.9991 43.0213 46.9418 43.0049 46.8736 43.0049C46.6936 43.0049 46.5218 43.0788 46.3609 43.2265C46.1482 43.4207 45.9873 43.6669 45.8755 43.9679C45.7637 44.2688 45.7091 44.5533 45.7091 44.8214C45.7091 45.0348 45.7664 45.2044 45.8809 45.3302C45.9955 45.4561 46.1318 45.5217 46.29 45.5217C46.4264 45.5217 46.5764 45.4862 46.7373 45.415C46.8982 45.3439 47.0509 45.2345 47.1981 45.0895H47.2009Z" fill="white"/>
<path d="M49.8434 42.8544C50.0125 42.8544 50.1734 42.8955 50.3234 42.9748C50.4734 43.0541 50.5879 43.1636 50.6643 43.3058C50.7407 43.4453 50.7788 43.6013 50.7788 43.7764C50.7788 44.1265 50.6807 44.4794 50.487 44.8296C50.2907 45.1825 50.0343 45.4588 49.7125 45.664C49.3907 45.8664 49.0689 45.9704 48.7471 45.9704C48.4526 45.9704 48.2235 45.8828 48.0599 45.705C47.899 45.5272 47.8172 45.3138 47.8172 45.0594C47.8172 44.7585 47.8772 44.4739 47.9999 44.2086C48.1226 43.9432 48.2726 43.7134 48.4581 43.5192C48.6435 43.3222 48.8535 43.1636 49.0962 43.0405C49.3362 42.9174 49.5871 42.8572 49.8434 42.8572V42.8544ZM49.7098 43.0268C49.5953 43.0268 49.4998 43.0596 49.4235 43.128C49.2735 43.2648 49.1017 43.5849 48.9108 44.0882C48.7199 44.5916 48.6244 45.0457 48.6244 45.4506C48.6244 45.5518 48.6544 45.6339 48.7144 45.6968C48.7744 45.7624 48.848 45.7953 48.9299 45.7953C49.0117 45.7953 49.088 45.7707 49.1508 45.7187C49.2462 45.6393 49.3662 45.4643 49.5026 45.1934C49.6416 44.9199 49.7535 44.6189 49.8434 44.2907C49.9334 43.9624 49.9771 43.6587 49.9771 43.3852C49.9771 43.273 49.9498 43.1854 49.8953 43.1225C49.8407 43.0596 49.778 43.0295 49.7071 43.0295L49.7098 43.0268Z" fill="white"/>
<path d="M52.756 42.8544L52.3578 44.2496C52.6278 43.842 52.8296 43.563 52.9633 43.4125C53.1596 43.1964 53.3287 43.0487 53.4732 42.9721C53.6178 42.8927 53.7514 42.8544 53.8741 42.8544C53.9859 42.8544 54.0841 42.8955 54.1659 42.9803C54.2477 43.0651 54.2859 43.1745 54.2859 43.3085C54.2859 43.4289 54.2586 43.5766 54.2041 43.749L53.7896 45.1414C53.7541 45.2618 53.7378 45.3411 53.7378 45.3794C53.7378 45.4013 53.7459 45.4205 53.765 45.4369C53.7814 45.4533 53.8005 45.4642 53.8168 45.4642C53.8387 45.4642 53.8605 45.456 53.885 45.4369C53.9614 45.374 54.0377 45.2864 54.1141 45.1688C54.1332 45.1387 54.1632 45.0922 54.2068 45.032L54.3323 45.1086C54.0159 45.6448 53.6805 45.9129 53.3287 45.9129C53.1951 45.9129 53.0887 45.8773 53.0151 45.8089C52.9387 45.7378 52.9033 45.6503 52.9033 45.5463C52.9033 45.456 52.9278 45.322 52.9796 45.1414L53.386 43.749C53.4132 43.656 53.4269 43.5903 53.4269 43.5465C53.4269 43.5219 53.4187 43.5 53.3996 43.4836C53.3805 43.4672 53.3587 43.4563 53.3314 43.4563C53.2496 43.4563 53.1514 43.5137 53.0342 43.6259C52.7369 43.9131 52.4451 44.3372 52.1669 44.9034L51.8997 45.8719H51.0734L51.6788 43.7791C51.7388 43.5739 51.7688 43.4289 51.7688 43.3414C51.7688 43.3031 51.7606 43.273 51.7415 43.2456C51.7251 43.221 51.6951 43.1991 51.657 43.1882C51.6188 43.1745 51.5452 43.169 51.4361 43.169L51.4715 43.0432L52.5651 42.8517H52.7642L52.756 42.8544Z" fill="white"/>
<path d="M57.4085 44.6518C57.3867 44.7913 57.3757 44.9089 57.3757 44.9992C57.3757 45.1633 57.4221 45.2946 57.5176 45.3904C57.613 45.4889 57.7385 45.5354 57.8966 45.5354C58.0548 45.5354 58.2021 45.4971 58.3548 45.4232C58.5075 45.3493 58.6848 45.2208 58.8866 45.0375L58.982 45.1278C58.7311 45.4314 58.4884 45.6448 58.2539 45.7734C58.0193 45.902 57.7575 45.9649 57.4739 45.9649C57.1112 45.9649 56.8603 45.8773 56.7212 45.705C56.5822 45.5299 56.514 45.3302 56.514 45.1004C56.514 44.7448 56.6176 44.3891 56.8249 44.0308C57.0321 43.6751 57.313 43.3906 57.6703 43.1745C58.0275 42.9611 58.3848 42.8517 58.742 42.8517C58.9247 42.8517 59.0638 42.8955 59.1566 42.9803C59.2493 43.0678 59.2956 43.1772 59.2956 43.3085C59.2956 43.4672 59.2493 43.6231 59.1593 43.7736C59.0366 43.976 58.8784 44.1402 58.6875 44.266C58.4966 44.3919 58.2839 44.4876 58.0466 44.5505C57.8912 44.5943 57.6785 44.6271 57.4139 44.649L57.4085 44.6518ZM57.4357 44.4821C57.6266 44.4548 57.7739 44.4165 57.8803 44.37C57.9839 44.3207 58.0875 44.2441 58.1884 44.1347C58.2893 44.028 58.3766 43.8912 58.4475 43.7271C58.5211 43.563 58.5566 43.4098 58.5566 43.2648C58.5566 43.2046 58.5402 43.1581 58.5075 43.1225C58.4748 43.087 58.4311 43.0705 58.3793 43.0705C58.2757 43.0705 58.1584 43.1444 58.0275 43.2894C57.7903 43.5547 57.5939 43.9514 57.4357 44.4821Z" fill="white"/>
<path d="M61.4255 41.3553L60.3483 45.0265C60.2856 45.2427 60.2556 45.3794 60.2556 45.4342C60.2556 45.4615 60.2638 45.4834 60.2829 45.5025C60.3019 45.5217 60.321 45.5299 60.3428 45.5299C60.381 45.5299 60.4165 45.5162 60.4519 45.4861C60.5556 45.4013 60.6728 45.2591 60.7983 45.0566L60.9237 45.1141C60.7192 45.4451 60.5174 45.6831 60.3183 45.8226C60.1819 45.9211 60.0347 45.9676 59.882 45.9676C59.7402 45.9676 59.6256 45.9293 59.5411 45.85C59.4565 45.7706 59.4129 45.6776 59.4129 45.5709C59.4129 45.4889 59.4374 45.3603 59.4893 45.1825L60.3674 42.1787C60.4165 42.0146 60.441 41.9051 60.441 41.8504C60.441 41.7985 60.4192 41.7574 60.3728 41.7246C60.3101 41.6808 60.2174 41.6644 60.0947 41.6726L60.1301 41.5468L61.2237 41.3525H61.4228L61.4255 41.3553Z" fill="white"/>
<path d="M66.4706 41.3553L65.418 45.0019C65.3498 45.2317 65.3171 45.3685 65.3171 45.415C65.3171 45.4396 65.3253 45.4615 65.3416 45.4779C65.358 45.4943 65.3771 45.5053 65.3989 45.5053C65.4343 45.5053 65.4753 45.4889 65.5243 45.4533C65.6062 45.3904 65.7043 45.2755 65.8189 45.1059L65.9361 45.1715C65.6307 45.705 65.2925 45.9731 64.9271 45.9731C64.7989 45.9731 64.698 45.9403 64.6271 45.8691C64.5562 45.8007 64.5208 45.7132 64.5208 45.6038C64.5208 45.5026 64.548 45.3603 64.6053 45.1715L64.7035 44.8351C64.4335 45.3165 64.2017 45.6339 64.0026 45.7953C63.8499 45.9129 63.7026 45.9731 63.5581 45.9731C63.3972 45.9731 63.2608 45.9074 63.149 45.7734C63.0372 45.6393 62.9827 45.4451 62.9827 45.1934C62.9827 44.8706 63.0536 44.5505 63.1954 44.2359C63.3372 43.9213 63.5035 43.6587 63.6917 43.4481C63.8799 43.2374 64.0599 43.087 64.229 42.9967C64.398 42.9064 64.5644 42.8599 64.728 42.8599C64.8126 42.8599 64.8862 42.8763 64.9544 42.9119C65.0225 42.9474 65.0962 43.0104 65.1807 43.1061L65.4234 42.2936C65.4807 42.0939 65.508 41.9517 65.508 41.8641C65.508 41.8121 65.4889 41.7684 65.4507 41.7328C65.4125 41.6972 65.3607 41.6781 65.2953 41.6781C65.2653 41.6781 65.2271 41.6781 65.1834 41.6863L65.2162 41.5605L66.2852 41.358H66.4788L66.4706 41.3553ZM65.0444 43.4234C65.0444 43.2921 65.0171 43.1937 64.9653 43.1335C64.9135 43.0733 64.8535 43.0432 64.7853 43.0432C64.7171 43.0432 64.6408 43.0788 64.5589 43.1471C64.4062 43.2867 64.2453 43.5684 64.0762 43.987C63.9072 44.4056 63.8253 44.7612 63.8253 45.0484C63.8253 45.1524 63.8444 45.2263 63.8799 45.2782C63.9153 45.3275 63.9562 45.3521 64.0026 45.3521C64.0817 45.3521 64.1581 45.3165 64.2317 45.2481C64.4144 45.084 64.5944 44.7995 64.7744 44.3973C64.9544 43.9952 65.0416 43.6697 65.0416 43.4207L65.0444 43.4234Z" fill="white"/>
<path d="M67.2097 44.6518C67.1879 44.7913 67.177 44.9089 67.177 44.9992C67.177 45.1633 67.2234 45.2946 67.3188 45.3904C67.4143 45.4889 67.5397 45.5354 67.6979 45.5354C67.8561 45.5354 68.0033 45.4971 68.156 45.4232C68.3088 45.3493 68.486 45.2208 68.6878 45.0375L68.7833 45.1278C68.5324 45.4314 68.2897 45.6448 68.0551 45.7734C67.8206 45.902 67.5588 45.9649 67.2752 45.9649C66.9125 45.9649 66.6616 45.8773 66.5225 45.705C66.3834 45.5299 66.3152 45.3302 66.3152 45.1004C66.3152 44.7448 66.4189 44.3891 66.6261 44.0308C66.8334 43.6751 67.1143 43.3906 67.4715 43.1745C67.8288 42.9611 68.186 42.8517 68.5433 42.8517C68.726 42.8517 68.8651 42.8955 68.9578 42.9803C69.0505 43.0678 69.0969 43.1772 69.0969 43.3085C69.0969 43.4672 69.0505 43.6231 68.9605 43.7736C68.8378 43.976 68.6797 44.1402 68.4888 44.266C68.2979 44.3919 68.0851 44.4876 67.8479 44.5505C67.6924 44.5943 67.4797 44.6271 67.2152 44.649L67.2097 44.6518ZM67.2397 44.4821C67.4306 44.4548 67.5779 44.4165 67.6843 44.37C67.7879 44.3207 67.8915 44.2441 67.9924 44.1347C68.0933 44.028 68.1806 43.8912 68.2515 43.7271C68.3251 43.563 68.3606 43.4098 68.3606 43.2648C68.3606 43.2046 68.3442 43.1581 68.3115 43.1225C68.2788 43.087 68.2351 43.0705 68.1833 43.0705C68.0797 43.0705 67.9624 43.1444 67.8315 43.2894C67.5943 43.5547 67.3979 43.9514 67.2397 44.4821Z" fill="white"/>
<path d="M71.5949 42.8544L71.4531 43.8611H71.3331C71.3167 43.5985 71.2377 43.3933 71.0959 43.2429C70.954 43.0924 70.8013 43.0185 70.6404 43.0185C70.5422 43.0185 70.4577 43.0486 70.395 43.1061C70.3295 43.1635 70.2995 43.2347 70.2995 43.3195C70.2995 43.3906 70.3132 43.4562 70.3432 43.5164C70.3704 43.5766 70.4332 43.6587 70.5313 43.7599C70.8722 44.1292 71.0795 44.3836 71.1558 44.5232C71.2322 44.6627 71.2677 44.8104 71.2677 44.9691C71.2677 45.1414 71.224 45.3056 71.1368 45.456C71.0495 45.6092 70.9186 45.7323 70.7468 45.8253C70.575 45.9183 70.395 45.9649 70.2095 45.9649C70.0841 45.9649 69.9286 45.9402 69.7459 45.8883C69.6259 45.8527 69.5332 45.8363 69.4705 45.8363C69.4159 45.8363 69.375 45.8445 69.345 45.8609C69.315 45.8773 69.2823 45.9129 69.2441 45.9649H69.1241L69.285 44.8761H69.3859C69.465 45.1414 69.5359 45.3302 69.6014 45.4396C69.6668 45.549 69.7541 45.6393 69.8659 45.7077C69.975 45.7734 70.0814 45.8062 70.185 45.8062C70.3023 45.8062 70.4004 45.7679 70.4795 45.6913C70.5586 45.6147 70.5968 45.5271 70.5968 45.4232C70.5968 45.3192 70.5722 45.2208 70.5204 45.125C70.4686 45.0293 70.3513 44.8788 70.1686 44.6791C69.9123 44.4028 69.7459 44.1894 69.6696 44.0389C69.6123 43.9323 69.585 43.8091 69.585 43.6696C69.585 43.4344 69.6696 43.2401 69.8386 43.0815C70.0077 42.9255 70.245 42.8462 70.5532 42.8462C70.6868 42.8462 70.8531 42.8681 71.0495 42.9146C71.1477 42.9392 71.224 42.9501 71.284 42.9501C71.3686 42.9501 71.434 42.9146 71.4858 42.8462H71.6031L71.5949 42.8544Z" fill="white"/>
<path d="M74.9002 42.9009L74.2702 45.0676L74.202 45.3357C74.1966 45.3685 74.1938 45.3904 74.1938 45.404C74.1938 45.4314 74.202 45.4533 74.2211 45.4724C74.2402 45.4916 74.2593 45.4998 74.2784 45.4998C74.3248 45.4998 74.3875 45.467 74.4693 45.3986C74.502 45.3685 74.5784 45.27 74.7038 45.1004L74.8156 45.1578C74.6629 45.4423 74.4993 45.6475 74.3248 45.7761C74.1502 45.9047 73.962 45.9703 73.7602 45.9703C73.6375 45.9703 73.5421 45.9375 73.4766 45.8746C73.4112 45.8089 73.3812 45.7296 73.3812 45.6311C73.3812 45.5436 73.4166 45.3876 73.4848 45.1578L73.5612 44.8952C73.3103 45.3274 73.0703 45.6338 72.8385 45.8144C72.7048 45.9184 72.5603 45.9731 72.4076 45.9731C72.2085 45.9731 72.064 45.891 71.9767 45.7269C71.8867 45.5627 71.8431 45.3767 71.8431 45.1715C71.8431 44.8651 71.9358 44.5122 72.124 44.1155C72.3121 43.7189 72.5549 43.4015 72.8576 43.1608C73.1085 42.9611 73.343 42.8626 73.5584 42.8626C73.6784 42.8626 73.7766 42.8982 73.8502 42.9666C73.9239 43.0377 73.9784 43.1663 74.0139 43.3523L74.1311 42.9529L74.9029 42.9091L74.9002 42.9009ZM73.8584 43.5192C73.8584 43.3441 73.8311 43.2182 73.7766 43.1389C73.7357 43.0842 73.6839 43.0568 73.6184 43.0568C73.553 43.0568 73.4821 43.0897 73.4084 43.1553C73.2639 43.2894 73.1057 43.5629 72.9394 43.976C72.7703 44.3864 72.6885 44.742 72.6885 45.0429C72.6885 45.1578 72.7076 45.2426 72.7458 45.2919C72.7839 45.3411 72.8248 45.3657 72.8712 45.3657C72.9694 45.3657 73.0703 45.311 73.1685 45.1989C73.3103 45.0375 73.4384 44.8405 73.553 44.608C73.7575 44.2004 73.8584 43.8365 73.8584 43.5192Z" fill="white"/>
<path d="M76.6265 42.8544L76.1383 44.6846C76.5419 43.7928 76.8446 43.2429 77.0464 43.0377C77.1664 42.9174 77.2946 42.8544 77.4255 42.8544C77.5155 42.8544 77.5864 42.8873 77.6437 42.9529C77.7009 43.0186 77.7282 43.1116 77.7282 43.2347C77.7282 43.4453 77.6764 43.6232 77.5755 43.7654C77.5101 43.8584 77.4391 43.9022 77.3628 43.9022C77.2728 43.9022 77.2073 43.8612 77.1637 43.7818C77.1201 43.7025 77.0901 43.6532 77.0737 43.6396C77.0574 43.6259 77.0383 43.6204 77.0192 43.6204C76.9974 43.6204 76.9755 43.6259 76.951 43.6396C76.9019 43.6642 76.8392 43.7271 76.7628 43.8283C76.6865 43.9295 76.591 44.0992 76.4792 44.3372C76.3674 44.5752 76.2801 44.7749 76.2174 44.939C76.1547 45.1032 76.0674 45.415 75.9529 45.8746H75.1647L75.702 43.7134C75.7402 43.5548 75.7592 43.4481 75.7592 43.3934C75.7592 43.3359 75.7483 43.2921 75.7292 43.2593C75.7102 43.2265 75.6802 43.2019 75.6474 43.1854C75.612 43.169 75.5383 43.1608 75.4265 43.1608L75.4538 43.0678L76.4328 42.8544H76.6265Z" fill="white"/>
<path d="M79.2172 42.8544L78.7291 44.6846C79.1327 43.7928 79.4354 43.2429 79.6372 43.0377C79.7572 42.9174 79.8854 42.8544 80.0163 42.8544C80.1063 42.8544 80.1772 42.8873 80.2344 42.9529C80.2917 43.0186 80.319 43.1116 80.319 43.2347C80.319 43.4453 80.2672 43.6232 80.1663 43.7654C80.1008 43.8584 80.0299 43.9022 79.9535 43.9022C79.8636 43.9022 79.7981 43.8612 79.7545 43.7818C79.7108 43.7025 79.6808 43.6532 79.6645 43.6396C79.6481 43.6259 79.629 43.6204 79.6099 43.6204C79.5881 43.6204 79.5663 43.6259 79.5418 43.6396C79.4927 43.6642 79.4299 43.7271 79.3536 43.8283C79.2772 43.9295 79.1818 44.0992 79.07 44.3372C78.9582 44.5752 78.8709 44.7749 78.8082 44.939C78.7454 45.1032 78.6582 45.415 78.5436 45.8746H77.7555L78.2927 43.7134C78.3309 43.5548 78.35 43.4481 78.35 43.3934C78.35 43.3359 78.3391 43.2921 78.32 43.2593C78.3009 43.2265 78.2709 43.2019 78.2382 43.1854C78.2027 43.169 78.1291 43.1608 78.0173 43.1608L78.0446 43.0678L79.0236 42.8544H79.2172Z" fill="white"/>
<path d="M82.4216 42.8544C82.5907 42.8544 82.7516 42.8955 82.9015 42.9748C83.0515 43.0541 83.1661 43.1636 83.2424 43.3058C83.3188 43.4453 83.357 43.6013 83.357 43.7764C83.357 44.1265 83.2588 44.4794 83.0652 44.8296C82.8688 45.1825 82.6125 45.4588 82.2907 45.664C81.9689 45.8664 81.6471 45.9704 81.3253 45.9704C81.0307 45.9704 80.8017 45.8828 80.638 45.705C80.4771 45.5272 80.3953 45.3138 80.3953 45.0594C80.3953 44.7585 80.4553 44.4739 80.578 44.2086C80.7008 43.9432 80.8508 43.7134 81.0362 43.5192C81.2216 43.3222 81.4316 43.1636 81.6743 43.0405C81.9143 42.9174 82.1652 42.8572 82.4216 42.8572V42.8544ZM82.2879 43.0268C82.1734 43.0268 82.078 43.0596 82.0016 43.128C81.8516 43.2648 81.6798 43.5849 81.4889 44.0882C81.298 44.5916 81.2026 45.0457 81.2026 45.4506C81.2026 45.5518 81.2326 45.6339 81.2925 45.6968C81.3525 45.7624 81.4262 45.7953 81.508 45.7953C81.5898 45.7953 81.6662 45.7707 81.7289 45.7187C81.8243 45.6393 81.9443 45.4643 82.0807 45.1934C82.2198 44.9199 82.3316 44.6189 82.4216 44.2907C82.5116 43.9624 82.5552 43.6587 82.5552 43.3852C82.5552 43.273 82.5279 43.1854 82.4734 43.1225C82.4189 43.0596 82.3561 43.0295 82.2852 43.0295L82.2879 43.0268Z" fill="white"/>
<path d="M85.6641 41.3553L84.5869 45.0265C84.5242 45.2427 84.4942 45.3794 84.4942 45.4342C84.4942 45.4615 84.5023 45.4834 84.5214 45.5025C84.5405 45.5217 84.5596 45.5299 84.5814 45.5299C84.6196 45.5299 84.6551 45.5162 84.6905 45.4861C84.7941 45.4013 84.9114 45.2591 85.0369 45.0566L85.1623 45.1141C84.9578 45.4451 84.756 45.6831 84.5569 45.8226C84.4205 45.9211 84.2733 45.9676 84.1206 45.9676C83.9787 45.9676 83.8642 45.9293 83.7797 45.85C83.6951 45.7706 83.6515 45.6776 83.6515 45.5709C83.6515 45.4889 83.676 45.3603 83.7278 45.1825L84.606 42.1787C84.6551 42.0146 84.6796 41.9051 84.6796 41.8504C84.6796 41.7985 84.6578 41.7574 84.6114 41.7246C84.5487 41.6808 84.456 41.6644 84.3333 41.6726L84.3687 41.5468L85.4623 41.3525H85.6614L85.6641 41.3553Z" fill="white"/>
<path d="M87.5295 41.3553L86.4523 45.0265C86.3895 45.2427 86.3595 45.3794 86.3595 45.4342C86.3595 45.4615 86.3677 45.4834 86.3868 45.5025C86.4059 45.5217 86.425 45.5299 86.4468 45.5299C86.485 45.5299 86.5204 45.5162 86.5559 45.4861C86.6595 45.4013 86.7768 45.2591 86.9022 45.0566L87.0277 45.1141C86.8231 45.4451 86.6213 45.6831 86.4222 45.8226C86.2859 45.9211 86.1386 45.9676 85.9859 45.9676C85.8441 45.9676 85.7296 45.9293 85.645 45.85C85.5605 45.7706 85.5168 45.6776 85.5168 45.5709C85.5168 45.4889 85.5414 45.3603 85.5932 45.1825L86.4713 42.1787C86.5204 42.0146 86.545 41.9051 86.545 41.8504C86.545 41.7985 86.5232 41.7574 86.4768 41.7246C86.4141 41.6808 86.3213 41.6644 86.1986 41.6726L86.2341 41.5468L87.3277 41.3525H87.5267L87.5295 41.3553Z" fill="white"/>
<path d="M89.4575 42.8544C89.6266 42.8544 89.7875 42.8955 89.9375 42.9748C90.0875 43.0541 90.202 43.1636 90.2784 43.3058C90.3547 43.4453 90.3929 43.6013 90.3929 43.7764C90.3929 44.1265 90.2947 44.4794 90.1011 44.8296C89.9048 45.1825 89.6484 45.4588 89.3266 45.664C89.0048 45.8664 88.683 45.9704 88.3612 45.9704C88.0667 45.9704 87.8376 45.8828 87.674 45.705C87.5131 45.5272 87.4313 45.3138 87.4313 45.0594C87.4313 44.7585 87.4913 44.4739 87.614 44.2086C87.7367 43.9432 87.8867 43.7134 88.0721 43.5192C88.2576 43.3222 88.4676 43.1636 88.7103 43.0405C88.9503 42.9174 89.2012 42.8572 89.4575 42.8572V42.8544ZM89.3239 43.0268C89.2094 43.0268 89.1139 43.0596 89.0375 43.128C88.8875 43.2648 88.7157 43.5849 88.5248 44.0882C88.3339 44.5916 88.2385 45.0457 88.2385 45.4506C88.2385 45.5518 88.2685 45.6339 88.3285 45.6968C88.3885 45.7624 88.4621 45.7953 88.5439 45.7953C88.6257 45.7953 88.7021 45.7707 88.7648 45.7187C88.8603 45.6393 88.9803 45.4643 89.1166 45.1934C89.2557 44.9199 89.3675 44.6189 89.4575 44.2907C89.5475 43.9624 89.5911 43.6587 89.5911 43.3852C89.5911 43.273 89.5639 43.1854 89.5093 43.1225C89.4548 43.0596 89.3921 43.0295 89.3212 43.0295L89.3239 43.0268Z" fill="white"/>
<path d="M93.8455 42.8544L93.3573 44.6846C93.7609 43.7928 94.0636 43.2429 94.2654 43.0377C94.3854 42.9174 94.5136 42.8544 94.6445 42.8544C94.7345 42.8544 94.8054 42.8873 94.8627 42.9529C94.9199 43.0186 94.9472 43.1116 94.9472 43.2347C94.9472 43.4453 94.8954 43.6232 94.7945 43.7654C94.729 43.8584 94.6581 43.9022 94.5818 43.9022C94.4918 43.9022 94.4263 43.8612 94.3827 43.7818C94.3391 43.7025 94.3091 43.6532 94.2927 43.6396C94.2763 43.6259 94.2573 43.6204 94.2382 43.6204C94.2163 43.6204 94.1945 43.6259 94.17 43.6396C94.1209 43.6642 94.0582 43.7271 93.9818 43.8283C93.9055 43.9295 93.81 44.0992 93.6982 44.3372C93.5864 44.5752 93.4991 44.7749 93.4364 44.939C93.3737 45.1032 93.2864 45.415 93.1719 45.8746H92.3837L92.921 43.7134C92.9591 43.5548 92.9782 43.4481 92.9782 43.3934C92.9782 43.3359 92.9673 43.2921 92.9482 43.2593C92.9291 43.2265 92.8991 43.2019 92.8664 43.1854C92.831 43.169 92.7573 43.1608 92.6455 43.1608L92.6728 43.0678L93.6518 42.8544H93.8455Z" fill="white"/>
<path d="M95.9044 44.6518C95.8826 44.7913 95.8717 44.9089 95.8717 44.9992C95.8717 45.1633 95.9181 45.2946 96.0135 45.3904C96.109 45.4889 96.2344 45.5354 96.3926 45.5354C96.5508 45.5354 96.698 45.4971 96.8508 45.4232C97.0035 45.3493 97.1807 45.2208 97.3825 45.0375L97.478 45.1278C97.2271 45.4314 96.9844 45.6448 96.7498 45.7734C96.5153 45.902 96.2535 45.9649 95.9699 45.9649C95.6072 45.9649 95.3563 45.8773 95.2172 45.705C95.0781 45.5299 95.0099 45.3302 95.0099 45.1004C95.0099 44.7448 95.1136 44.3891 95.3208 44.0308C95.5281 43.6751 95.809 43.3906 96.1662 43.1745C96.5235 42.9611 96.8807 42.8517 97.238 42.8517C97.4207 42.8517 97.5598 42.8955 97.6525 42.9803C97.7452 43.0678 97.7916 43.1772 97.7916 43.3085C97.7916 43.4672 97.7452 43.6231 97.6552 43.7736C97.5325 43.976 97.3743 44.1402 97.1835 44.266C96.9926 44.3919 96.7798 44.4876 96.5426 44.5505C96.3871 44.5943 96.1744 44.6271 95.9099 44.649L95.9044 44.6518ZM95.9317 44.4821C96.1226 44.4548 96.2699 44.4165 96.3762 44.37C96.4799 44.3207 96.5835 44.2441 96.6844 44.1347C96.7853 44.028 96.8726 43.8912 96.9435 43.7271C97.0171 43.563 97.0526 43.4098 97.0526 43.2648C97.0526 43.2046 97.0362 43.1581 97.0035 43.1225C96.9707 43.087 96.9271 43.0705 96.8753 43.0705C96.7717 43.0705 96.6544 43.1444 96.5235 43.2894C96.2862 43.5547 96.0899 43.9514 95.9317 44.4821Z" fill="white"/>
<path d="M100.391 43.0541H101.255L101.151 43.4098H100.704C100.775 43.5384 100.808 43.6615 100.808 43.7791C100.808 43.9761 100.753 44.1594 100.647 44.3262C100.541 44.4931 100.382 44.6272 100.172 44.7256C99.9651 44.8241 99.7306 44.8761 99.477 44.8761C99.4088 44.8761 99.3352 44.8706 99.2533 44.8624C99.1715 44.8542 99.0843 44.8378 98.9888 44.8187C98.847 44.8952 98.757 44.9527 98.7188 44.9965C98.6915 45.0266 98.6779 45.0567 98.6779 45.0895C98.6779 45.1278 98.6943 45.1606 98.727 45.1907C98.7843 45.2399 98.8661 45.2755 98.9779 45.3001C99.4224 45.3959 99.7142 45.4752 99.8533 45.5299C100.047 45.612 100.194 45.7159 100.29 45.8418C100.388 45.9676 100.437 46.1208 100.437 46.2986C100.437 46.5695 100.311 46.8047 100.063 47.0099C99.8151 47.2151 99.4306 47.3163 98.907 47.3163C98.3834 47.3163 97.9907 47.2288 97.7398 47.0537C97.5625 46.9306 97.4725 46.7801 97.4725 46.605C97.4725 46.4737 97.5298 46.3506 97.6471 46.2357C97.7643 46.1236 98.018 46.0223 98.4079 45.9375C98.2743 45.8637 98.1843 45.798 98.1407 45.7351C98.0752 45.653 98.0452 45.5682 98.0452 45.4807C98.0452 45.3357 98.1025 45.2071 98.2198 45.095C98.3343 44.9855 98.5307 44.8734 98.8061 44.7639C98.5934 44.6791 98.4407 44.5724 98.3452 44.4384C98.2498 44.3043 98.2034 44.1484 98.2034 43.9706C98.2034 43.7818 98.2607 43.6013 98.3725 43.4317C98.4843 43.2621 98.6534 43.1225 98.8743 43.0158C99.0952 42.9092 99.3515 42.8572 99.6379 42.8572C99.8233 42.8572 99.9869 42.8763 100.131 42.9174C100.205 42.9392 100.29 42.9858 100.391 43.0541ZM98.5906 46.0114C98.3834 46.0935 98.2443 46.1783 98.1679 46.2713C98.0943 46.3643 98.0561 46.4655 98.0561 46.5722C98.0561 46.7117 98.1298 46.8403 98.277 46.9552C98.4243 47.0701 98.6616 47.1276 98.9861 47.1276C99.2561 47.1276 99.4497 47.0783 99.5697 46.9798C99.6897 46.8813 99.7524 46.7664 99.7524 46.6351C99.7524 46.5175 99.6951 46.419 99.586 46.3452C99.477 46.2713 99.2615 46.1947 98.9479 46.1154C98.8006 46.0743 98.6806 46.0388 98.5879 46.0114H98.5906ZM99.7088 43.0131C99.6051 43.0131 99.5151 43.0487 99.4415 43.1171C99.3242 43.221 99.2206 43.4016 99.1333 43.6505C99.0461 43.9022 99.0024 44.1375 99.0024 44.3591C99.0024 44.4657 99.0324 44.5533 99.0952 44.6135C99.1579 44.6764 99.2342 44.7065 99.3242 44.7065C99.4142 44.7065 99.4906 44.6764 99.5533 44.6135C99.676 44.4958 99.7851 44.3043 99.8751 44.0417C99.9651 43.7791 100.011 43.5411 100.011 43.3304C100.011 43.2374 99.9815 43.1581 99.9242 43.1007C99.8669 43.0432 99.7933 43.0104 99.7088 43.0104V43.0131Z" fill="white"/>
<path d="M102.837 42.8544L102.171 45.1688C102.136 45.3001 102.12 45.3877 102.12 45.4314C102.12 45.4533 102.128 45.4752 102.147 45.4971C102.166 45.519 102.185 45.5299 102.207 45.5299C102.245 45.5299 102.28 45.5135 102.316 45.4807C102.414 45.3986 102.531 45.2536 102.668 45.043L102.779 45.1086C102.452 45.6804 102.103 45.9676 101.735 45.9676C101.596 45.9676 101.484 45.9266 101.4 45.8472C101.315 45.7679 101.274 45.6667 101.274 45.5463C101.274 45.4643 101.293 45.363 101.331 45.2399L101.784 43.6806C101.828 43.5329 101.85 43.4207 101.85 43.3441C101.85 43.2949 101.828 43.2511 101.787 43.2155C101.746 43.1772 101.689 43.1581 101.62 43.1581C101.585 43.1581 101.547 43.1581 101.503 43.1608L101.544 43.0323L102.646 42.8544H102.839H102.837ZM102.635 41.3553C102.769 41.3553 102.883 41.4018 102.976 41.4975C103.069 41.5933 103.115 41.7054 103.115 41.8368C103.115 41.9681 103.069 42.0802 102.973 42.176C102.878 42.269 102.766 42.3155 102.635 42.3155C102.504 42.3155 102.395 42.269 102.302 42.176C102.21 42.083 102.163 41.9708 102.163 41.8368C102.163 41.7027 102.21 41.5906 102.3 41.4975C102.39 41.4045 102.501 41.3553 102.635 41.3553Z" fill="white"/>
<path d="M105.201 42.8544C105.37 42.8544 105.531 42.8955 105.681 42.9748C105.831 43.0541 105.946 43.1636 106.022 43.3058C106.098 43.4453 106.137 43.6013 106.137 43.7764C106.137 44.1265 106.038 44.4794 105.845 44.8296C105.648 45.1825 105.392 45.4588 105.07 45.664C104.748 45.8664 104.427 45.9704 104.105 45.9704C103.81 45.9704 103.581 45.8828 103.418 45.705C103.257 45.5272 103.175 45.3138 103.175 45.0594C103.175 44.7585 103.235 44.4739 103.358 44.2086C103.48 43.9432 103.63 43.7134 103.816 43.5192C104.001 43.3222 104.211 43.1636 104.454 43.0405C104.694 42.9174 104.945 42.8572 105.201 42.8572V42.8544ZM105.068 43.0268C104.953 43.0268 104.858 43.0596 104.781 43.128C104.631 43.2648 104.459 43.5849 104.269 44.0882C104.078 44.5916 103.982 45.0457 103.982 45.4506C103.982 45.5518 104.012 45.6339 104.072 45.6968C104.132 45.7624 104.206 45.7953 104.288 45.7953C104.369 45.7953 104.446 45.7707 104.508 45.7187C104.604 45.6393 104.724 45.4643 104.86 45.1934C104.999 44.9199 105.111 44.6189 105.201 44.2907C105.291 43.9624 105.335 43.6587 105.335 43.3852C105.335 43.273 105.308 43.1854 105.253 43.1225C105.198 43.0596 105.136 43.0295 105.065 43.0295L105.068 43.0268Z" fill="white"/>
<path d="M108.114 42.8544L107.716 44.2496C107.986 43.842 108.187 43.563 108.321 43.4125C108.517 43.1964 108.686 43.0487 108.831 42.9721C108.975 42.8927 109.109 42.8544 109.232 42.8544C109.344 42.8544 109.442 42.8955 109.524 42.9803C109.605 43.0651 109.644 43.1745 109.644 43.3085C109.644 43.4289 109.616 43.5766 109.562 43.749L109.147 45.1414C109.112 45.2618 109.095 45.3411 109.095 45.3794C109.095 45.4013 109.104 45.4205 109.123 45.4369C109.139 45.4533 109.158 45.4642 109.175 45.4642C109.196 45.4642 109.218 45.456 109.243 45.4369C109.319 45.374 109.395 45.2864 109.472 45.1688C109.491 45.1387 109.521 45.0922 109.565 45.032L109.69 45.1086C109.374 45.6448 109.038 45.9129 108.686 45.9129C108.553 45.9129 108.446 45.8773 108.373 45.8089C108.296 45.7378 108.261 45.6503 108.261 45.5463C108.261 45.456 108.286 45.322 108.337 45.1414L108.744 43.749C108.771 43.656 108.785 43.5903 108.785 43.5465C108.785 43.5219 108.776 43.5 108.757 43.4836C108.738 43.4672 108.716 43.4563 108.689 43.4563C108.607 43.4563 108.509 43.5137 108.392 43.6259C108.095 43.9131 107.803 44.3372 107.525 44.9034L107.257 45.8719H106.431L107.037 43.7791C107.097 43.5739 107.127 43.4289 107.127 43.3414C107.127 43.3031 107.118 43.273 107.099 43.2456C107.083 43.221 107.053 43.1991 107.015 43.1882C106.977 43.1745 106.903 43.169 106.794 43.169L106.829 43.0432L107.923 42.8517H108.122L108.114 42.8544Z" fill="white"/>
<path d="M113.224 42.9009L112.594 45.0676L112.526 45.3357C112.521 45.3685 112.518 45.3904 112.518 45.404C112.518 45.4314 112.526 45.4533 112.545 45.4724C112.564 45.4916 112.583 45.4998 112.603 45.4998C112.649 45.4998 112.712 45.467 112.793 45.3986C112.826 45.3685 112.903 45.27 113.028 45.1004L113.14 45.1578C112.987 45.4423 112.823 45.6475 112.649 45.7761C112.474 45.9047 112.286 45.9703 112.084 45.9703C111.962 45.9703 111.866 45.9375 111.801 45.8746C111.735 45.8089 111.705 45.7296 111.705 45.6311C111.705 45.5436 111.741 45.3876 111.809 45.1578L111.885 44.8952C111.634 45.3274 111.394 45.6338 111.163 45.8144C111.029 45.9184 110.884 45.9731 110.732 45.9731C110.533 45.9731 110.388 45.891 110.301 45.7269C110.211 45.5627 110.167 45.3767 110.167 45.1715C110.167 44.8651 110.26 44.5122 110.448 44.1155C110.636 43.7189 110.879 43.4015 111.182 43.1608C111.433 42.9611 111.667 42.8626 111.883 42.8626C112.003 42.8626 112.101 42.8982 112.174 42.9666C112.248 43.0377 112.303 43.1663 112.338 43.3523L112.455 42.9529L113.227 42.9091L113.224 42.9009ZM112.185 43.5192C112.185 43.3441 112.158 43.2182 112.103 43.1389C112.063 43.0842 112.011 43.0568 111.945 43.0568C111.88 43.0568 111.809 43.0897 111.735 43.1553C111.591 43.2894 111.433 43.5629 111.266 43.976C111.097 44.3864 111.015 44.742 111.015 45.0429C111.015 45.1578 111.034 45.2426 111.073 45.2919C111.111 45.3411 111.152 45.3657 111.198 45.3657C111.296 45.3657 111.397 45.311 111.495 45.1989C111.637 45.0375 111.765 44.8405 111.88 44.608C112.084 44.2004 112.185 43.8365 112.185 43.5192Z" fill="white"/>
<path d="M115.485 41.3553L114.408 45.0265C114.345 45.2427 114.315 45.3794 114.315 45.4342C114.315 45.4615 114.323 45.4834 114.342 45.5025C114.362 45.5217 114.381 45.5299 114.402 45.5299C114.441 45.5299 114.476 45.5162 114.512 45.4861C114.615 45.4013 114.732 45.2591 114.858 45.0566L114.983 45.1141C114.779 45.4451 114.577 45.6831 114.378 45.8226C114.242 45.9211 114.094 45.9676 113.942 45.9676C113.8 45.9676 113.685 45.9293 113.601 45.85C113.516 45.7706 113.472 45.6776 113.472 45.5709C113.472 45.4889 113.497 45.3603 113.549 45.1825L114.427 42.1787C114.476 42.0146 114.501 41.9051 114.501 41.8504C114.501 41.7985 114.479 41.7574 114.432 41.7246C114.37 41.6808 114.277 41.6644 114.154 41.6726L114.19 41.5468L115.283 41.3525H115.482L115.485 41.3553Z" fill="white"/>
<path d="M125 2H123.874V50H125V2Z" fill="white"/>
</svg>
