<?xml version="1.0" encoding="UTF-8"?>
<svg id="Layer_1" data-name="Layer 1" xmlns="http://www.w3.org/2000/svg" viewBox="0 0 244.1 233.88">
  <defs>
    <style>
      .cls-1 {
        fill: #000;
      }
      @media (prefers-color-scheme: dark){
        .cls-1 {
          fill: #fff
        }
      }
    </style>
  </defs>
  <path id="svg_45" data-name="svg 45" class="cls-1" d="M122.47,66.4c18.33,0,33.2-14.86,33.2-33.2S140.81,0,122.47,0s-33.2,14.86-33.2,33.2c.04,18.32,14.88,33.16,33.2,33.2Z"/>
  <path id="svg_46" data-name="svg 46" class="cls-1" d="M242.58,190.27L169.33,50.82c0,.1-.12-.2-.16-.09-3.29,8.89-9.06,16.66-16.61,22.39l26.83,93c.85,2.6,1.31,5.3,1.39,8.03-.09,11.58-9.35,21.01-20.93,21.32h-75.24c-11.58-.31-20.83-9.74-20.93-21.32.08-2.73.57-5.44,1.44-8.03l27.34-92.96c-7.43-6.17-13.25-12.83-16.77-22.52L1.94,190.27c-1.22,3.43-1.87,7.03-1.94,10.66,0,18.31,14.65,32.95,31.93,32.95h181.06c16.86,0,31.11-14.68,31.11-32.95.07-3.61-.45-7.21-1.52-10.66Z"/>
  <path id="svg_47" data-name="svg 47" class="cls-1" d="M122.04,83.38c-5.72.11-11.41-.95-16.7-3.13l-17.7,72.69c-.82,3.4-2.21,7.34-2.21,11.08,0,18.31,15.07,17.29,33.32,17.29h6.63c18.1,0,33.83.98,33.83-17.29,0-3.74-1.31-7.53-2.21-11.08l-17.62-72.47c-4.25,1.51-8.69,2.42-13.19,2.71-1.36.13-2.75.2-4.15.2Z"/>
</svg>